<?xml version="1.0" encoding="UTF-8" standalone="no"?>
<!-- Created with Inkscape (http://www.inkscape.org/) -->

<svg
   width="172.4621mm"
   height="163.5211mm"
   viewBox="0 0 172.4621 163.52111"
   version="1.1"
   id="svg976"
   inkscape:version="1.1.2 (b8e25be8, 2022-02-05)"
   sodipodi:docname="chainsaw.svg"
   xmlns:inkscape="http://www.inkscape.org/namespaces/inkscape"
   xmlns:sodipodi="http://sodipodi.sourceforge.net/DTD/sodipodi-0.dtd"
   xmlns="http://www.w3.org/2000/svg"
   xmlns:svg="http://www.w3.org/2000/svg">
  <sodipodi:namedview
     id="namedview978"
     pagecolor="#ffffff"
     bordercolor="#666666"
     borderopacity="1.0"
     inkscape:pageshadow="2"
     inkscape:pageopacity="0.0"
     inkscape:pagecheckerboard="0"
     inkscape:document-units="mm"
     showgrid="false"
     fit-margin-top="0"
     fit-margin-left="0"
     fit-margin-right="0"
     fit-margin-bottom="0"
     inkscape:zoom="0.57549102"
     inkscape:cx="144.22467"
     inkscape:cy="396.18342"
     inkscape:window-width="1644"
     inkscape:window-height="997"
     inkscape:window-x="36"
     inkscape:window-y="25"
     inkscape:window-maximized="1"
     inkscape:current-layer="layer1" />
  <defs
     id="defs973" />
  <g
     inkscape:label="Layer 1"
     inkscape:groupmode="layer"
     id="layer1"
     transform="translate(-19.108743,-59.252659)">
    <path
       style="fill:#000000;stroke-width:0.133186"
       d="m 30.166181,222.73826 c -2.07588,-0.16306 -3.931516,-0.99847 -5.458737,-2.45756 -2.119084,-2.02457 -4.702963,-6.2728 -5.330386,-8.76387 -0.328542,-1.3044 -0.360347,-4.16601 -0.06787,-6.10638 1.030751,-6.83824 6.069793,-17.74267 13.194603,-28.55297 0.85049,-1.29044 1.57212,-2.41343 1.60361,-2.49553 0.0621,-0.16199 -0.80147,-8.59027 -1.33221,-13.00177 -0.55963,-4.65162 -0.92719,-8.57534 -0.83591,-8.92348 0.048,-0.18313 0.34371,-0.60267 0.6571,-0.93231 0.991,-1.04237 5.04619,-5.35517 5.95428,-6.33253 1.04424,-1.12389 4.52537,-4.8166 6.20682,-6.58405 0.66334,-0.69727 1.70803,-1.80717 2.32153,-2.46644 1.22071,-1.31177 1.72937,-1.80542 2.72329,-2.64285 0.36138,-0.30449 1.29036,-1.09466 2.06439,-1.75593 0.77402,-0.66128 2.08741,-1.76652 2.91862,-2.4561 1.50522,-1.24874 1.51099,-1.25575 1.43323,-1.74199 -0.0429,-0.26852 -0.32051,-2.45964 -0.61682,-4.86916 -0.29632,-2.40951 -0.62403,-4.92035 -0.72823,-5.57962 -0.6027,-3.813 -1.84947,-14.14005 -1.85718,-15.38302 -0.008,-1.34822 0.008,-1.43195 0.46653,-2.330761 0.93991,-1.84401 2.7366,-2.82234 4.96812,-2.70522 1.30954,0.0687 2.03157,0.37709 3.20894,1.37044 0.9341,0.7881 3.78901,3.090691 4.79248,3.865321 0.37958,0.29301 0.95599,0.75666 1.28091,1.03033 0.32493,0.27367 2.7484,2.20966 5.38549,4.3022 2.63709,2.09254 5.15431,4.09991 5.59383,4.46083 1.78202,1.46332 3.02759,2.40669 3.09227,2.34201 0.16101,-0.16101 0.69339,-5.48299 0.69823,-6.98002 0.006,-1.81829 -0.1961,-3.03723 -0.80839,-4.87838 -0.7342,-2.207711 -1.54762,-3.491131 -4.83407,-7.627241 -0.59298,-0.74629 -1.52765,-1.93414 -2.07704,-2.63968 -0.54939,-0.70555 -1.31994,-1.6832 -1.71232,-2.17256 -0.39238,-0.48937 -0.85962,-1.20083 -1.03831,-1.58102 -1.22897,-2.61484 -0.15848,-5.64439 2.42204,-6.854557 2.20243,-1.032857 4.70564,-0.372595 6.25538,1.649957 1.35531,1.7688 3.03814,3.95424 4.59121,5.96245 3.91423,5.06136 5.34972,7.74343 6.5484,12.234971 0.9707,3.63733 1.1247,6.61813 0.59611,11.5388 -0.34872,3.24626 -0.82046,7.53251 -0.94122,8.55178 -0.0487,0.41086 -0.0228,0.54182 0.0968,0.49031 0.0897,-0.0387 0.70019,-0.77041 1.35652,-1.62609 3.98986,-5.20175 5.52362,-7.08622 5.87676,-7.22048 0.5776,-0.2196 1.213379,-0.15119 1.586829,0.17075 0.41842,0.3607 0.7939,1.24629 3.33395,7.86328 0.62751,1.63471 0.94396,2.19755 1.79955,3.20069 0.0513,0.0602 0.25345,-0.039 0.44918,-0.22041 0.24764,-0.2295 0.62754,-0.37568 1.2491,-0.48063 1.91919,-0.32404 1.6726,-0.1288 2.00083,-1.58422 0.32573,-1.44436 0.66699,-1.9562 1.38939,-2.08391 0.23821,-0.0421 0.85048,-0.1501 1.36061,-0.23998 l 0.9275,-0.16342 0.11751,-0.53192 c 0.32279,-1.46111 0.64742,-2.32854 0.96492,-2.57828 0.22002,-0.17307 0.73412,-0.31681 1.51449,-0.42346 0.64977,-0.0888 1.2389,-0.19871 1.30917,-0.24427 0.0703,-0.0455 0.22961,-0.56229 0.35409,-1.14831 0.42342,-1.99336 0.50839,-2.07973 2.36057,-2.39946 0.68577,-0.11838 1.28255,-0.25624 1.32619,-0.30635 0.0436,-0.0501 0.18821,-0.62547 0.32128,-1.27858 0.33868,-1.66222 0.54455,-1.86394 2.25682,-2.21131 0.72906,-0.14791 1.36928,-0.33964 1.42269,-0.42607 0.0534,-0.0864 0.16472,-0.54529 0.24733,-1.01969 0.30941,-1.77677 0.66699,-2.10657 2.62209,-2.41845 l 1.08934,-0.17378 0.24252,-1.2087 c 0.37542,-1.87108 0.67913,-2.11259 3.09045,-2.45751 l 0.60084,-0.0859 0.28114,-1.208161 c 0.43684,-1.8773 0.71062,-2.13674 2.51768,-2.38575 1.1754,-0.16198 1.18628,-0.17318 1.52244,-1.56757 0.41189,-1.70857 0.60978,-1.89293 2.35978,-2.1985 l 1.31928,-0.23036 0.28278,-1.30949 c 0.37985,-1.75893 0.53202,-1.90627 2.26673,-2.19477 0.7248,-0.12054 1.34926,-0.26206 1.38767,-0.3145 0.0384,-0.0524 0.17999,-0.6402 0.3146,-1.30615 0.33813,-1.67279 0.5603,-1.88411 2.28175,-2.17037 0.71079,-0.11819 1.31262,-0.23517 1.3374,-0.25996 0.0248,-0.0248 0.17066,-0.61248 0.32415,-1.30599 0.38385,-1.73422 0.59898,-1.942105 2.27368,-2.196996 0.69112,-0.105188 1.29332,-0.192326 1.33824,-0.19364 0.0449,-0.0013 0.18571,-0.526299 0.31287,-1.166633 0.26426,-1.330576 0.48111,-1.822472 0.90542,-2.053717 0.16405,-0.08941 0.86093,-0.25651 1.54859,-0.371325 l 1.25033,-0.208755 0.28955,-1.197562 c 0.47121,-1.948935 0.53687,-2.014887 2.37773,-2.388627 l 1.34953,-0.273985 0.33731,-1.38561 c 0.41342,-1.698287 0.52368,-1.799461 2.34665,-2.153148 0.72617,-0.140892 1.32786,-0.256366 1.33708,-0.25661 0.009,-2.66e-4 0.12191,-0.541667 0.25039,-1.203163 0.34891,-1.796335 0.66364,-2.083346 2.62942,-2.397862 1.14649,-0.183432 1.10241,-0.12981 1.36499,-1.660279 0.26203,-1.52718 0.78066,-1.929969 2.486,-1.930704 l 1.15374,-5.33e-4 0.34455,-0.899008 c 0.8323,-2.17159 1.41019,-2.444493 3.31387,-1.56494 0.5549,0.256384 1.0578,0.465323 1.11755,0.464308 0.0597,-0.0011 0.49769,-0.332585 0.97322,-0.736823 0.9742,-0.828151 1.60818,-1.086342 2.15426,-0.877348 0.32183,0.123166 1.33674,1.222164 1.84386,1.996625 l 0.20121,0.30727 1.08625,-0.277347 c 1.3095,-0.334346 1.55792,-0.341608 2.03547,-0.05951 0.53452,0.315746 0.74838,0.774857 0.93582,2.009035 0.12223,0.804658 0.2239,1.110466 0.38371,1.153966 0.11958,0.03255 0.66692,0.156633 1.21632,0.275734 1.06086,0.229985 1.27668,0.344386 1.63764,0.868108 0.29573,0.429082 0.28641,0.926588 -0.0394,2.102337 -0.1465,0.528681 -0.26637,1.01337 -0.26637,1.077087 0,0.06372 0.44647,0.482283 0.99214,0.930147 0.7857,0.644861 1.01008,0.909929 1.07836,1.273882 0.14279,0.761142 -0.0413,1.169536 -0.95702,2.122872 l -0.87403,0.90994 0.46158,1.205554 c 0.72605,1.896374 0.46792,2.447541 -1.45236,3.101091 l -1.0843,0.36903 -0.0948,1.264163 c -0.088,1.173748 -0.12475,1.296026 -0.51392,1.709643 -0.37427,0.397765 -0.5606,0.470973 -1.73968,0.683483 l -1.32052,0.238 -0.29818,1.21559 c -0.164,0.66858 -0.36871,1.34739 -0.45492,1.50847 -0.20447,0.38204 -0.76483,0.60472 -2.03189,0.80744 -0.56698,0.0907 -1.08305,0.23173 -1.1468,0.31336 -0.0638,0.0816 -0.25097,0.70321 -0.41601,1.38128 -0.38691,1.58961 -0.5694,1.75408 -2.30997,2.08192 -0.70923,0.13358 -1.28951,0.25779 -1.28951,0.27602 0,0.28342 -0.68401,2.66345 -0.80862,2.81359 -0.29514,0.35562 -0.81859,0.54093 -2.01379,0.71294 l -1.15757,0.1666 -0.20759,0.91266 c -0.11417,0.50197 -0.20758,0.98168 -0.20758,1.06603 0,0.31581 -0.44446,1.07409 -0.71659,1.22255 -0.15528,0.0847 -0.85168,0.24891 -1.54758,0.36489 l -1.26527,0.21088 -0.29368,1.32863 c -0.34956,1.581421 -0.67698,1.985091 -1.72897,2.131561 -0.35258,0.0491 -0.94075,0.16183 -1.30701,0.25054 l -0.66593,0.16129 -0.21783,1.02634 c -0.42373,1.99657 -0.56779,2.14288 -2.40018,2.43783 -1.19,0.19156 -1.43768,0.30986 -1.44214,0.68882 -10e-4,0.0954 -0.0981,0.59582 -0.21549,1.112 -0.31931,1.40384 -0.608,1.65888 -2.2199,1.96103 -0.71569,0.13416 -1.32363,0.26768 -1.35098,0.29672 -0.0273,0.029 -0.20657,0.65213 -0.39828,1.38466 -0.44031,1.68247 -0.56274,1.7978 -2.24463,2.11458 -0.70766,0.13328 -1.34114,0.31137 -1.40775,0.39574 -0.0666,0.0844 -0.1961,0.57294 -0.28778,1.08571 -0.31474,1.76042 -0.60939,2.06282 -2.26576,2.32539 -1.50879,0.23918 -1.41575,0.16581 -1.66017,1.30903 -0.43003,2.01131 -0.58293,2.16745 -2.44232,2.49406 l -1.30457,0.22916 -0.23422,1.13784 c -0.39614,1.92452 -0.62616,2.14148 -2.58636,2.43959 -0.93335,0.14195 -1.11186,0.20991 -1.16549,0.44373 -0.0348,0.15186 -0.15596,0.68702 -0.26918,1.18924 -0.35222,1.56239 -0.65711,1.8241 -2.44372,2.0976 -1.2527,0.19176 -1.19058,0.12487 -1.54606,1.66458 -0.39578,1.71427 -0.5476,1.8376 -2.68793,2.18348 l -0.95698,0.15466 -0.28651,1.22033 c -0.316,1.34601 -0.56576,1.8681 -0.98471,2.05839 -0.15271,0.0694 -0.80817,0.2049 -1.45658,0.30119 -1.347,0.20002 -1.2785,0.12551 -1.62785,1.77062 -0.32057,1.50952 -0.49947,1.67094 -2.18544,1.97198 -0.75699,0.13517 -1.39588,0.26529 -1.41976,0.28917 -0.0239,0.0239 -0.1359,0.51883 -0.24894,1.09989 -0.22987,1.1816 -0.48807,1.78961 -0.85813,2.02071 -0.13705,0.0856 -0.8059,0.25221 -1.48634,0.37027 -0.68044,0.11806 -1.285,0.24421 -1.34346,0.28034 -0.3863,0.23875 0.042,0.53412 5.31997,3.66898 1.18152,0.70176 1.49944,1.1045 1.49944,1.89951 0,0.32886 -0.11035,0.58971 -0.36626,0.86582 -0.41814,0.45113 -1.12987,0.67505 -6.42625,2.02181 -1.79468,0.45636 -4.08727,1.04413 -5.09464,1.30617 l -1.83158,0.47644 -1.83104,2.01414 c -1.00708,1.10778 -2.79633,3.0856 -3.97611,4.39515 -7.19327,7.98452 -9.274099,10.23879 -10.484929,11.35882 -1.59869,1.47881 -7.06415,6.50206 -8.40741,7.72716 -2.29355,2.09181 -3.80587,3.48072 -4.84126,4.44618 -1.41292,1.31749 -1.82187,1.52662 -2.55548,1.30682 -0.42956,-0.1287 -0.70334,-0.36653 -1.33062,-1.15588 -0.43438,-0.54663 -0.84824,-1.09814 -0.9197,-1.2256 -0.14556,-0.2596 -0.1921,-0.2254 -1.83636,1.35013 l -0.82246,0.78807 0.69958,0.87942 c 1.3764,1.73025 1.545,2.01464 1.53996,2.59753 -0.006,0.73567 -0.1998,1.03866 -1.091,1.70885 -0.70129,0.52736 -1.69708,1.29279 -4.23583,3.2559 -2.41992,1.87123 -4.33836,3.34054 -4.92536,3.77228 -0.34859,0.25638 -1.7944,1.36063 -3.21292,2.45389 -1.41852,1.09326 -3.20843,2.46737 -3.97758,3.05356 -0.76915,0.5862 -1.87106,1.4298 -2.44869,1.87467 -0.57762,0.44485 -1.20693,0.92815 -1.39845,1.07396 -0.19153,0.14581 -1.43759,1.10475 -2.76903,2.13098 -2.85642,2.20162 -7.48488,5.75113 -10.4219,7.99243 -5.01215,3.82488 -6.64748,5.08245 -7.33503,5.64067 -0.75695,0.61455 -2.47227,1.48444 -3.44215,1.74561 -0.93605,0.25204 -2.16535,0.34418 -3.35036,0.25111 z m 1.86461,-3.17946 c 1.04132,-0.16238 2.48655,-0.84571 3.39625,-1.60582 0.36626,-0.30603 1.08547,-0.87295 1.59824,-1.25982 0.51276,-0.38687 1.41177,-1.07372 1.99779,-1.52633 1.24716,-0.96323 3.15975,-2.4268 4.52441,-3.4622 0.53101,-0.40289 2.1276,-1.62747 3.54799,-2.72131 2.64782,-2.03905 3.95161,-3.04084 5.87796,-4.51637 2.07191,-1.58705 6.42688,-4.92816 7.22627,-5.54398 0.8632,-0.66497 2.04054,-1.57039 5.26086,-4.04576 1.13542,-0.87277 2.72367,-2.08675 3.52944,-2.69774 0.80578,-0.611 1.97449,-1.50638 2.59714,-1.98974 0.62264,-0.48335 1.65505,-1.27218 2.29422,-1.75295 0.73353,-0.55172 1.1265,-0.93137 1.0655,-1.02935 -0.0532,-0.0854 -0.35777,-0.49594 -0.67691,-0.91233 l -0.58026,-0.75707 -0.34291,0.68815 c -0.44663,0.89626 -1.29443,1.72043 -2.25492,2.19207 -0.7103,0.34879 -0.88874,0.3781 -2.30164,0.3781 -1.78522,0 -2.36513,-0.19645 -3.40506,-1.15351 -0.75303,-0.69302 -1.14116,-1.28298 -1.43167,-2.17615 -0.19902,-0.61187 -0.64463,-3.67876 -1.03532,-7.12547 -0.0872,-0.76915 -0.20007,-1.44537 -0.25085,-1.50272 -0.0508,-0.0573 -0.50188,0.13506 -1.00243,0.42756 -1.10272,0.6444 -3.92317,1.92837 -5.17191,2.35445 -1.14617,0.39108 -3.47597,0.91495 -5.24918,1.18029 -4.11194,0.61531 -8.81758,-0.26363 -13.39896,-2.5027 l -1.97735,-0.9664 -0.41825,0.60465 c -0.61161,0.88417 -1.68305,2.58374 -3.15199,4.9998 -7.190329,11.82643 -10.914063,21.96664 -9.98074,27.17885 0.198544,1.10879 1.515153,3.77619 2.67112,5.4116 1.757197,2.486 2.84818,3.34078 4.80678,3.76608 1.04904,0.22779 1.17558,0.23154 2.23638,0.0661 z m -1.57301,-4.10498 c -0.48379,-0.13625 -1.42422,-1.16612 -2.38003,-2.60637 -1.576406,-2.37544 -1.84837,-3.29446 -1.627227,-5.49879 0.449787,-4.48344 3.450047,-11.81583 8.217837,-20.08373 2.09062,-3.62537 2.15396,-3.70929 3.00911,-3.98684 0.14624,-0.0475 1.07167,0.19734 2.19757,0.58132 3.2921,1.12275 6.1967,1.55922 9.53657,1.43308 1.99953,-0.0755 5.20044,-0.54121 6.52613,-0.94948 0.79891,-0.24602 1.2703,-0.26065 1.72498,-0.0535 0.18648,0.085 1.16322,1.22805 2.17054,2.54019 2.64218,3.44169 2.6972,3.52745 2.6972,4.20401 0,0.79125 -0.1111,0.95074 -1.28491,1.84449 -0.5632,0.4288 -1.45351,1.10929 -1.97847,1.51218 -3.5787,2.74652 -9.37682,7.19268 -12.65239,9.70221 -2.12432,1.62753 -4.82614,3.70269 -6.00405,4.61149 -1.17791,0.90879 -2.73619,2.10366 -3.46285,2.65524 -0.72665,0.55158 -2.16026,1.64327 -3.1858,2.42596 -2.28718,1.7456 -2.63775,1.91252 -3.50421,1.66852 z m 3.06447,-5.29768 c 1.12088,-0.85918 2.90702,-2.22125 3.96918,-3.02684 1.06216,-0.80558 2.2009,-1.68393 2.53054,-1.95187 0.54488,-0.44291 2.89413,-2.24379 5.3846,-4.12771 2.73201,-2.06664 8.31852,-6.34633 8.67758,-6.64769 0.22582,-0.18953 1.38013,-1.08357 2.56513,-1.98676 1.36649,-1.0415 2.12019,-1.69916 2.06061,-1.79801 -0.125,-0.20737 -2.06749,-2.7728 -2.24673,-2.96722 -0.10485,-0.11374 -0.62873,-0.056 -2.06439,0.2274 -2.77964,0.54874 -4.51337,0.70259 -6.84111,0.60704 -1.10465,-0.0453 -2.27816,-0.11919 -2.60779,-0.16411 l -0.59934,-0.0817 -0.85513,1.51092 c -0.47032,0.83098 -1.15311,2.05031 -1.51731,2.70958 -0.8933,1.61703 -1.81135,3.14577 -2.05907,3.4288 -0.44266,0.50574 -0.98918,0.51061 -2.8645,0.0256 -0.96836,-0.25047 -2.03431,-0.53964 -2.36877,-0.64256 l -0.6081,-0.18715 -0.48111,0.95185 c -1.02054,2.01903 -2.38074,5.35521 -3.0851,7.56685 -1.0743,3.37322 -1.26558,4.95034 -0.72814,6.0038 0.52717,1.03334 1.37915,2.23543 1.54048,2.17352 0.0883,-0.0339 1.07758,-0.76454 2.19847,-1.62372 z m 5.22653,-18.39661 c 0.3619,-0.64072 1.04298,-1.84237 1.5135,-2.67032 0.47053,-0.82797 0.8337,-1.52161 0.80704,-1.54146 -0.0267,-0.0198 -0.50888,-0.16683 -1.07163,-0.32665 -0.56275,-0.15981 -1.10739,-0.32288 -1.21031,-0.36239 -0.1742,-0.0668 -1.61266,2.25981 -2.85616,4.61973 l -0.39555,0.75067 1.21096,0.33527 c 0.66602,0.18439 1.24092,0.34086 1.27754,0.34769 0.0366,0.007 0.3627,-0.51182 0.72461,-1.15254 z m 31.23229,-6.12993 c 0.18744,-0.13797 0.45746,-0.46389 0.60005,-0.72427 l 0.25925,-0.47339 -0.50242,-4.11073 c -0.27633,-2.26091 -0.70539,-5.54916 -0.95346,-7.30722 -0.24807,-1.75806 -0.72428,-5.41402 -1.05825,-8.12437 -0.33397,-2.71034 -0.69711,-5.49726 -0.80699,-6.19316 -0.18818,-1.19192 -0.60442,-4.38939 -2.66135,-20.44411 -0.46925,-3.66262 -0.88521,-6.78957 -0.92436,-6.94878 -0.0391,-0.1592 -0.42968,-3.15589 -0.86787,-6.65931 -0.43819,-3.50343 -0.85722,-6.6995 -0.93118,-7.10239 -0.074,-0.40288 -0.49516,-3.57938 -0.93599,-7.05887 -1.11785,-8.82325 -1.22526,-9.51498 -1.5455,-9.9531 -0.67449,-0.922771 -2.04324,-1.050811 -2.92809,-0.2739 -0.76052,0.66775 -0.76111,0.75775 -0.0429,6.45606 0.35835,2.84317 0.74315,5.76873 0.85513,6.50126 0.11198,0.73252 0.53054,3.90902 0.93014,7.05887 0.3996,3.14986 0.81431,6.32636 0.92158,7.05888 0.10727,0.73253 0.47024,3.54942 0.80661,6.25976 0.33637,2.71034 0.73119,5.737 0.87739,6.72591 0.14619,0.98891 0.56444,4.19537 0.92945,7.12547 0.36501,2.9301 0.75153,5.86686 0.85894,6.52613 0.1074,0.65927 0.49686,3.626 0.86547,6.59273 0.3686,2.96672 0.79318,6.23312 0.94349,7.25865 0.15032,1.02554 0.62845,4.65154 1.06252,8.05778 1.23845,9.71845 1.14508,9.26664 2.03685,9.85659 0.34066,0.22535 0.56007,0.26604 1.14601,0.21255 0.40763,-0.0372 0.8738,-0.17593 1.0655,-0.31704 z m 6.1677,-5.31412 c 0.49445,-0.47682 0.89901,-0.89481 0.89901,-0.92886 0,-0.034 -0.18283,-0.28941 -0.40629,-0.56746 -0.39975,-0.49745 -0.41571,-0.5771 -0.99221,-4.95339 -0.32226,-2.4463 -0.70593,-5.22695 -0.8526,-6.17923 -0.14667,-0.95229 -0.51087,-3.61934 -0.80934,-5.9268 -0.29846,-2.30745 -0.66093,-4.94454 -0.80548,-5.8602 -0.14455,-0.91565 -0.4722,-3.22311 -0.72812,-5.12767 l -0.46531,-3.46285 0.53442,-1.73142 c 0.29394,-0.95228 0.83611,-2.72033 1.20483,-3.929 0.36871,-1.20866 0.93898,-3.03372 1.26725,-4.05569 l 0.59686,-1.85812 -0.51102,-0.51102 -0.51102,-0.51102 -1.12674,1.10387 c -0.6197,0.60713 -2.01585,1.94294 -3.10253,2.96848 l -1.9758,1.86461 0.0655,0.59934 c 0.1657,1.51605 1.70548,13.54089 1.75661,13.71819 0.0687,0.23834 0.68855,5.00075 1.26536,9.7226 0.22819,1.86794 0.49956,3.90569 0.60305,4.52834 0.1035,0.62265 0.46639,3.37594 0.80644,6.11842 l 0.61826,4.98634 0.55196,0.68708 0.55196,0.68707 0.33297,-0.25732 c 0.18313,-0.14153 0.73752,-0.64746 1.23197,-1.12429 z m 8.32228,-1.79595 c 12.01553,-10.93252 11.71394,-10.63389 19.221369,-19.03277 1.87755,-2.1005 4.80571,-5.34443 6.18345,-6.85028 5.98331,-6.53967 7.41152,-8.16453 7.25917,-8.25869 -0.12751,-0.0788 -3.90276,-4.96067 -4.72628,-6.11166 -0.21976,-0.30715 -1.21036,-1.60461 -2.20134,-2.88325 -0.99098,-1.27864 -2.02781,-2.62446 -2.30408,-2.99073 -0.60151,-0.79746 -2.21142,-2.90414 -2.95302,-3.86422 -0.29301,-0.37934 -1.14858,-1.50819 -1.90127,-2.50856 -0.83497,-1.10973 -1.58392,-1.96152 -1.92099,-2.18478 -0.55189,-0.36554 -0.55538,-0.36597 -3.312949,-0.40658 -2.22048,-0.0327 -2.8539,-0.002 -3.23802,0.15886 -0.3657,0.1528 -4.90114,3.68634 -6.80667,5.30303 -0.14713,0.12484 -0.63393,0.51441 -1.08177,0.86571 -0.44784,0.35131 -1.07714,0.85384 -1.39845,1.11674 -0.99628,0.81516 -5.48715,4.4278 -6.03686,4.85631 -0.56915,0.44366 -0.53756,0.35644 -2.53816,7.00651 -0.38914,1.29352 -0.89396,2.91173 -1.12182,3.59603 l -0.41431,1.2442 0.26186,1.79801 c 0.14402,0.98891 0.59567,4.28527 1.00367,7.32525 0.408,3.03998 0.85914,6.27641 1.00253,7.19207 0.14339,0.91565 0.59875,4.23894 1.01191,7.38509 l 0.75119,5.72026 0.54604,0.73927 c 0.79746,1.07969 2.25547,2.93686 2.30564,2.93686 0.0238,0 1.10789,-0.96871 2.40916,-2.15268 z m 9.29162,-18.21751 c -0.14651,-0.0599 -0.92418,-0.8203 -1.72816,-1.68969 -0.80397,-0.86938 -2.30245,-2.47971 -3.32993,-3.5785 -3.56365,-3.81093 -3.26606,-3.43142 -3.26606,-4.1652 0,-0.74682 0.13278,-0.92357 1.93637,-2.57768 3.20414,-2.93858 4.0267,-3.70034 4.58382,-4.24499 0.33718,-0.32964 1.41947,-1.34851 2.40508,-2.26417 3.43079,-3.18726 3.80891,-3.53926 5.55296,-5.16918 2.449689,-2.28941 2.630419,-2.42244 3.290829,-2.42244 0.30326,0 0.68801,0.0957 0.855,0.21265 0.60278,0.42221 7.92151,8.38869 8.10482,8.82214 0.14503,0.34295 0.15496,0.54406 0.0435,0.88173 -0.14284,0.43281 -1.56707,1.87671 -4.47245,4.5342 -1.21691,1.11308 -2.6069,2.4101 -3.78243,3.52944 -0.26925,0.25638 -1.17301,1.09545 -2.00834,1.86461 -0.83533,0.76915 -2.029779,1.8809 -2.654329,2.47057 -0.62455,0.58966 -1.52505,1.42874 -2.00113,1.86461 -0.47607,0.43587 -0.8956,0.82246 -0.9323,0.85908 -0.89727,0.89553 -1.36204,1.19808 -1.82847,1.19024 -0.27633,-0.005 -0.62229,-0.0575 -0.76879,-0.11742 z m 3.09006,-5.83423 c 1.23631,-1.15373 3.953599,-3.68504 6.038419,-5.62514 2.08483,-1.9401 4.19303,-3.90317 4.6849,-4.36238 l 0.8943,-0.83493 -2.6039,-2.79639 c -1.43215,-1.53801 -2.66247,-2.79638 -2.73405,-2.79638 -0.0716,0 -0.62081,0.46271 -1.2205,1.02825 -0.59969,0.56553 -1.47842,1.38962 -1.952719,1.83131 -0.4743,0.44169 -1.31338,1.22496 -1.86461,1.7406 -2.46914,2.30972 -4.11817,3.83804 -6.53299,6.05475 -1.71708,1.57621 -2.26066,2.11949 -2.26066,2.2594 0,0.13905 5.0785,5.5986 5.20785,5.5986 0.0529,0 1.10766,-0.94396 2.34396,-2.09769 z m -2.7707,-2.3351 c -0.60578,-0.40695 -0.90375,-1.21998 -0.66148,-1.80489 0.13525,-0.32651 1.6139,-1.81587 4.05794,-4.08731 0.0806,-0.0749 1.04559,-0.97967 2.14438,-2.01055 1.098789,-1.03089 2.128709,-1.94351 2.288709,-2.02806 0.50113,-0.2648 1.18292,-0.18516 1.62912,0.19029 0.80092,0.67393 0.75316,1.86009 -0.10506,2.60947 -0.26571,0.232 -2.04139,1.88943 -3.945959,3.68318 -1.90457,1.79374 -3.64265,3.37149 -3.8624,3.50611 -0.53337,0.32674 -0.99824,0.30922 -1.54525,-0.0582 z m -41.31705,25.4167 c 1.87798,-0.39151 3.89173,-1.08204 4.00329,-1.37274 0.0424,-0.11047 -0.0233,-0.89721 -0.14599,-1.74834 -0.23523,-1.63206 -0.46809,-3.60353 -1.22101,-10.33781 -0.25389,-2.27082 -0.55144,-4.75808 -0.66121,-5.52723 -0.32089,-2.24829 -0.86424,-7.0731 -0.86993,-7.72481 l -0.005,-0.59934 2.39097,-2.33076 2.39097,-2.33076 -0.18635,-1.13208 c -0.10249,-0.62265 -0.4877,-3.55941 -0.85602,-6.52613 -0.36832,-2.96673 -0.70345,-5.59687 -0.74473,-5.84477 l -0.075,-0.45072 -0.49006,0.4608 c -0.26954,0.25343 -1.53891,1.3326 -2.82083,2.39815 -2.25213,1.87199 -3.41948,3.03669 -8.388,8.36893 -0.9874,1.05969 -2.39844,2.55601 -3.13563,3.32516 -0.73719,0.76915 -2.32349,2.4473 -3.5251,3.72922 -1.20162,1.28192 -2.45051,2.61049 -2.77533,2.95239 l -0.59057,0.62164 0.21903,1.9755 c 0.12047,1.08652 0.2786,2.425 0.35141,2.97439 0.0728,0.5494 0.37306,3.30636 0.66723,6.12658 1.01126,9.69495 1.05509,10.03956 1.30152,10.23293 0.79817,0.62631 4.36781,2.15504 5.98411,2.56276 2.13367,0.53822 3.17576,0.65181 5.42959,0.59185 1.59283,-0.0424 2.54057,-0.14207 3.75293,-0.39481 z m 8.41182,-3.47397 c 1.0773,-0.62762 1.1077,-0.65893 1.02351,-1.05391 -0.0477,-0.22389 -0.50039,-3.61354 -1.00593,-7.53255 -0.50554,-3.91901 -1.12793,-8.68375 -1.38311,-10.58831 -0.25517,-1.90457 -0.50541,-3.86956 -0.55609,-4.36666 -0.0507,-0.4971 -0.13448,-0.88667 -0.18623,-0.86571 -0.0517,0.0209 -0.53503,0.44236 -1.07396,0.93646 l -0.97986,0.89837 0.36426,2.76426 c 0.20034,1.52034 0.65919,5.34141 1.01965,8.49127 1.10461,9.65233 1.42416,12.09049 1.57432,12.0122 0.0512,-0.0267 0.59278,-0.33965 1.20344,-0.69542 z m 58.549179,-25.61094 1.98977,-0.50217 -0.7245,-0.42166 c -0.39847,-0.23192 -0.87882,-0.52127 -1.06743,-0.64301 -0.34065,-0.21987 -0.34742,-0.21657 -1.01621,0.49458 -0.94247,1.00217 -1.41416,1.58226 -1.28313,1.57803 0.0615,-0.002 1.00713,-0.22958 2.1015,-0.50577 z m 0.0243,-8.51821 1.31068,-0.22887 0.28612,-1.32493 c 0.37894,-1.75474 0.58966,-1.95707 2.29239,-2.20113 0.67188,-0.0963 1.272,-0.24134 1.3336,-0.32231 0.0616,-0.081 0.22221,-0.68662 0.35693,-1.3459 0.32193,-1.57542 0.57025,-1.83908 1.93556,-2.05512 1.88256,-0.29788 1.67025,-0.13165 1.99635,-1.56312 0.40772,-1.78973 0.60322,-1.98126 2.32571,-2.2785 l 1.33186,-0.22983 0.29583,-1.12854 c 0.54253,-2.0696 0.61534,-2.14294 2.38418,-2.40158 0.59011,-0.0863 1.1471,-0.20272 1.23775,-0.25874 0.0907,-0.056 0.28187,-0.62716 0.42493,-1.26919 0.41172,-1.84779 0.5023,-1.9353 2.3507,-2.27103 0.67802,-0.12315 1.26259,-0.27217 1.29905,-0.33116 0.0365,-0.059 0.16288,-0.57712 0.28094,-1.1514 0.25137,-1.22275 0.47405,-1.70872 0.88332,-1.92775 0.22909,-0.12261 2.36985,-0.61978 2.77135,-0.64362 0.041,-0.002 0.18461,-0.54692 0.31921,-1.20997 0.36502,-1.79807 0.67672,-2.08155 2.63297,-2.39453 0.73725,-0.11795 1.04606,-0.22564 1.08956,-0.37995 0.0334,-0.11844 0.16066,-0.67922 0.28279,-1.24619 0.34324,-1.5933 0.61398,-1.82276 2.5247,-2.13979 l 1.06349,-0.17645 0.17719,-0.65722 c 0.4783,-1.77411 0.57923,-2.03925 0.89747,-2.35749 0.25926,-0.25925 0.57551,-0.37931 1.30076,-0.4938 1.83677,-0.28995 1.63578,-0.13471 1.95186,-1.50753 0.43516,-1.89001 0.64141,-2.08015 2.56246,-2.36229 l 1.15873,-0.17018 0.12941,-0.61218 c 0.0712,-0.3367 0.17208,-0.85191 0.22424,-1.14492 0.12712,-0.714321 0.39812,-1.222041 0.75982,-1.423611 0.16406,-0.0914 0.86746,-0.26245 1.56311,-0.38006 l 1.2648,-0.21383 0.28092,-1.25542 c 0.15449,-0.69048 0.3214,-1.34849 0.37089,-1.46225 0.162,-0.37232 0.82619,-0.65025 2.00522,-0.83905 0.63756,-0.10209 1.20613,-0.23817 1.2635,-0.3024 0.0574,-0.0642 0.20259,-0.62141 0.32272,-1.23819 0.34401,-1.76612 0.57423,-1.96943 2.57337,-2.27243 l 1.0887,-0.16501 0.21745,-1.01749 c 0.43784,-2.04862 0.62411,-2.24325 2.43196,-2.54094 l 1.29978,-0.21404 0.34766,-1.3863 c 0.42847,-1.70842 0.61879,-1.91056 2.00823,-2.13282 1.70449,-0.27265 1.5936,-0.17582 1.9928,-1.740061 0.38764,-1.518935 0.5882,-1.792245 1.42112,-1.936654 0.26947,-0.04672 0.81753,-0.15444 1.21791,-0.23938 l 0.72797,-0.154436 0.1523,-1.232026 c 0.1011,-0.817864 0.23097,-1.318951 0.38631,-1.490603 0.12871,-0.142216 0.64899,-0.421388 1.15619,-0.62038 0.71799,-0.281695 0.90287,-0.408287 0.83496,-0.571735 -0.41488,-0.99858 -0.59273,-1.689787 -0.52,-2.02094 0.0459,-0.208775 0.36035,-0.687655 0.69888,-1.064176 l 0.6155,-0.684585 -0.7486,-0.696746 c -0.90917,-0.846191 -1.01893,-1.25099 -0.6515,-2.402799 0.29077,-0.911475 0.31591,-0.877848 -0.84164,-1.126086 -1.09035,-0.233829 -1.44867,-0.617106 -1.66911,-1.785353 l -0.1716,-0.909483 -0.4154,0.07799 c -0.22849,0.0429 -0.75886,0.116699 -1.17864,0.164004 -0.75547,0.08514 -0.76832,0.08075 -1.26527,-0.432385 -0.27612,-0.285117 -0.62824,-0.697701 -0.78248,-0.916851 l -0.28042,-0.398455 -0.54021,0.488038 c -1.03093,0.931385 -1.56022,1.018332 -2.69588,0.442855 -0.37113,-0.188069 -0.72377,-0.311667 -0.78364,-0.274665 -0.0599,0.037 -0.24099,0.429676 -0.40249,0.87261 -0.3781,1.036981 -0.67039,1.222759 -2.19641,1.396066 l -1.21113,0.137543 -0.22185,1.053145 c -0.36837,1.748758 -0.43731,1.814232 -2.31416,2.197646 -0.70895,0.144829 -1.30931,0.283634 -1.33412,0.308455 -0.0248,0.02482 -0.15708,0.561338 -0.29389,1.192261 -0.13682,0.630923 -0.34522,1.294343 -0.4631,1.474267 -0.2944,0.449296 -0.90834,0.704493 -2.17431,0.903796 l -1.07431,0.169126 -0.24271,1.200739 c -0.19714,0.975292 -0.32239,1.287687 -0.66709,1.663816 -0.38794,0.42332 -0.53671,0.482075 -1.73278,0.684353 l -1.30841,0.221276 -0.28809,1.191471 c -0.46904,1.93986 -0.59794,2.067981 -2.39351,2.37898 -0.65425,0.113321 -1.23144,0.252093 -1.28264,0.308383 -0.0512,0.05629 -0.19702,0.581815 -0.32405,1.167839 -0.27154,1.25264 -0.49266,1.73113 -0.90105,1.94992 -0.16406,0.0879 -0.86202,0.25449 -1.55105,0.37021 l -1.25276,0.21041 -0.29369,1.32272 c -0.39149,1.7632 -0.61928,1.98035 -2.32133,2.21295 -1.37661,0.18812 -1.35267,0.16628 -1.59901,1.45882 -0.21572,1.13189 -0.44628,1.6648 -0.82765,1.91291 -0.17093,0.11121 -0.87147,0.29199 -1.55677,0.40173 -0.68528,0.10974 -1.26246,0.21819 -1.2826,0.24101 -0.0202,0.0228 -0.16671,0.61753 -0.32568,1.32158 -0.38987,1.72653 -0.58425,1.91058 -2.34319,2.21876 l -1.31482,0.23036 -0.28111,1.19868 c -0.15462,0.65927 -0.3543,1.33291 -0.44374,1.49697 -0.23474,0.43059 -0.74402,0.64922 -1.95273,0.83829 -0.58602,0.0917 -1.13178,0.21823 -1.2128,0.28125 -0.081,0.063 -0.25242,0.608871 -0.3809,1.212991 -0.12847,0.60412 -0.34961,1.2897 -0.49141,1.52352 -0.27009,0.44535 -0.16201,0.40825 -2.77461,0.95241 l -0.46457,0.0968 -0.27764,1.28515 c -0.38574,1.7855 -0.47826,1.87303 -2.37273,2.24487 -0.65155,0.12789 -1.22933,0.30485 -1.28397,0.39324 -0.0546,0.0884 -0.19614,0.6434 -0.31446,1.23332 -0.11832,0.58993 -0.30276,1.20634 -0.40987,1.36981 -0.23885,0.36453 -1.03039,0.66114 -2.29524,0.86009 -0.92507,0.14551 -0.96029,0.16483 -1.04414,0.5728 -0.5577,2.7132 -0.62598,2.79755 -2.53772,3.13487 l -1.30979,0.23111 -0.28241,1.21364 c -0.29043,1.24805 -0.5538,1.80094 -0.96076,2.01688 -0.12819,0.068 -0.71255,0.19853 -1.29857,0.29004 -0.58602,0.0915 -1.15854,0.21353 -1.27226,0.27118 -0.1235,0.0626 -0.27943,0.47065 -0.38717,1.01321 -0.31672,1.59495 -0.69781,2.21549 -1.4481,2.35798 -0.19542,0.0371 -0.78894,0.13596 -1.31893,0.21966 -0.95664,0.15107 -0.96453,0.15571 -1.08943,0.63992 -0.60159,2.33212 -0.60351,2.33702 -1.03215,2.62583 -0.27301,0.18395 -0.84775,0.34508 -1.6316,0.45744 l -1.21013,0.17345 -0.1391,0.51657 c -0.15229,0.56556 -0.26495,0.38515 2.39792,3.83993 0.367,0.47614 1.14605,1.49502 1.73121,2.26417 0.58517,0.76915 1.47013,1.92723 1.96657,2.5735 0.49645,0.64627 1.2023,1.56864 1.56856,2.04972 1.93641,2.54343 2.21226,2.85565 2.39156,2.70685 0.097,-0.0805 0.76623,-0.24942 1.4871,-0.37529 z m 52.53957,-61.49923 c -0.33573,-0.382373 -0.41393,-0.588725 -0.4164,-1.098788 l -0.003,-0.628 1.96753,-1.909246 c 2.42635,-2.354465 2.85653,-2.685839 3.48586,-2.685185 0.70487,6.66e-4 1.30017,0.417679 1.48708,1.041545 0.22567,0.753205 -0.007,1.328498 -0.84737,2.09815 -0.38114,0.348936 -1.08302,0.998801 -1.55974,1.444143 -2.5162,2.350607 -2.32007,2.208168 -3.04043,2.208168 -0.5889,0 -0.70471,-0.05079 -1.07347,-0.470787 z M 68.508961,136.16259 c 0.33783,-0.30696 1.46043,-1.3749 2.49468,-2.37318 l 1.88044,-1.81507 -0.25295,-0.98977 c -0.31603,-1.23654 -0.33688,-3.32644 -0.0444,-4.45262 0.28187,-1.08544 0.99434,-2.5602 1.66772,-3.45208 0.31253,-0.41395 1.83719,-1.82705 3.47322,-3.2191 1.60389,-1.36469 2.91441,-2.51965 2.91228,-2.56656 -0.002,-0.0469 -0.34676,-0.34118 -0.76583,-0.65392 -0.41906,-0.31274 -1.1515,-0.89378 -1.62765,-1.29121 -0.47614,-0.39742 -0.94325,-0.7259 -1.03802,-0.72995 -0.14617,-0.006 -1.6918,1.18077 -1.89208,1.45307 -0.0366,0.0498 -0.42619,0.37996 -0.86571,0.7337 -0.43951,0.35374 -1.12875,0.92753 -1.53164,1.27509 -0.40289,0.34757 -2.09602,1.78288 -3.76251,3.18957 -1.6665,1.4067 -3.02999,2.63408 -3.02999,2.72751 0,0.0934 0.20287,1.60078 0.45082,3.34967 0.24796,1.74889 0.62033,4.57327 0.8275,6.27639 0.20716,1.70312 0.40214,3.09658 0.43328,3.09658 0.0311,0 0.33303,-0.25115 0.67086,-0.55812 z m 11.9798,-5.46856 c 1.66433,-1.33686 4.04701,-3.25849 5.29484,-4.27029 l 2.26879,-1.83963 0.5628,-5.6188 c 0.30954,-3.09034 0.65858,-6.45788 0.77565,-7.48341 0.58738,-5.14573 -0.12656,-9.67349 -2.2051,-13.984571 -1.11478,-2.31215 -1.71443,-3.2014 -5.26644,-7.80983 -1.09317,-1.41829 -2.43573,-3.1676 -2.98346,-3.88735 -0.54772,-0.71975 -1.13034,-1.39674 -1.29469,-1.50443 -0.75425,-0.4942 -1.86227,-0.34217 -2.52156,0.34597 -0.45814,0.4782 -0.60896,1.49642 -0.30938,2.08875 0.10524,0.20809 1.02634,1.42979 2.04688,2.71489 1.02053,1.2851 1.97539,2.49337 2.12189,2.68505 0.14651,0.19167 0.74584,0.96034 1.33186,1.70814 2.71011,3.45829 3.31897,4.4533 4.23917,6.927641 1.20831,3.2491 1.32751,5.58659 0.63437,12.44033 -0.23669,2.34033 -0.5083,4.44173 -0.60359,4.66978 -0.0953,0.22805 -0.52563,0.70872 -0.95632,1.06815 -0.4307,0.35944 -1.08833,0.9251 -1.4614,1.25702 -0.37307,0.33193 -1.17481,1.02304 -1.78163,1.5358 -2.73934,2.31475 -3.68564,3.24341 -4.09724,4.02086 -1.03907,1.96266 -1.08693,3.61775 -0.16101,5.56856 0.33974,0.71579 1.10712,1.79802 1.27494,1.79802 0.0355,0 1.42631,-1.0938 3.09063,-2.43065 z m 19.45193,-10.85469 c -0.12831,-0.33157 -0.50213,-1.32762 -0.80579,-2.14707 -0.11438,-0.30865 -0.12638,-0.30265 -0.53276,0.26637 -0.22866,0.32017 -0.66616,0.8818 -0.97221,1.24806 -0.88859,1.0634 -0.94345,0.9989 0.8497,0.9989 h 1.602799 z m -32.36418,-1.35697 1.50856,-1.25708 -0.44709,-0.37773 c -0.39264,-0.33172 -2.64373,-2.12575 -3.53554,-2.81768 -0.31995,-0.24824 -0.32064,-0.24806 -0.24769,0.0666 0.0858,0.37027 0.739,5.48364 0.739,5.78535 0,0.25506 -0.0179,0.26768 1.98276,-1.39945 z m 4.75569,-4.04216 c 0.37316,-0.30853 1.04652,-0.87228 1.49637,-1.25279 l 0.8179,-0.69182 -1.96252,-1.58271 c -1.07939,-0.87049 -2.37331,-1.90768 -2.87538,-2.30487 -0.50208,-0.39719 -2.12029,-1.69052 -3.59604,-2.87407 -1.47574,-1.18355 -2.68989,-2.14249 -2.6981,-2.13098 -0.008,0.0115 0.14214,1.2769 0.33413,2.81196 l 0.34907,2.79104 1.53047,1.24366 c 0.84177,0.68401 2.03992,1.64484 2.66256,2.13517 0.62265,0.49033 1.25196,0.99205 1.39846,1.11494 0.93341,0.78295 1.61637,1.29493 1.73142,1.29794 0.0733,0.002 0.4385,-0.24894 0.81166,-0.55747 z"
       id="path1065" />
  </g>
</svg>
