<?xml version="1.0" encoding="UTF-8" standalone="no"?>
<!-- Created with Inkscape (http://www.inkscape.org/) -->

<svg
   width="49.412899mm"
   height="56.005287mm"
   viewBox="0 0 49.412899 56.005287"
   version="1.1"
   id="svg1189"
   inkscape:version="1.1.2 (b8e25be8, 2022-02-05)"
   sodipodi:docname="gemstones.svg"
   xmlns:inkscape="http://www.inkscape.org/namespaces/inkscape"
   xmlns:sodipodi="http://sodipodi.sourceforge.net/DTD/sodipodi-0.dtd"
   xmlns="http://www.w3.org/2000/svg"
   xmlns:svg="http://www.w3.org/2000/svg">
  <sodipodi:namedview
     id="namedview1191"
     pagecolor="#ffffff"
     bordercolor="#666666"
     borderopacity="1.0"
     inkscape:pageshadow="2"
     inkscape:pageopacity="0.0"
     inkscape:pagecheckerboard="0"
     inkscape:document-units="mm"
     showgrid="false"
     fit-margin-top="0"
     fit-margin-left="0"
     fit-margin-right="0"
     fit-margin-bottom="0"
     inkscape:zoom="0.57549102"
     inkscape:cx="-205.0423"
     inkscape:cy="258.90934"
     inkscape:window-width="1644"
     inkscape:window-height="997"
     inkscape:window-x="36"
     inkscape:window-y="25"
     inkscape:window-maximized="1"
     inkscape:current-layer="layer1" />
  <defs
     id="defs1186" />
  <g
     inkscape:label="Layer 1"
     inkscape:groupmode="layer"
     id="layer1"
     transform="translate(-105.72687,-79.843173)">
    <path
       style="fill:#000000;stroke-width:0.0846667"
       d="m 122.26776,134.53637 c -0.64564,-0.72164 -1.20114,-1.31219 -1.23446,-1.31234 -0.0333,-1.7e-4 -0.44489,0.26876 -0.9146,0.59757 l -0.85403,0.59783 -1.83706,-0.0889 c -4.16006,-0.20133 -5.59347,-0.26191 -6.17603,-0.26103 -0.57701,8.9e-4 -0.65786,-0.0237 -1.35467,-0.41124 -1.24383,-0.69184 -1.30072,-0.72346 -2.37899,-1.32204 -0.57491,-0.31915 -1.06464,-0.63069 -1.08828,-0.6923 -0.0404,-0.1053 1.10538,-3.37216 1.40356,-4.00183 0.10847,-0.22905 0.2253,-0.31923 0.55577,-0.429 0.23013,-0.0764 0.48918,-0.23375 0.57565,-0.34957 0.17548,-0.23503 0.17178,-0.26125 -0.2313,-1.64075 -0.12246,-0.4191 -0.31718,-1.12395 -0.43272,-1.56633 -0.11553,-0.44239 -0.28747,-1.07104 -0.38209,-1.397 -0.69529,-2.39536 -2.19164,-7.82472 -2.19164,-7.95218 0,-0.0709 0.0942,-0.32993 0.20932,-0.57567 0.11513,-0.24575 0.66677,-1.47552 1.22588,-2.73282 0.5591,-1.2573 1.06498,-2.31618 1.12418,-2.35307 0.1339,-0.0834 5.1473,1.97015 5.23763,2.14545 0.0564,0.10938 0.22617,0.73099 0.50425,1.846 0.15329,0.61463 0.1869,0.33389 0.0915,-0.76476 -0.0498,-0.57362 -0.13107,-1.65255 -0.18063,-2.39762 -0.0496,-0.74506 -0.1256,-1.83091 -0.16897,-2.413 -0.0434,-0.58208 -0.18092,-2.51621 -0.30567,-4.29806 l -0.22681,-3.239736 0.27708,-1.8826 c 0.15239,-1.03543 0.36217,-2.454101 0.46616,-3.152601 l 0.18909,-1.27 0.75264,-1.373722 c 0.63788,-1.164261 0.79137,-1.386422 1.00664,-1.457009 0.19763,-0.0648 2.19213,-0.530861 3.90518,-0.912532 0.20358,-0.04536 0.34582,0.09494 1.52646,1.505508 0.41197,0.492201 1.58723,1.879347 2.6117,3.082546 1.02446,1.203198 2.23575,2.629288 2.69175,3.169088 0.456,0.5398 0.86173,0.992873 0.90163,1.00683 0.0399,0.01396 0.74961,-0.719469 1.57715,-1.629833 0.82755,-0.910365 1.52671,-1.653834 1.55371,-1.652154 0.027,0.0017 0.24382,0.182657 0.48184,0.402167 0.23801,0.219511 0.78664,0.722961 1.21917,1.118778 0.43254,0.395816 1.05391,0.975081 1.38083,1.287256 0.32693,0.312173 0.62089,0.551224 0.65325,0.531222 0.0324,-0.02 0.0812,-0.161116 0.10865,-0.313589 0.0274,-0.152472 0.18964,-0.886823 0.36056,-1.631889 0.17091,-0.745067 0.33945,-1.488017 0.37454,-1.651 0.15842,-0.735853 0.53173,-2.441059 0.59314,-2.709333 0.0373,-0.162984 0.11251,-0.524934 0.16713,-0.804334 0.10716,-0.54818 0.18802,-0.706922 0.56281,-1.104857 0.13374,-0.142005 0.947,-1.037355 1.80725,-1.989666 0.86024,-0.952312 1.58791,-1.750527 1.61704,-1.77381 0.0291,-0.02328 0.8832,-0.956733 1.89794,-2.074333 1.46453,-1.61299 1.94292,-2.085929 2.31996,-2.293531 2.22567,-1.225483 4.01118,-2.147533 4.07829,-2.106057 0.0445,0.02751 0.14934,0.190473 0.23294,0.362137 0.0836,0.171665 0.30699,0.597868 0.49641,0.947118 0.4046,0.74599 2.2341,4.176466 2.84466,5.333999 0.23335,0.442384 0.49137,0.918634 0.57339,1.058334 0.082,0.1397 0.35628,0.654257 0.60948,1.143461 0.2532,0.489204 0.62321,1.186175 0.82225,1.548825 0.24078,0.438717 0.38335,0.821052 0.42604,1.142539 0.0759,0.571596 0.37028,2.526227 0.59558,3.954508 0.29092,1.844308 0.29057,1.773102 0.0143,2.921746 -0.1399,0.581673 -0.37633,1.590987 -0.5254,2.242924 -0.27176,1.18847 -0.51396,2.23056 -0.88553,3.81 -0.10955,0.46566 -0.28263,1.22766 -0.38462,1.69333 -0.10199,0.46567 -0.2167,0.94192 -0.2549,1.05833 -0.0382,0.11642 -0.11368,0.42122 -0.16771,0.67734 -0.054,0.25611 -0.18716,0.84666 -0.29583,1.31233 -0.10867,0.46567 -0.29858,1.28482 -0.42203,1.82033 -0.34049,1.47703 -0.50808,2.19441 -0.88018,3.76767 -0.18723,0.79163 -0.47722,2.04893 -0.64443,2.794 -0.1672,0.74506 -0.39697,1.73566 -0.51059,2.20133 -0.11362,0.46567 -0.36125,1.52847 -0.55029,2.36178 -0.18904,0.83331 -0.38574,1.59531 -0.43711,1.69333 -0.0514,0.098 -0.3792,0.60888 -0.7285,1.13523 -0.48866,0.73635 -0.61216,0.98038 -0.53563,1.05834 0.0547,0.0557 0.84824,0.63472 1.7634,1.28665 l 1.66392,1.18534 0.19603,0.889 c 0.10781,0.48895 0.23354,1.06045 0.2794,1.27 0.0459,0.20955 0.14375,0.6477 0.21753,0.97366 0.25776,1.1389 0.25716,1.188 -0.0158,1.2893 -0.27177,0.10085 -1.81703,0.57883 -2.90909,0.89984 -0.72859,0.21416 -1.65655,0.28086 -4.48857,0.32261 l -0.89024,0.0131 -1.24973,-0.83263 -1.24972,-0.83263 -0.45037,0.18667 -0.45036,0.18666 -0.40119,-0.17197 c -0.47955,-0.20555 -0.47182,-0.20481 -0.47182,-0.0454 0,0.0696 0.36105,0.3649 0.80233,0.65617 0.44128,0.29126 0.80323,0.5708 0.80433,0.62119 0.002,0.0812 -0.44338,0.41182 -1.99805,1.48401 -0.42046,0.28998 -0.46624,0.3023 -0.89372,0.24065 -0.24781,-0.0357 -0.92681,-0.12794 -1.50889,-0.2049 -0.58208,-0.0769 -1.46452,-0.19727 -1.96097,-0.26737 l -0.90264,-0.12745 -1.27837,0.43493 c -0.70311,0.23921 -1.33128,0.42269 -1.39595,0.40772 -0.0647,-0.015 -0.44475,-0.31296 -0.84462,-0.66221 l -0.72703,-0.635 -0.91138,-0.0886 -0.91137,-0.0886 -1.92345,0.78713 c -1.05789,0.43293 -1.97744,0.78714 -2.04344,0.78714 -0.066,0 -0.64826,-0.59043 -1.2939,-1.31206 z m 2.3629,-0.15784 c 0.26883,-0.10951 0.51212,-0.22245 0.54065,-0.25098 0.0501,-0.0501 0.12174,-0.36525 0.58095,-2.55479 0.1172,-0.5588 0.234,-1.08267 0.25955,-1.16417 0.0256,-0.0815 0.0221,-0.14816 -0.008,-0.14816 -0.0297,0 -0.37283,0.25343 -0.76243,0.56319 -0.60418,0.48036 -0.71498,0.608 -0.75334,0.86784 -0.0247,0.16755 -0.10455,0.76183 -0.17737,1.32063 -0.0728,0.5588 -0.15194,1.13983 -0.17581,1.29117 -0.0239,0.15134 -0.0321,0.27499 -0.0184,0.27478 0.0137,-2.6e-4 0.24496,-0.09 0.51379,-0.19951 z m 7.84293,-0.14513 0.7456,-0.26036 0.23501,-0.86147 c 0.3728,-1.36658 0.69182,-2.58037 1.22782,-4.67148 0.27453,-1.07103 0.58104,-2.25213 0.68113,-2.62466 0.10008,-0.37254 0.23387,-0.90594 0.2973,-1.18534 0.0634,-0.2794 0.15238,-0.64135 0.19767,-0.80433 0.24637,-0.88656 0.74761,-2.92512 0.72539,-2.95022 -0.0202,-0.0228 -1.62749,1.16691 -1.92344,1.42376 -0.0358,0.0311 -0.16068,0.45394 -0.27747,0.93966 -0.11678,0.48572 -0.32337,1.32128 -0.45907,1.8568 -0.13571,0.53552 -0.29297,1.18322 -0.34947,1.43933 -0.0565,0.25612 -0.19565,0.80857 -0.30924,1.22767 -0.11359,0.4191 -0.52814,2.04827 -0.92123,3.62037 -0.39308,1.5721 -0.73648,2.91513 -0.7631,2.9845 -0.0684,0.17815 0.0491,0.16049 0.8931,-0.13423 z m -1.5294,-0.14181 c 0.0541,-0.17462 0.59311,-2.3368 1.19773,-4.80483 1.22345,-4.99402 1.26654,-5.16693 1.5745,-6.31769 l 0.21793,-0.81436 -0.22938,-0.64614 c -0.12616,-0.35538 -0.23671,-0.64614 -0.24566,-0.64614 -0.009,0 -0.1917,0.0598 -0.40611,0.13283 l -0.38984,0.13283 -0.16897,0.735 c -0.0929,0.40425 -0.2311,1.05885 -0.30704,1.45467 -0.0759,0.39582 -0.21118,1.02447 -0.30054,1.397 -0.0894,0.37253 -0.2171,0.94403 -0.28387,1.27 -0.0668,0.32597 -0.27387,1.29752 -0.46023,2.159 -0.18636,0.86148 -0.47708,2.21403 -0.64605,3.00567 -0.16897,0.79163 -0.35805,1.66793 -0.42018,1.94733 l -0.11296,0.508 0.38799,0.40217 c 0.2134,0.22119 0.41191,0.40216 0.44113,0.40216 0.0292,0 0.0974,-0.14287 0.15155,-0.3175 z m 6.44802,0.27952 c 0,-0.0705 -1.28771,-1.74001 -1.34261,-1.74068 -0.0299,-3.4e-4 -0.46453,0.14051 -0.9658,0.31307 -0.90562,0.31174 -0.91198,0.31583 -1.0004,0.64421 -0.0489,0.18176 -0.0759,0.34356 -0.0599,0.35954 0.016,0.016 0.37091,0.0736 0.78873,0.12812 0.41782,0.0545 1.12162,0.14746 1.564,0.20661 1.00355,0.1342 1.016,0.13529 1.016,0.0891 z m 1.37392,-0.23718 c 0.22206,-0.15134 0.40382,-0.29794 0.40391,-0.32578 3.4e-4,-0.10264 -2.23132,-1.51932 -2.29229,-1.45517 -0.0574,0.0603 1.34234,2.05611 1.44204,2.05611 0.0234,0 0.22427,-0.12382 0.44634,-0.27516 z m -15.30986,-0.0847 c 0.0205,-0.10477 0.0798,-0.5334 0.13183,-0.9525 0.052,-0.4191 0.13449,-0.99473 0.18332,-1.27918 0.0888,-0.51723 0.055,-0.78986 -0.34994,-2.82715 -0.10984,-0.55255 -0.49649,-2.65951 -0.60596,-3.302 -0.0516,-0.30269 -0.14572,-0.76539 -0.20921,-1.02822 -0.0635,-0.26284 -0.11544,-0.59622 -0.11544,-0.74084 0,-0.37677 -0.12542,-0.3242 -0.23116,0.0969 -0.0497,0.19791 -0.28739,0.91228 -0.52821,1.5875 l -0.43786,1.22767 0.0595,2.28071 c 0.0855,3.27891 -10e-4,2.9393 1.0531,4.11916 0.48895,0.5471 0.91685,0.99783 0.95089,1.0016 0.034,0.004 0.0787,-0.0789 0.0992,-0.18364 z m 3.6594,-0.79965 c 0.0523,-0.0841 0.23782,-0.91485 0.41222,-1.84618 0.1744,-0.93134 0.36438,-1.9114 0.42218,-2.17791 0.0578,-0.26652 0.0872,-0.50244 0.0654,-0.52427 -0.0283,-0.0283 -1.12193,0.7842 -1.12193,0.83357 0,0.003 -0.0573,0.27269 -0.1274,0.59864 -0.0701,0.32595 -0.24243,1.16413 -0.38301,1.86263 -0.14058,0.6985 -0.28969,1.37154 -0.33135,1.49564 -0.0417,0.1241 -0.0583,0.24307 -0.037,0.26437 0.0742,0.0742 1.00645,-0.35472 1.1009,-0.50649 z m 2.33899,-0.57618 c 0.0815,-0.37254 0.22312,-1.03929 0.31479,-1.48167 0.0917,-0.44238 0.22577,-1.07103 0.298,-1.397 0.0722,-0.32597 0.17254,-0.78317 0.22291,-1.016 0.0504,-0.23283 0.12108,-0.55668 0.15712,-0.71967 0.036,-0.16298 0.14746,-0.69638 0.24758,-1.18533 0.10013,-0.48895 0.24143,-1.13271 0.314,-1.43057 0.0726,-0.29787 0.1625,-0.71697 0.19985,-0.93134 0.0374,-0.21436 0.13332,-0.67551 0.21328,-1.02476 0.08,-0.34925 0.21407,-0.95885 0.29803,-1.35466 0.084,-0.39582 0.2553,-1.19592 0.38076,-1.778 0.12545,-0.58209 0.2603,-1.21074 0.29967,-1.397 0.0394,-0.18627 0.19244,-0.81492 0.34017,-1.397 0.14773,-0.58209 0.33569,-1.38219 0.41769,-1.778 0.082,-0.39582 0.17624,-0.78475 0.20942,-0.86429 0.0657,-0.15736 0.0791,-0.15258 -0.86958,-0.30906 -0.29343,-0.0484 -0.57918,-0.0675 -0.635,-0.0424 -0.24002,0.10791 -1.66781,1.81954 -1.66788,1.99944 -4e-5,0.10447 -0.0552,0.45664 -0.12255,0.78261 -0.0674,0.32597 -0.21805,1.14512 -0.33486,1.82033 -0.28183,1.62908 -0.85604,4.81769 -1.0673,5.92667 -0.21472,1.12716 -0.21336,1.17721 0.0535,1.97861 l 0.22209,0.66685 -0.14496,0.77277 c -0.0797,0.42502 -0.17771,0.90612 -0.21773,1.0691 -0.04,0.16299 -0.17172,0.84879 -0.29266,1.524 -0.12093,0.67522 -0.25624,1.38742 -0.30068,1.58266 -0.0444,0.19525 -0.0808,0.41202 -0.0808,0.48173 0,0.13765 0.35504,0.20338 1.016,0.18809 l 0.381,-0.009 z m -11.02779,0.60297 c 0,-0.0176 -0.16347,-0.33194 -0.36327,-0.6985 -0.19981,-0.36656 -0.45692,-0.84745 -0.57136,-1.06864 -0.11444,-0.22119 -0.22815,-0.40217 -0.25268,-0.40217 -0.0508,0 -1.12649,1.92693 -1.16839,2.0929 -0.0213,0.0843 0.23787,0.10844 1.16416,0.10844 0.65535,0 1.19154,-0.0144 1.19154,-0.032 z m -2.72711,-0.89511 c 1.05941,-1.87765 1.16651,-2.10975 1.03164,-2.23563 -0.0687,-0.0641 -0.47702,-0.26031 -0.90745,-0.43604 l -0.78259,-0.3195 -0.52974,0.23712 c -0.29136,0.13041 -0.91495,0.4176 -1.38576,0.6382 l -0.85601,0.40109 0.18055,0.53778 c 0.0993,0.29578 0.27339,0.85065 0.38687,1.23304 l 0.20632,0.69526 0.63847,0.0303 c 0.35117,0.0167 0.84723,0.0277 1.10237,0.0244 l 0.46388,-0.006 0.45145,-0.80014 z m 4.35081,0.27379 c 0.35751,-0.24904 0.66231,-0.48909 0.67733,-0.53344 0.015,-0.0443 0.002,-0.68128 -0.0278,-1.41542 -0.0303,-0.73414 -0.0589,-1.89013 -0.0635,-2.56887 -0.01,-1.45425 0.12874,-1.24056 -1.46894,-2.26336 -0.81197,-0.5198 -1.07912,-0.65466 -1.07797,-0.54415 8.4e-4,0.0808 0.0958,0.90892 0.21112,1.84025 0.11528,0.93134 0.28581,2.34104 0.37896,3.13267 0.3034,2.57865 0.39422,2.99896 0.61914,2.86544 0.0559,-0.0332 0.3941,-0.26407 0.75161,-0.51312 z m -7.78882,0.44025 c 0.0241,-0.0241 -0.0439,-0.31934 -0.15097,-0.65617 -0.61703,-1.94043 -0.52945,-1.76732 -1.34527,-2.65914 -1.64398,-1.79712 -1.61136,-1.76791 -1.87154,-1.6763 -0.19809,0.0697 -0.2751,0.19922 -0.50222,0.84437 -0.14755,0.4191 -0.39085,1.09928 -0.54069,1.5115 -0.14983,0.41222 -0.25994,0.76197 -0.24469,0.77723 0.0152,0.0152 0.52253,0.30139 1.12729,0.63587 0.60475,0.33448 1.3091,0.72652 1.56521,0.8712 0.28454,0.16074 0.64681,0.28392 0.93134,0.31668 0.64962,0.0748 0.98034,0.086 1.03154,0.0348 z m 35.34003,-0.23665 c 0.094,-0.10291 0.0214,-1.93555 -0.1131,-2.85231 -0.0568,-0.38744 -0.0978,-0.45223 -0.39139,-0.61852 l -0.32791,-0.18576 -1.67653,1.73469 c -1.72713,1.78702 -1.77478,1.859 -1.33817,2.02129 0.26867,0.0999 3.74715,0.01 3.8471,-0.0994 z m 2.23643,-0.50988 c 0.59515,-0.19834 1.05036,-0.39515 1.04011,-0.44969 -0.01,-0.0533 -0.1197,-0.56769 -0.24374,-1.143 -0.12403,-0.57531 -0.24383,-1.16984 -0.26621,-1.32118 -0.0269,-0.18214 -0.0876,-0.27514 -0.17959,-0.27509 -0.14889,8e-5 -1.95607,0.47226 -1.99422,0.52105 -0.0206,0.0263 0.0104,0.46986 0.16889,2.42104 0.0607,0.74686 0.003,0.73725 1.47476,0.24687 z m -14.24426,-0.31406 c 0.54666,-0.18829 1.03478,-0.38831 1.08471,-0.4445 0.0499,-0.0562 0.13771,-0.3498 0.19506,-0.65248 0.0989,-0.5218 0.26795,-1.29358 0.42665,-1.94733 0.28806,-1.1867 0.45273,-2.12709 0.38316,-2.18823 -0.1307,-0.11487 -1.66803,-0.44891 -1.73217,-0.37638 -0.0326,0.0368 -0.21966,0.69559 -0.41579,1.46394 -0.19612,0.76835 -0.52536,2.04885 -0.73164,2.84555 -0.20628,0.7967 -0.37506,1.49202 -0.37506,1.54516 0,0.14433 0.0842,0.12657 1.16508,-0.24573 z m 8.30353,-0.86415 c 2.48485,-2.53618 2.46596,-2.51349 2.46777,-2.96333 8.9e-4,-0.22119 -0.0135,-0.40217 -0.0319,-0.40217 -0.0184,0 -0.15387,0.18758 -0.30098,0.41683 -0.14711,0.22925 -0.31461,0.45594 -0.37222,0.50375 -0.0576,0.0478 -0.52641,0.16942 -1.04178,0.27023 l -0.93704,0.1833 -0.28417,0.93281 -0.28417,0.9328 -0.5109,0.2309 c -0.28099,0.12699 -0.58302,0.2562 -0.67118,0.28713 -0.0882,0.0309 -0.13695,0.0796 -0.10842,0.1081 0.0928,0.0928 0.85975,0.60481 0.91861,0.61327 0.0315,0.005 0.55185,-0.49661 1.15637,-1.11362 z m -5.49822,0.67734 c 0.0887,-0.19791 0.18159,-0.43604 0.20644,-0.52917 0.0808,-0.30283 0.45587,-1.57814 0.88556,-3.01096 0.53709,-1.79103 0.57934,-1.98041 0.4293,-1.9244 -0.0634,0.0237 -0.40917,0.12977 -0.76827,0.23575 l -0.65292,0.19269 -0.13873,0.64479 c -0.0763,0.35464 -0.20818,0.9496 -0.29307,1.32213 -0.15326,0.67252 -0.55692,2.45997 -0.63332,2.80443 -0.03,0.13541 0.0382,0.23339 0.27654,0.39708 0.17403,0.11952 0.36385,0.2196 0.42182,0.2224 0.058,0.003 0.17796,-0.15683 0.26665,-0.35474 z m 1.57284,-0.46567 c 0.0319,-0.0815 0.3623,-1.10067 0.73422,-2.26483 0.90442,-2.83104 1.34788,-4.21028 1.89823,-5.90387 0.25318,-0.77909 0.46032,-1.48028 0.46032,-1.55821 0,-0.114 -0.7828,-1.75502 -0.89991,-1.88653 -0.0865,-0.0971 -0.1493,0.10579 -0.91476,2.95627 -0.21883,0.81492 -0.45846,1.68937 -0.53251,1.94322 -0.13031,0.44671 -0.12868,0.47187 0.0505,0.7833 0.20982,0.36457 0.22843,0.24848 -0.35692,2.22648 -0.16537,0.5588 -0.40093,1.3589 -0.52346,1.778 -0.12254,0.4191 -0.29547,0.98564 -0.38429,1.25897 -0.17384,0.53494 -0.16018,0.6183 0.11981,0.73127 0.26038,0.10506 0.28422,0.10068 0.34872,-0.0641 z m 1.87317,-0.52994 0.68539,-0.31783 0.22962,-0.75086 c 0.1263,-0.41298 0.36628,-1.18902 0.5333,-1.72454 0.16702,-0.53551 0.39616,-1.27846 0.50921,-1.651 0.11305,-0.37253 0.23701,-0.77258 0.27546,-0.889 0.0385,-0.11641 0.13587,-0.44026 0.21648,-0.71966 0.0806,-0.2794 0.29221,-0.9652 0.47024,-1.524 0.46997,-1.47517 0.90847,-2.92512 0.97301,-3.21734 0.048,-0.2173 -0.0892,-0.11031 -0.94972,0.74061 l -1.0058,0.9946 -0.3588,1.1289 c -0.19733,0.62089 -0.35879,1.16836 -0.35879,1.2166 0,0.0482 -0.0743,0.27377 -0.16515,0.50117 -0.0908,0.2274 -0.43854,1.27071 -0.7727,2.31846 -0.33416,1.04775 -0.77419,2.41628 -0.97785,3.04117 -0.20366,0.6249 -0.3703,1.17039 -0.3703,1.21221 0,0.10286 0.25396,0.0173 1.0664,-0.35949 z m -23.78334,-0.0671 c -0.0261,-0.13048 -0.16358,-1.18776 -0.30552,-2.3495 -0.14193,-1.16174 -0.29679,-2.36725 -0.34413,-2.6789 -0.0473,-0.31166 -0.0861,-0.69752 -0.0861,-0.85747 0,-0.15995 -0.0554,-0.33682 -0.12317,-0.39304 -0.0677,-0.0562 -0.22174,-0.27044 -0.34223,-0.47604 -0.36999,-0.63133 -0.37357,-0.79944 0.0551,2.58952 0.1384,1.09432 0.27291,2.21827 0.29892,2.49767 0.0417,0.44751 0.28045,1.02513 0.76134,1.8415 0.084,0.14252 0.13029,0.0487 0.0858,-0.17374 z m 6.95421,-0.64462 c 0.26422,-0.20562 0.61245,-0.48611 0.77385,-0.62331 l 0.29346,-0.24946 -1.21512,-1.62297 c -0.66831,-0.89263 -1.23327,-1.60481 -1.25547,-1.58261 -0.0222,0.0222 0.0215,0.3377 0.097,0.70112 0.15224,0.73212 0.21041,1.04008 0.47669,2.52342 0.20538,1.14411 0.22564,1.22767 0.29773,1.22767 0.0283,0 0.2676,-0.16824 0.53182,-0.37386 z m -12.03564,-0.56394 c 0.50419,-0.2364 1.04011,-0.48819 1.19093,-0.55954 0.17815,-0.0843 0.25231,-0.16642 0.21167,-0.23444 -0.15795,-0.26437 -2.58621,-3.34822 -2.63643,-3.34822 -0.0312,0 -0.50547,0.47894 -1.05398,1.0643 -0.87562,0.93445 -0.98381,1.08166 -0.88674,1.2065 0.0608,0.0782 0.32341,0.3708 0.58357,0.6502 0.50701,0.54451 1.15618,1.2634 1.35419,1.49961 0.0668,0.0797 0.16618,0.1464 0.22079,0.14817 0.0546,0.002 0.51182,-0.19019 1.016,-0.42658 z m 3.55645,-0.57433 c -0.0266,-0.13317 -0.0718,-0.4475 -0.10037,-0.6985 -0.0991,-0.87101 0.006,-0.77117 -1.69751,-1.61077 -0.86225,-0.42495 -1.58269,-0.75766 -1.60098,-0.73937 -0.0183,0.0183 0.28817,0.45187 0.68103,0.96351 1.43152,1.86437 1.3525,1.78347 2.01131,2.05906 0.76088,0.31829 0.76499,0.31844 0.70652,0.0261 z m 32.17619,-0.20965 c 0.8456,-0.20693 0.98746,-0.28069 0.77185,-0.40135 -0.0771,-0.0431 -0.63621,-0.44033 -1.24251,-0.88265 -0.6063,-0.44232 -1.12395,-0.80422 -1.15032,-0.80422 -0.0264,0 -0.048,0.41523 -0.048,0.92273 v 0.92274 l 0.35983,0.21696 c 0.19791,0.11933 0.39794,0.21689 0.4445,0.21681 0.0466,-9e-5 0.43564,-0.0861 0.8646,-0.19102 z m -21.29753,-0.54195 c 0.41136,-0.31371 0.74772,-0.58994 0.74746,-0.61383 -2.5e-4,-0.0239 -0.2312,-0.76734 -0.5132,-1.65211 -0.282,-0.88477 -0.58449,-1.85632 -0.6722,-2.159 -0.28749,-0.99209 -0.42159,-1.29504 -0.78439,-1.77199 -0.95681,-1.2579 -1.6085,-2.08186 -1.65802,-2.09631 -0.0301,-0.009 -0.41287,0.502 -0.85062,1.13507 l -0.7959,1.15105 0.18558,1.01462 c 0.10207,0.55804 0.23162,1.09911 0.2879,1.20236 0.12324,0.22614 3.21998,4.352 3.27023,4.35702 0.0194,0.002 0.3718,-0.25316 0.78316,-0.56688 z m 17.2416,-0.29062 c 0.21853,-0.0545 0.45431,-0.17828 0.52396,-0.27516 0.30939,-0.4304 1.88224,-2.8797 1.92828,-3.0028 0.0405,-0.10822 0.0258,-0.11721 -0.0706,-0.0432 -0.0669,0.0514 -0.38838,0.2371 -0.71435,0.41258 -1.30619,0.70315 -1.66614,0.91736 -1.69366,1.00789 -0.0158,0.0521 -0.14615,0.47566 -0.2896,0.94133 -0.36257,1.17696 -0.37735,1.13209 0.31593,0.95932 z m -28.48163,-1.74249 c -0.0257,-0.22119 -0.0997,-0.74506 -0.16455,-1.16416 -0.0648,-0.4191 -0.14298,-1.00965 -0.17372,-1.31234 -0.0307,-0.30268 -0.18676,-1.04563 -0.34671,-1.651 -0.59237,-2.24192 -0.72009,-2.72644 -0.91506,-3.47133 -0.10969,-0.4191 -0.33478,-1.27635 -0.5002,-1.905 -0.16542,-0.62865 -0.50836,-1.93699 -0.7621,-2.90743 -0.25374,-0.97044 -0.47725,-1.78034 -0.4967,-1.79979 -0.0195,-0.0194 -0.20335,0.16084 -0.40868,0.40063 -0.20532,0.2398 -0.49119,0.56953 -0.63525,0.73275 -0.16686,0.18904 -0.36458,0.60206 -0.54473,1.1379 l -0.2828,0.84114 0.3653,1.28424 c 0.20092,0.70632 0.41852,1.45057 0.48356,1.65388 0.065,0.20331 0.20973,0.69861 0.32152,1.10067 0.1118,0.40206 0.3044,1.07391 0.42801,1.49301 0.12361,0.4191 0.25648,0.8763 0.29527,1.016 0.0388,0.1397 0.30966,1.06701 0.60195,2.0607 l 0.53143,1.80669 1.06321,0.53839 c 0.58477,0.29612 1.09106,0.54038 1.12509,0.54281 0.034,0.002 0.0409,-0.17656 0.0152,-0.39776 z m -5.43674,-1.22564 c -0.0572,-0.19902 -0.17741,-0.62856 -0.26701,-0.95452 -0.57538,-2.09329 -1.38147,-4.96567 -1.52068,-5.41867 -0.0429,-0.1397 -0.23655,-0.8255 -0.43028,-1.524 l -0.35222,-1.27 -0.64323,-0.61294 c -0.35377,-0.33712 -0.65715,-0.59901 -0.67418,-0.58198 -0.017,0.017 0.10344,0.5024 0.26771,1.07861 0.68094,2.38852 2.35665,8.39757 2.59101,9.29125 0.13878,0.52926 0.27575,1.00017 0.30437,1.04648 0.0286,0.0463 0.22677,-0.0905 0.44032,-0.30409 l 0.38829,-0.38829 z m 10.19002,0.8262 c 0.17825,-0.4266 0.15313,-0.66367 -0.12811,-1.20941 -0.13794,-0.26765 -0.44792,-0.93337 -0.68885,-1.47936 -0.24092,-0.54599 -0.47114,-0.97226 -0.51159,-0.94727 -0.0852,0.0527 -1.3194,1.90758 -1.38775,2.0857 -0.0309,0.0806 0.23735,0.30707 0.82508,0.69658 0.479,0.31745 1.05958,0.70547 1.29019,0.86228 0.23061,0.1568 0.43258,0.28509 0.44882,0.28509 0.0162,0 0.0847,-0.13213 0.15221,-0.29361 z m 16.85046,-2.98816 c -0.022,-0.022 -0.28784,0.14204 -0.59079,0.36448 -0.41108,0.30184 -0.56456,0.47082 -0.60495,0.66604 -0.0298,0.14387 -0.14928,0.59778 -0.26559,1.00868 -0.11632,0.4109 -0.19789,0.76069 -0.18128,0.7773 0.0166,0.0166 0.39162,0.12097 0.83335,0.2319 l 0.80315,0.2017 0.023,-1.60507 c 0.0127,-0.88279 0.005,-1.62305 -0.0169,-1.64503 z m 1.51234,3.02936 c 0.32261,-0.0923 0.61604,-0.19721 0.65205,-0.23322 0.036,-0.036 -0.21565,-0.50345 -0.55925,-1.03876 -0.974,-1.51745 -0.88346,-1.52396 -0.88782,0.0639 -0.003,1.04809 0.0215,1.37583 0.10234,1.37583 0.0584,0 0.37006,-0.0755 0.69268,-0.16774 z m -26.62643,-2.29653 c -0.76773,-2.62081 -1.02244,-3.49978 -1.08921,-3.75873 -0.036,-0.1397 -0.14649,-0.5207 -0.24548,-0.84666 -0.099,-0.32597 -0.31528,-1.06892 -0.48064,-1.651 -0.4189,-1.47458 -0.48938,-1.69812 -0.54481,-1.72794 -0.0569,-0.0306 -1.28549,0.26965 -1.34443,0.32859 -0.0394,0.0394 0.092,0.56896 0.41023,1.65335 0.0888,0.30268 0.30023,1.04563 0.46976,1.651 0.16954,0.60536 0.39632,1.40546 0.50397,1.778 0.10765,0.37253 0.31384,1.09643 0.45821,1.60866 0.41893,1.48644 0.60508,2.07434 0.6568,2.07434 0.0265,0 0.0931,-0.0614 0.14797,-0.13639 0.0892,-0.12193 0.17029,-0.0996 0.76562,0.21033 0.36624,0.19069 0.67883,0.33377 0.69466,0.31794 0.0158,-0.0158 -0.16537,-0.69149 -0.40265,-1.50149 z m 32.85498,1.14274 c 0.66133,-0.37983 1.20841,-0.67805 1.83512,-1.00035 0.3341,-0.17181 0.64397,-0.35785 0.68861,-0.41342 0.0446,-0.0556 0.12531,-0.31058 0.17929,-0.5667 0.10277,-0.48765 0.34182,-1.52496 0.80973,-3.51366 0.1534,-0.65194 0.38045,-1.62349 0.50456,-2.159 0.12411,-0.53552 0.3146,-1.35467 0.42331,-1.82034 0.10871,-0.46566 0.31935,-1.38006 0.46809,-2.032 0.14874,-0.65193 0.36467,-1.58538 0.47986,-2.07433 0.11518,-0.48895 0.2625,-1.1176 0.32738,-1.397 0.0649,-0.2794 0.19896,-0.84195 0.29797,-1.25011 0.099,-0.40816 0.16675,-0.78187 0.15056,-0.83045 -0.0162,-0.0486 -0.80607,1.16167 -1.75527,2.68945 -1.64348,2.64524 -2.77353,4.45837 -3.18243,5.10611 -0.10288,0.16298 -0.26556,0.42968 -0.36149,0.59267 l -0.17442,0.29633 0.3772,1.10067 0.37721,1.10066 -0.26453,0.84667 c -0.2679,0.85744 -0.40515,1.30237 -0.96636,3.13267 -0.17134,0.5588 -0.40397,1.31363 -0.51696,1.67739 -0.11299,0.36377 -0.20543,0.67809 -0.20543,0.6985 0,0.0782 0.14034,0.0274 0.508,-0.18376 z m -17.0293,-2.55197 c 0.47895,-2.68187 0.67405,-3.75835 0.89956,-4.9635 0.0773,-0.41324 0.10912,-0.78278 0.0707,-0.8212 -0.0385,-0.0384 -0.55772,-0.33635 -1.15391,-0.66206 -0.6764,-0.36953 -1.09557,-0.5542 -1.11478,-0.49113 -0.0169,0.0556 -0.0537,1.58813 -0.0817,3.40567 l -0.0509,3.3046 0.20403,0.59006 c 0.11221,0.32454 0.31291,0.94158 0.44598,1.37122 0.13308,0.42964 0.26202,0.78206 0.28655,0.78317 0.0245,0.001 0.24703,-1.13147 0.49444,-2.51683 z m 12.02547,0.61384 c 0.19192,-0.6985 0.4473,-1.63195 0.56751,-2.07434 0.12021,-0.44238 0.28908,-1.04755 0.37528,-1.34483 l 0.15671,-0.5405 -0.56485,-0.62367 c -0.31067,-0.34301 -0.58918,-0.62366 -0.61891,-0.62366 -0.0468,0 -0.37878,1.21136 -0.58014,2.11666 -0.10721,0.48203 -0.59635,2.39131 -0.6848,2.67302 -0.12441,0.39622 -0.11514,0.42463 0.39273,1.20376 0.34387,0.52755 0.49268,0.69416 0.54095,0.60565 0.0366,-0.0671 0.2236,-0.69359 0.41552,-1.39209 z m -18.87893,0.92997 c 0.0961,-0.25686 0.25749,-0.72317 0.35863,-1.03624 0.10114,-0.31307 0.34314,-0.79824 0.53778,-1.07814 0.19463,-0.27991 0.67013,-0.96613 1.05665,-1.52493 l 0.70278,-1.016 -0.0574,-1.651 c -0.0663,-1.90499 -0.18513,-5.85649 -0.26994,-8.97466 l -0.0587,-2.159 -0.94966,-1.18533 c -1.65866,-2.07029 -3.19397,-3.97688 -3.26264,-4.05164 -0.0365,-0.0398 -0.43576,0.0118 -0.88717,0.11467 l -0.82075,0.18698 0.0499,0.35099 c 0.0274,0.19305 0.10797,1.05585 0.17901,1.91733 0.071,0.86148 0.16672,1.96638 0.21264,2.45533 0.0965,1.02801 0.19646,2.15174 0.37642,4.23334 0.0704,0.81491 0.16689,1.90076 0.2143,2.413 0.0902,0.97474 0.1889,2.10309 0.33319,3.80999 0.0472,0.5588 0.14407,1.6222 0.21518,2.3631 0.0711,0.74091 0.12931,1.49046 0.12931,1.66567 0,0.21629 0.068,0.39934 0.21166,0.57013 0.11642,0.13835 0.21167,0.27197 0.21167,0.29692 0,0.0477 0.30308,0.72327 0.85549,1.90699 0.18141,0.38874 0.32984,0.74117 0.32984,0.78317 0,0.042 0.0354,0.0764 0.0786,0.0764 0.0432,0 0.15722,-0.21016 0.25332,-0.46703 z m -3.67005,-0.37964 c 0.17476,-0.25612 0.52294,-0.76158 0.77373,-1.12326 0.25078,-0.36168 0.43733,-0.68776 0.41455,-0.72462 -0.0604,-0.0978 -1.70154,-1.11545 -1.79881,-1.11545 -0.0704,0 -0.81869,1.46416 -0.89382,1.74895 -0.0253,0.0959 1.10612,1.76219 1.1595,1.7077 0.0149,-0.0152 0.17009,-0.2372 0.34485,-0.49332 z m 19.70092,-1.32666 c 0.26828,-0.20167 0.52411,-0.36667 0.56852,-0.36667 0.0444,0 0.12681,0.0857 0.18311,0.1905 0.10197,0.18974 0.10268,0.18948 0.178,-0.0635 0.0416,-0.1397 0.16377,-0.61595 0.27149,-1.05834 0.30205,-1.2404 0.89719,-3.56774 0.98801,-3.86373 0.0553,-0.18032 0.23331,-0.3703 0.55522,-0.59266 0.26058,-0.18 0.55656,-0.38442 0.65773,-0.45427 0.7196,-0.49681 0.70464,-0.46978 0.93713,-1.69377 0.11936,-0.62841 0.2534,-1.31402 0.29787,-1.52356 0.0445,-0.20955 0.17885,-0.9144 0.29863,-1.56634 0.11978,-0.65193 0.25351,-1.35678 0.29719,-1.56633 0.0437,-0.20955 0.17771,-0.9144 0.29787,-1.56633 0.25463,-1.38159 0.60091,-3.22194 0.70891,-3.76767 0.0415,-0.20955 0.11907,-0.62865 0.17244,-0.93133 0.0534,-0.30269 0.11393,-0.62654 0.13457,-0.71967 0.0709,-0.32014 0.65067,-3.386852 0.68864,-3.642861 0.0367,-0.247688 0.0202,-0.262259 -0.49823,-0.438917 -0.29492,-0.100497 -1.01246,-0.359319 -1.59455,-0.575159 -0.58208,-0.21584 -1.38218,-0.508223 -1.778,-0.64974 -0.39581,-0.141517 -0.78403,-0.291386 -0.86269,-0.333043 -0.18362,-0.09723 -0.22538,-0.02491 -0.33471,0.57966 -0.14192,0.784744 -0.20532,1.102023 -0.45278,2.26606 -0.1287,0.60537 -0.26285,1.25307 -0.29811,1.43933 -0.0353,0.18627 -0.16349,0.81492 -0.28495,1.397 -0.42549,2.03908 -0.82016,3.94411 -0.98229,4.74134 -0.21475,1.05593 -0.72576,3.51677 -0.98459,4.74133 -0.11319,0.53552 -0.24314,1.16416 -0.28879,1.397 -0.0519,0.26485 -0.0586,1.29837 -0.0178,2.7607 l 0.0652,2.33738 0.48506,0.64445 c 0.26677,0.35445 0.48469,0.71233 0.48426,0.79529 -4.2e-4,0.083 -0.13379,0.66258 -0.29633,1.28804 -0.16255,0.62545 -0.29555,1.17062 -0.29555,1.21149 0,0.0945 0.0993,0.0355 0.69945,-0.41568 z m -2.01861,-1.29801 c 0.58174,-0.44238 1.05939,-0.83555 1.06144,-0.87371 0.004,-0.0671 -1.08341,-1.49695 -1.13802,-1.49695 -0.0149,0 -0.23077,0.2882 -0.4798,0.64045 -0.24904,0.35226 -0.58162,0.81373 -0.73908,1.0255 l -0.2863,0.38504 0.19545,0.58523 c 0.1075,0.32188 0.22541,0.57478 0.26202,0.562 0.0366,-0.0128 0.54255,-0.38517 1.12429,-0.82756 z m -9.23538,-1.70704 c 0.0307,-1.12514 0.0559,-2.57743 0.0559,-3.22732 v -1.1816 l 0.34889,-0.77319 0.3489,-0.77318 -0.0926,-1.651 c -0.0509,-0.90805 -0.11452,-2.2987 -0.1413,-3.09033 -0.0268,-0.79163 -0.0701,-1.54947 -0.0963,-1.68408 l -0.0476,-0.24475 -1.05439,0.0455 c -0.57991,0.025 -1.07641,0.0676 -1.10333,0.0945 -0.0452,0.0453 0.0322,2.78074 0.23271,8.22347 0.0446,1.21074 0.0828,2.73474 0.0847,3.38667 l 0.004,1.18533 0.38286,0.508 c 0.21058,0.2794 0.50201,0.66993 0.64763,0.86784 0.14562,0.19791 0.28944,0.35983 0.3196,0.35983 0.0302,0 0.08,-0.92057 0.1107,-2.04571 z m 18.47765,0.76036 c 0.76674,-0.75405 1.22089,-1.26387 1.22089,-1.37054 0,-0.0934 -0.2667,-0.96365 -0.59266,-1.93383 -0.32597,-0.97018 -0.59267,-1.82028 -0.59267,-1.88912 0,-0.24567 -0.16043,-0.11825 -0.40207,0.31934 -0.13499,0.24448 -0.35422,0.635 -0.48717,0.86783 -0.13295,0.23284 -0.55775,0.9889 -0.944,1.68015 l -0.70228,1.25681 0.56926,1.13371 c 0.31309,0.62354 0.60088,1.1343 0.63954,1.13502 0.0386,7.6e-4 0.61967,-0.53899 1.29116,-1.19937 z m -28.28241,0.43247 c 0.1833,-0.37596 0.37361,-0.71703 0.42292,-0.75795 0.0558,-0.0463 0.41474,0.1316 0.95176,0.47188 0.47417,0.30046 0.90014,0.54628 0.94659,0.54628 0.0465,0 0.0669,-0.10477 0.0454,-0.23283 -0.0215,-0.12806 -0.0967,-0.97578 -0.16711,-1.88383 -0.0704,-0.90805 -0.16585,-2.01295 -0.21201,-2.45534 -0.0757,-0.72575 -0.16671,-1.76869 -0.42465,-4.86833 -0.0465,-0.5588 -0.12192,-1.37795 -0.16761,-1.82033 -0.0457,-0.44238 -0.12299,-1.28058 -0.17179,-1.86267 -0.0488,-0.58208 -0.16484,-1.89653 -0.25784,-2.921 -0.093,-1.02446 -0.19021,-2.16746 -0.21601,-2.54 -0.0316,-0.45665 -0.12743,-0.88422 -0.294,-1.31233 -0.13589,-0.34925 -0.57092,-1.462398 -0.96673,-2.473661 -0.39581,-1.011264 -0.71965,-1.854249 -0.71965,-1.873299 0,-0.114346 -0.43874,-0.999854 -0.47663,-0.96197 -0.0254,0.02536 -0.0783,0.287276 -0.11772,0.582025 -0.0394,0.294747 -0.12866,0.935955 -0.19839,1.424905 -0.0697,0.48895 -0.17143,1.204473 -0.226,1.590051 -0.0754,0.533053 -0.0759,1.040284 -0.002,2.116669 0.0535,0.77859 0.15371,2.25381 0.22259,3.27828 0.14427,2.1458 0.26386,3.86854 0.37321,5.37633 0.0422,0.58209 0.11553,1.62984 0.16291,2.32834 0.42888,6.32236 0.44886,6.52268 0.77882,7.80993 0.15807,0.6167 0.30836,1.12152 0.33396,1.12183 0.0256,3.4e-4 0.19652,-0.30703 0.37981,-0.68298 z m 16.60357,-0.0146 c 0.21579,-0.0983 1.32909,-1.50269 1.2522,-1.57958 -0.0192,-0.0191 -0.33495,0.0939 -0.70175,0.25111 l -0.66693,0.28594 -0.10312,0.42586 c -0.0567,0.23421 -0.12149,0.49252 -0.14393,0.57401 -0.0483,0.17522 0.0479,0.18649 0.36353,0.0427 z m 1.51207,-2.47823 c 0.91995,-0.36679 0.85514,-0.17441 0.78891,-2.34195 -0.0318,-1.03949 -0.0987,-3.35682 -0.14865,-5.14964 -0.05,-1.79282 -0.12934,-4.23122 -0.17632,-5.41867 -0.047,-1.18745 -0.0849,-2.53047 -0.0842,-2.9845 6.7e-4,-0.45402 -0.0306,-0.8255 -0.0695,-0.8255 -0.0389,0 -0.23895,0.12626 -0.4445,0.28057 -0.20555,0.15432 -0.52104,0.38823 -0.70107,0.51982 l -0.32735,0.23924 0.0546,1.57569 c 0.03,0.86662 0.0919,2.12813 0.13752,2.80335 0.0832,1.23217 0.28337,4.89172 0.38435,7.02739 0.0512,1.08353 0.0406,1.19818 -0.2041,2.20134 -0.14198,0.58205 -0.31719,1.32497 -0.38935,1.65093 -0.0722,0.32597 -0.15455,0.67656 -0.18308,0.77909 l -0.0519,0.18642 0.41098,-0.15364 c 0.22604,-0.0845 0.67767,-0.25997 1.00364,-0.38994 z m 8.12566,-1.23389 c 0.49737,-0.88896 0.8876,-1.633 0.86718,-1.65341 -0.0318,-0.0318 -2.66365,1.79705 -2.89359,2.0107 -0.0503,0.0468 0.14273,0.30153 0.50572,0.66733 0.32294,0.32542 0.59373,0.59168 0.60177,0.59168 0.008,0 0.42156,-0.72734 0.91892,-1.6163 z m -12.22198,-1.59177 0.72969,-0.8366 -0.0415,-1.59716 c -0.0228,-0.87845 -0.0654,-1.73515 -0.0947,-1.90379 -0.0462,-0.26658 -0.0753,-0.29732 -0.2225,-0.2354 -0.0931,0.0392 -0.60748,0.25336 -1.143,0.47596 l -0.97366,0.40473 -0.77432,1.56633 c -0.5814,1.17608 -0.75016,1.59043 -0.67734,1.66303 0.0533,0.0532 0.36369,0.23987 0.68966,0.41485 1.16787,0.62691 1.35578,0.73279 1.4351,0.80859 0.18248,0.17439 0.37813,0.0357 1.07258,-0.76054 z m 16.46577,-1.27927 c 0.59178,-0.95461 1.41974,-2.28811 1.83991,-2.96333 0.42017,-0.67521 1.10533,-1.78011 1.52258,-2.45533 0.41724,-0.67522 0.88118,-1.41817 1.03096,-1.651 0.8059,-1.25273 0.84046,-1.32969 0.83629,-1.86267 -0.002,-0.2871 -0.13348,-1.02342 -0.30182,-1.69333 -0.16382,-0.65193 -0.55663,-2.25213 -0.87291,-3.556 -0.31628,-1.303867 -0.61692,-2.416546 -0.66809,-2.472621 -0.0778,-0.08522 -2.48174,-1.549046 -2.54392,-1.549046 -0.0227,0 -0.88787,1.197309 -1.76129,2.43746 -0.31432,0.446308 -0.5715,0.871034 -0.5715,0.943835 0,0.0728 -0.11569,0.741968 -0.2571,1.487032 -0.1414,0.74507 -0.39099,2.05952 -0.55463,2.92101 -0.35858,1.88776 -0.67782,3.58583 -0.80383,4.27566 -0.051,0.2794 -0.147,0.7747 -0.21323,1.10067 -0.11755,0.57845 -0.24395,1.24501 -0.84167,4.43841 -0.16057,0.85786 -0.27653,1.57515 -0.25771,1.59398 0.0188,0.0188 0.53361,-0.31542 1.14395,-0.74276 0.61034,-0.42735 1.15946,-0.75791 1.22026,-0.73458 0.0608,0.0233 0.27694,0.54229 0.48029,1.15324 0.20335,0.61094 0.39847,1.10051 0.43361,1.08792 0.0351,-0.0126 0.54807,-0.80393 1.13985,-1.75855 z m -36.81193,1.22971 c 0.0251,-0.0251 0.15374,-0.37107 0.28581,-0.76875 l 0.24012,-0.72307 -1.01548,-1.54111 c -0.55852,-0.84761 -1.02996,-1.57921 -1.04764,-1.62577 -0.0177,-0.0466 -0.0496,-0.0656 -0.071,-0.0423 -0.0775,0.0844 -1.59545,3.51609 -1.59423,3.60418 7e-4,0.0498 0.33589,0.41796 0.74488,0.81818 l 0.74362,0.72767 0.83413,-0.20165 c 0.45877,-0.11091 0.85469,-0.22222 0.87982,-0.24734 z m 22.90386,-0.93541 c -0.0326,-0.18444 -1.14535,-2.42225 -1.18481,-2.38278 -0.0234,0.0234 -0.0152,0.56064 0.0184,1.1938 0.0572,1.07891 0.0722,1.15362 0.24001,1.18972 0.60313,0.12981 0.94943,0.12953 0.92639,-7.6e-4 z m -21.36061,-1.86206 c 0.27647,-0.3252 0.50317,-0.62943 0.50378,-0.67608 5.9e-4,-0.0466 -0.38941,-0.23481 -0.86672,-0.41814 -0.47731,-0.18332 -1.07145,-0.42413 -1.32031,-0.53514 -0.24887,-0.11101 -0.46604,-0.18828 -0.48261,-0.17171 -0.0541,0.0541 1.5181,2.44069 1.59166,2.41617 0.0393,-0.0131 0.29773,-0.28991 0.5742,-0.6151 z m 21.55425,0.23424 c -0.0242,-0.0815 -0.0843,-1.00542 -0.13337,-2.05317 -0.15522,-3.31089 -0.25798,-5.24788 -0.35611,-6.71276 l -0.0952,-1.42109 -0.67176,-0.46274 c -0.36946,-0.25451 -0.71634,-0.46176 -0.77084,-0.46057 -0.0545,0.001 -0.41383,0.29912 -0.79852,0.66205 -0.62584,0.59042 -0.695,0.68598 -0.65718,0.90799 0.0233,0.13646 0.0824,0.95297 0.13143,1.81445 0.23747,4.17234 0.31502,5.24934 0.37797,5.24934 0.0138,0 0.29375,-0.1143 0.62205,-0.254 0.32829,-0.1397 0.63013,-0.254 0.67077,-0.254 0.0406,0 0.4111,0.70485 0.82326,1.56633 0.41216,0.86148 0.78362,1.56633 0.82546,1.56633 0.0419,0 0.0563,-0.0667 0.032,-0.14816 z m -5.04736,-1.5447 c 0,-0.0285 0.30982,-0.1785 0.68849,-0.33333 l 0.68848,-0.28149 -0.0579,-0.60299 c -0.0776,-0.80774 -0.19386,-2.59721 -0.30601,-4.70933 -0.13145,-2.47537 -0.0385,-2.20961 -0.93144,-2.664 l -0.75893,-0.3862 0.001,0.36093 c 6.7e-4,0.19852 0.0383,1.10389 0.0836,2.01194 0.0453,0.90805 0.12102,2.6035 0.16816,3.76767 0.0471,1.16416 0.11061,2.36051 0.14104,2.65856 0.0491,0.48127 0.0681,0.52445 0.16934,0.38598 0.0627,-0.0858 0.114,-0.17923 0.114,-0.20774 z m 8.25792,-0.97414 c 0.27216,-1.33612 1.14939,-5.59646 1.23778,-6.01133 0.0496,-0.23283 0.1197,-0.57573 0.15578,-0.762 0.0361,-0.18627 0.16522,-0.81492 0.28698,-1.397 0.36573,-1.748375 0.80886,-3.892808 0.95811,-4.636564 0.13895,-0.692457 0.1381,-0.711378 -0.0833,-1.862666 -0.12304,-0.639707 -0.26721,-1.396356 -0.32036,-1.681442 l -0.0967,-0.518339 -0.79752,-0.645828 c -0.43864,-0.355205 -0.83086,-0.645828 -0.87162,-0.645828 -0.0408,0 -0.13738,0.295275 -0.21474,0.656167 -0.0774,0.360892 -0.21563,0.980017 -0.30727,1.375833 -0.0916,0.395817 -0.40648,1.81368 -0.69964,3.150808 l -0.53301,2.431142 0.35902,0.352349 0.35901,0.35235 0.0491,0.772508 c 0.027,0.42488 0.0876,2.29651 0.1347,4.15918 0.0887,3.50676 0.17889,5.81956 0.22129,5.67266 0.0134,-0.0466 0.0865,-0.38946 0.1624,-0.762 z m -9.80928,-4.8895 c -0.0291,-0.47731 -0.0984,-1.86824 -0.15395,-3.09097 l -0.101,-2.22314 0.19236,-0.204759 c 0.12129,-0.12911 0.1673,-0.246175 0.12454,-0.31686 -0.0614,-0.101567 -0.4716,-0.588644 -3.08259,-3.660784 -0.44238,-0.520517 -1.52544,-1.796158 -2.4068,-2.834758 -0.88136,-1.0386 -1.64455,-1.904509 -1.69597,-1.924242 -0.0514,-0.01973 -0.45426,0.05558 -0.89519,0.167369 -0.44094,0.111785 -1.08263,0.255149 -1.42599,0.318585 -0.35209,0.06505 -0.64325,0.164785 -0.6678,0.228747 -0.0239,0.06237 0.1,0.481861 0.2754,0.932193 0.1754,0.450334 0.4055,1.047389 0.51132,1.326789 0.17803,0.470081 1.34077,3.514587 1.60059,4.191 0.0626,0.162983 0.21128,0.543983 0.33039,0.846666 0.11911,0.302684 0.33395,0.855134 0.47741,1.227667 0.22343,0.580187 0.4253,0.877697 1.40741,2.074337 0.63061,0.76835 1.58411,1.93992 2.11889,2.6035 l 0.97232,1.2065 h 1.2358 1.2358 z m 26.12469,-2.24263 c 0.049,-0.29002 0.88264,-3.934376 0.9928,-4.3402 0.26055,-0.959799 0.27217,-1.152059 0.12876,-2.129029 -0.0776,-0.528717 -0.15686,-0.977376 -0.1761,-0.997019 -0.0495,-0.0505 -2.50107,1.624049 -2.5465,1.739371 -0.0206,0.05224 0.15273,0.871395 0.38513,1.820333 0.2324,0.948939 0.54155,2.220644 0.687,2.826014 0.33669,1.40131 0.33863,1.40758 0.42059,1.35693 0.0378,-0.0234 0.0866,-0.14777 0.10832,-0.2764 z m -22.64818,-1.44405 0.69749,-0.65248 -0.12266,-0.931337 c -0.0675,-0.512233 -0.1644,-1.350433 -0.21541,-1.862667 -0.051,-0.512233 -0.11919,-0.957447 -0.1515,-0.989363 -0.0323,-0.03192 -0.24923,0.163002 -0.48207,0.433153 -0.23283,0.27015 -0.87288,0.989451 -1.42233,1.598446 l -0.99899,1.107264 0.0253,0.533474 0.0253,0.53348 0.84666,0.44237 c 0.46567,0.24331 0.90382,0.44187 0.97367,0.44126 0.0699,-5.9e-4 0.44087,-0.29473 0.82448,-0.6536 z m 3.66342,-0.27647 c 0.41194,-0.28214 0.79149,-0.56421 0.84345,-0.62682 0.0739,-0.089 -0.012,-0.21241 -0.39466,-0.566515 -0.86878,-0.804033 -1.67471,-1.552251 -1.71875,-1.595679 -0.70797,-0.698054 -1.36459,-1.288907 -1.39669,-1.256802 -0.0229,0.02289 0.0308,0.629361 0.11932,1.347712 0.0885,0.71835 0.18562,1.520898 0.21577,1.78344 l 0.0548,0.477354 0.69359,0.46964 c 0.38147,0.2583 0.72522,0.47212 0.76388,0.47515 0.0387,0.003 0.40733,-0.22534 0.81927,-0.50748 z m -15.4099,-0.38118 c 0.34925,-0.0726 0.66285,-0.15949 0.6969,-0.19306 0.0513,-0.0505 -0.33532,-1.196684 -0.61851,-1.833774 -0.0414,-0.09313 -0.26129,-0.664633 -0.48865,-1.27 -0.78946,-2.102035 -1.38338,-3.642539 -1.53418,-3.979333 -0.0834,-0.186266 -0.22037,-0.557741 -0.30439,-0.8255 -0.084,-0.267758 -0.17596,-0.486833 -0.20433,-0.486833 -0.0284,0 -0.15319,0.200025 -0.27739,0.4445 -0.12421,0.244475 -0.32921,0.625757 -0.45556,0.847293 l -0.22972,0.402794 0.39172,0.994206 c 0.64155,1.628272 1.83362,4.671705 2.10559,5.375707 0.13942,0.36089 0.26025,0.65613 0.26851,0.6561 0.008,-4e-5 0.30076,-0.0595 0.65001,-0.1321 z m 27.84603,-4.123123 1.08833,-1.503622 0.0545,-1.078711 c 0.03,-0.593291 0.0942,-3.610148 0.14286,-6.704127 0.0486,-3.09398 0.1058,-5.653572 0.12707,-5.687984 0.0639,-0.103461 -0.1331,-0.179556 -0.24297,-0.09383 -0.0562,0.04382 -0.63553,0.358892 -1.28746,0.700153 -2.15849,1.129884 -1.74733,0.659205 -3.34433,3.828469 -0.76835,1.524797 -1.86442,3.70474 -2.43571,4.844319 l -1.0387,2.071963 0.26117,1.378164 c 0.14365,0.757991 0.28142,1.494273 0.30617,1.636182 0.044,0.252255 0.0878,0.273627 1.96286,0.95704 1.05483,0.384464 1.99407,0.731178 2.08721,0.770476 0.70436,0.297212 1.03092,0.413622 1.12335,0.400442 0.059,-0.0084 0.59709,-0.691938 1.19567,-1.518931 z m 5.24194,-0.600556 c 0.35844,-0.249249 0.97555,-0.671836 1.37137,-0.939084 0.39581,-0.267248 0.73192,-0.497854 0.74691,-0.512459 0.0686,-0.06682 -0.43689,-3.081519 -0.56078,-3.344611 -0.0768,-0.162984 -0.34741,-0.677334 -0.60147,-1.143 -0.25406,-0.465667 -0.69317,-1.286691 -0.97579,-1.824498 -1.72846,-3.289038 -3.06245,-5.750268 -3.11738,-5.751613 -0.0349,-8.56e-4 -0.0644,0.522319 -0.0656,1.162611 -0.001,0.640291 -0.0374,2.916766 -0.0804,5.058833 -0.0431,2.142067 -0.0861,4.419525 -0.0957,5.06102 l -0.0174,1.166353 0.39529,0.250685 c 0.21741,0.137876 0.53765,0.327921 0.71163,0.422322 0.17399,0.0944 0.54494,0.319879 0.82434,0.501063 0.2794,0.181185 0.57669,0.333056 0.66064,0.337491 0.084,0.0044 0.4459,-0.195865 0.80433,-0.445113 z M 140.674,88.683283 c 0.93835,-1.865864 1.6771,-3.380339 1.64168,-3.3655 -0.0354,0.01484 -0.84337,0.881821 -1.79544,1.926626 -2.81009,3.083811 -3.17037,3.48841 -3.17037,3.5604 0,0.07865 1.45828,1.270954 1.55447,1.270954 0.035,0 0.8313,-1.526616 1.76966,-3.39248 z"
       id="path1278" />
  </g>
</svg>
