<?xml version="1.0" encoding="UTF-8" standalone="no"?>
<!-- Created with Inkscape (http://www.inkscape.org/) -->

<svg
   width="164.70807mm"
   height="154.91985mm"
   viewBox="0 0 164.70807 154.91985"
   version="1.1"
   id="svg5"
   inkscape:version="1.1.2 (b8e25be8, 2022-02-05)"
   sodipodi:docname="owl.svg"
   xmlns:inkscape="http://www.inkscape.org/namespaces/inkscape"
   xmlns:sodipodi="http://sodipodi.sourceforge.net/DTD/sodipodi-0.dtd"
   xmlns="http://www.w3.org/2000/svg"
   xmlns:svg="http://www.w3.org/2000/svg">
  <sodipodi:namedview
     id="namedview7"
     pagecolor="#ffffff"
     bordercolor="#666666"
     borderopacity="1.0"
     inkscape:pageshadow="2"
     inkscape:pageopacity="0.0"
     inkscape:pagecheckerboard="0"
     inkscape:document-units="mm"
     showgrid="false"
     fit-margin-top="0"
     fit-margin-left="0"
     fit-margin-right="0"
     fit-margin-bottom="0"
     inkscape:zoom="0.57549102"
     inkscape:cx="462.21399"
     inkscape:cy="496.96692"
     inkscape:window-width="1644"
     inkscape:window-height="997"
     inkscape:window-x="36"
     inkscape:window-y="25"
     inkscape:window-maximized="1"
     inkscape:current-layer="layer1" />
  <defs
     id="defs2" />
  <g
     inkscape:label="Layer 1"
     inkscape:groupmode="layer"
     id="layer1"
     transform="translate(-24.638839,-87.539866)">
    <path
       style="fill:#000000;stroke-width:0.176389"
       d="m 102.06267,242.36291 c -3.631769,-0.15236 -8.495769,-0.58013 -10.145179,-0.89224 -0.48662,-0.0921 -1.47881,-0.24471 -2.20486,-0.33918 -3.32596,-0.43274 -6.95094,-1.22491 -10.93329,-2.38928 -0.53358,-0.15601 -1.24795,-0.35292 -1.5875,-0.43759 -0.7378,-0.18396 -4.73708,-1.54475 -6.35,-2.16063 -3.76373,-1.43715 -10.65842,-4.90683 -13.26359,-6.67476 -0.5525,-0.37494 -1.04374,-0.68172 -1.09162,-0.68172 -0.22274,0 -4.48295,-3.07917 -6.45642,-4.66653 -2.51352,-2.02176 -7.4231,-6.83003 -9.37342,-9.18 -3.82522,-4.60906 -6.51521,-8.89635 -9.0509,-14.42529 -0.85124,-1.85607 -2.73929,-7.24066 -2.74325,-7.82355 -7.4e-4,-0.11013 -0.11421,-0.58638 -0.25213,-1.05833 -0.31309,-1.07133 -0.70562,-3.10339 -1.08385,-5.61093 -0.33126,-2.19614 -0.39579,-9.5174 -0.0958,-10.86481 0.0963,-0.43259 0.22404,-1.42153 0.2838,-2.19765 0.1032,-1.3402 0.40594,-3.49042 0.81955,-5.82083 0.58537,-3.29813 2.21581,-8.7727 3.4146,-11.46528 0.70086,-1.57419 1.6965,-3.7163 1.81419,-3.90323 0.0689,-0.10948 0.64536,-0.9826 1.28094,-1.94027 0.63558,-0.95767 1.30498,-1.97935 1.48756,-2.27039 0.18257,-0.29104 0.43766,-0.63525 0.56686,-0.76492 0.12919,-0.12966 0.45153,-0.52654 0.71629,-0.88194 0.26477,-0.35541 0.53034,-0.68588 0.59015,-0.73439 0.0598,-0.0485 0.64187,-0.79705 1.29348,-1.66344 1.08868,-1.44752 1.17532,-1.62629 1.0686,-2.20486 -0.12267,-0.66505 -0.28961,-0.89496 -1.84682,-2.54352 -1.78868,-1.8936 -3.41754,-2.89209 -5.32791,-3.26597 -1.14459,-0.22401 -4.51143,-0.55337 -5.65323,-0.55302 -0.99031,3.5e-4 -3.12938,-0.66282 -3.26322,-1.01161 -0.18082,-0.47121 0.29722,-1.09046 1.57515,-2.04046 2.92245,-2.17251 6.76861,-3.89447 10.07098,-4.50889 0.98495,-0.18325 1.2056,-0.33881 0.80142,-0.565 -0.2949,-0.16503 -2.20422,-1.6807 -2.53362,-2.01125 -1.50595,-1.51121 -2.20085,-5.16847 -0.90668,-4.77183 3.06511,0.9394 7.68362,1.44761 8.63955,0.95068 0.2119,-0.11016 0.41407,-0.22493 0.44925,-0.25506 0.0662,-0.0567 -1.03689,-1.73091 -2.25671,-3.42522 -0.68082,-0.94564 -2.14663,-3.26295 -2.28726,-3.61594 -0.0387,-0.097 -0.40985,-0.89079 -0.82487,-1.76392 -1.96744,-4.13912 -2.68158,-8.53791 -1.94729,-11.994441 0.47312,-2.22714 0.63375,-2.70062 1.61564,-4.7625 1.42396,-2.9902 3.41768,-5.1288 6.38002,-6.84363 1.3222,-0.76539 2.28919,-0.99917 2.44572,-0.59126 0.0987,0.25716 -0.10403,1.13984 -0.45169,1.96683 -0.3696,0.87918 -0.76527,2.4097 -0.95821,3.70649 -0.37632,2.52936 0.37457,5.86887 1.9032,8.464341 1.42574,2.42078 4.65715,5.72284 6.75026,6.89785 1.22921,0.69004 3.90787,1.67474 5.35403,1.96818 0.53357,0.10826 1.4067,0.28495 1.94027,0.39264 1.21752,0.24571 3.22492,0.46002 6.61459,0.70617 6.0516,0.43945 7.31242,0.55615 8.92858,0.82636 l 1.69663,0.28367 1.30198,-0.43962 c 0.71609,-0.24179 2.13541,-0.70139 3.15406,-1.02134 1.01864,-0.31996 2.52677,-0.79785 3.35139,-1.06199 0.82461,-0.26415 1.85649,-0.57924 2.29305,-0.70021 0.43656,-0.12097 1.03188,-0.29803 1.32292,-0.39348 0.61326,-0.20111 0.87142,-0.2714 3.67035,-0.99936 1.14557,-0.29795 2.16208,-0.59069 2.25892,-0.65054 0.19692,-0.12171 1.0255,-0.26093 4.74225,-0.79683 3.692819,-0.53245 10.642219,-0.52886 14.287509,0.007 3.57349,0.52566 5.95812,1.01306 7.01976,1.43478 0.22284,0.0885 0.54356,0.16095 0.7127,0.16095 0.16914,0 1.05838,0.23768 1.97608,0.52817 0.9177,0.2905 1.94635,0.60616 2.2859,0.70147 0.81566,0.22894 3.76922,1.14899 5.64445,1.75826 0.82462,0.26793 1.85649,0.58768 2.29305,0.71056 0.43657,0.12289 1.16718,0.34757 1.62359,0.49931 0.69286,0.23034 1.01313,0.24234 1.94028,0.0727 1.20815,-0.22105 3.39996,-0.43838 8.43804,-0.83669 6.29058,-0.49733 6.64032,-0.54303 9.69393,-1.26666 2.23728,-0.53019 4.59386,-1.40876 5.55158,-2.06974 3.10017,-2.1396 6.39018,-5.92168 7.28802,-8.37806 0.661,-1.808391 0.89796,-2.725991 1.09453,-4.238381 0.24211,-1.86285 0.16118,-2.45476 -0.71313,-5.21549 -0.70116,-2.21397 -0.82037,-3.04324 -0.45752,-3.18248 0.39502,-0.15158 2.28155,0.77302 3.57557,1.7524 3.43045,2.59636 5.57264,6.21662 6.42863,10.864261 0.41465,2.25136 0.42741,3.5005 0.0568,5.56633 -0.7599,4.23618 -2.37221,7.76727 -5.62324,12.31537 -1.85501,2.59511 -1.83608,2.55656 -1.41447,2.88023 0.72363,0.55553 7.81277,-0.13084 8.66611,-0.83904 0.13037,-0.1082 0.36834,-0.14634 0.52882,-0.0848 0.24827,0.0953 0.27497,0.29291 0.17902,1.32526 -0.17705,1.90495 -1.17715,3.43733 -3.1745,4.86405 -0.54327,0.38805 -0.96504,0.77924 -0.93728,0.86931 0.0278,0.0901 0.59718,0.27425 1.26537,0.4093 2.88192,0.58245 6.24633,2.01293 8.82189,3.7509 3.9056,2.63547 3.47498,3.25092 -2.64943,3.78671 -3.55454,0.31097 -4.38371,0.48227 -5.9726,1.23394 -1.08928,0.51531 -2.94967,2.11944 -4.16064,3.58755 -0.64691,0.78427 -0.77347,1.06112 -0.77347,1.69193 0,0.69043 0.15831,0.95645 1.87183,3.1454 3.35921,4.29127 6.07603,8.85449 7.50972,12.6135 1.17572,3.08263 1.58035,4.20482 1.66953,4.63021 0.0508,0.24254 0.24822,1.03629 0.43861,1.76389 1.18133,4.51441 1.97749,10.73311 1.96925,15.3815 -0.005,2.77652 -0.49689,8.4886 -0.76904,8.92894 -0.0567,0.0918 -0.18188,0.67218 -0.27809,1.2897 -0.19964,1.28136 -0.55201,2.8006 -0.97636,4.20958 -0.16071,0.53358 -0.35759,1.24796 -0.43752,1.5875 -0.0799,0.33955 -0.31769,1.05393 -0.52836,1.5875 -0.21067,0.53358 -0.4464,1.16858 -0.52385,1.41112 -0.2857,0.8947 -1.82228,4.35662 -2.42702,5.46805 -0.70116,1.28865 -2.91581,4.92391 -3.4924,5.73264 -5.11888,7.17975 -10.95439,12.89972 -18.62501,18.25626 -7.1623,5.00157 -15.77431,8.99881 -24.50083,11.37197 -0.63059,0.17149 -1.50371,0.41484 -1.94028,0.54078 -0.43656,0.12594 -1.50812,0.35934 -2.38125,0.51867 -0.87312,0.15933 -1.78593,0.35747 -2.02847,0.44031 -1.72938,0.59067 -10.86543,1.7125 -15.08125,1.85185 -1.64923,0.0545 -3.91142,0.13042 -5.02708,0.16868 -1.11566,0.0383 -3.65566,0.001 -5.64445,-0.0821 z m 11.2007,-3.35323 c 0.97014,-0.0947 2.51795,-0.21354 3.43958,-0.26408 6.21301,-0.34071 14.52615,-1.97226 21.25486,-4.17152 1.74475,-0.57026 1.72381,-0.56242 3.61598,-1.35367 0.7276,-0.30427 1.37665,-0.55302 1.44232,-0.55278 0.28984,0.001 5.57384,-2.53885 7.55351,-3.63082 5.78024,-3.18832 13.25615,-8.79581 18.40975,-13.80867 4.97107,-4.83532 7.89181,-8.6919 10.26069,-13.54836 0.72381,-1.48388 1.43787,-3.03621 1.58681,-3.44963 1.0649,-2.95596 2.17431,-6.68398 2.37583,-7.98361 0.30044,-1.93765 0.71861,-4.2018 0.80052,-4.33432 0.0477,-0.0772 0.20337,-1.85133 0.34596,-3.9426 0.37803,-5.54394 -0.0104,-10.88931 -1.12548,-15.48692 -0.24595,-1.01409 -1.1601,-2.51811 -1.53052,-2.51811 -0.22602,0 -0.58162,0.506 -1.21364,1.72694 -1.01202,1.95501 -2.28375,3.58965 -3.45159,4.43653 -1.92913,1.39894 -4.52364,2.52256 -6.96736,3.0174 -1.5223,0.30826 -2.07387,0.64504 -1.99214,1.21634 0.0483,0.33773 0.15434,0.3592 1.55117,0.31402 1.96284,-0.0635 2.64583,0.0589 2.64583,0.47395 0,0.18008 -0.67687,0.93243 -1.54006,1.7118 -2.3219,2.09643 -2.34049,2.1179 -2.34049,2.70135 0,0.37521 0.13172,0.61943 0.44469,0.8245 1.3849,0.90742 4.57685,-1.03254 7.0078,-4.25911 3.07296,-4.07869 3.92995,-4.84358 5.4268,-4.84358 0.88861,0 1.1465,0.18455 1.65152,1.18187 0.41275,0.8151 0.35,1.59501 -0.21713,2.69869 -1.95699,3.80847 -3.31193,5.11696 -7.08693,6.844 -1.95118,0.89265 -4.63484,1.68345 -7.57953,2.23345 -0.33955,0.0634 -0.77611,0.18442 -0.97014,0.26888 -0.19403,0.0845 -0.78934,0.31039 -1.32292,0.50207 -1.26091,0.45296 -2.72994,1.22254 -3.08719,1.6173 -0.26184,0.28933 -0.24778,0.33966 0.19136,0.68509 0.26068,0.20505 0.56248,0.37546 0.67066,0.37869 0.26578,0.008 0.88184,0.53692 1.11916,0.961 0.21369,0.38184 -0.11745,1.22598 -0.64089,1.63372 -0.65584,0.51088 -3.45498,1.78743 -4.95587,2.26014 -0.53358,0.16804 -1.04555,0.37344 -1.13771,0.45643 -0.0922,0.083 -0.33205,0.15089 -0.53308,0.15089 -0.55681,0 -1.6806,1.00701 -1.6806,1.50595 0,0.98161 1.42474,1.03298 4.02727,0.1452 6.50524,-2.2191 11.19592,-4.68814 14.57588,-7.67233 2.04613,-1.80654 2.76212,-2.18524 4.07851,-2.15721 2.96919,0.0632 4.29133,2.09712 2.82801,4.35041 -0.32774,0.50466 -0.90321,1.20233 -1.27882,1.55038 -0.84757,0.78536 -2.77798,2.2776 -2.94638,2.2776 -0.0686,0 -0.4276,0.19114 -0.79767,0.42476 -0.84931,0.53614 -3.46043,1.62162 -4.76427,1.98057 -1.852,0.50986 -4.34001,1.07871 -5.58017,1.27583 -0.6791,0.10795 -2.06816,0.32815 -3.08681,0.48934 -1.2761,0.20194 -3.40869,0.31784 -6.85742,0.37269 -5.18329,0.0824 -6.0649,0.20328 -6.3193,0.86622 -0.20226,0.52711 0.21152,0.84753 1.26687,0.98104 1.75737,0.22232 2.60934,0.98812 1.932,1.73657 -0.46584,0.51475 -2.67057,0.47165 -4.45,-0.087 -1.95986,-0.61528 -2.87459,-0.70326 -3.97762,-0.38261 -1.77326,0.51551 -1.92748,1.37414 -0.35468,1.97479 0.71998,0.27496 1.47674,0.31554 6.04333,0.32404 5.36596,0.01 6.65922,-0.11124 9.27724,-0.86962 0.48507,-0.14051 1.47726,-0.41024 2.20486,-0.59939 0.7276,-0.18915 1.9976,-0.55763 2.82222,-0.81884 4.20433,-1.33178 5.4693,-1.5731 7.39031,-1.40985 2.1069,0.17903 3.1687,0.90224 3.32204,2.26269 0.22183,1.9681 -1.62777,3.88623 -4.71513,4.88982 -3.54055,1.15092 -5.50221,1.40587 -10.80389,1.40418 -5.92827,-0.002 -8.13651,-0.29048 -12.65583,-1.65395 -1.71563,-0.51759 -7.28898,-2.36816 -8.29028,-2.75268 -0.53357,-0.2049 -1.32732,-0.4957 -1.76388,-0.6462 -0.65295,-0.22511 -2.60093,-1.33201 -3.90068,-2.21649 -0.15659,-0.10655 -0.41636,-0.14322 -0.57727,-0.0815 -0.59771,0.22936 -0.51254,0.64588 0.3124,1.52781 0.44779,0.47872 0.81416,1.02688 0.81416,1.21813 0,0.74879 -1.11018,1.25124 -2.00932,0.90939 -0.2657,-0.10102 -0.8748,-0.18367 -1.35356,-0.18367 -0.74264,0 -0.87046,0.05 -0.87046,0.34076 0,0.44562 0.57569,0.83596 2.82223,1.91358 2.97605,1.42756 5.87225,2.62036 7.58472,3.12377 0.43656,0.12834 1.23031,0.36215 1.76389,0.51959 2.8477,0.84024 4.48661,1.01438 8.99583,0.95583 9.43073,-0.12244 10.1132,-0.0801 11.92223,0.74006 0.83433,0.37824 1.95171,1.53962 2.11773,2.20112 0.18485,0.73649 -0.0565,1.68635 -0.60043,2.36255 -1.32817,1.65134 -3.19297,2.20476 -7.44231,2.20865 -3.45124,0.003 -5.59897,-0.34539 -9.29437,-1.50839 -0.8918,-0.28067 -1.70871,-0.5103 -1.81534,-0.5103 -0.10664,0 -0.70321,-0.23813 -1.3257,-0.52917 -0.6225,-0.29104 -1.1794,-0.52916 -1.23755,-0.52916 -0.25957,0 -5.38726,-2.58377 -6.26317,-3.15593 -1.13589,-0.74197 -1.363,-0.88313 -2.58117,-1.60433 -0.50031,-0.29621 -1.69094,-1.1405 -2.64583,-1.8762 -2.30375,-1.77495 -3.54154,-2.55829 -4.09934,-2.59432 -0.44987,-0.029 -0.45787,-0.01 -0.39971,0.95987 0.0724,1.20705 -0.0941,1.31309 -1.57973,1.00623 -0.76934,-0.1589 -1.08857,-0.1629 -1.236,-0.0155 -0.54172,0.54172 1.73379,2.76544 6.43089,6.28452 2.37935,1.78262 7.59802,4.34444 11.14216,5.46964 4.12886,1.31084 4.54622,1.47059 5.68169,2.17475 1.24366,0.77125 1.86194,1.73734 1.95751,3.05871 0.0604,0.8357 0.002,1.1497 -0.30527,1.6473 -1.28685,2.08216 -5.31451,2.01186 -9.71518,-0.16957 -3.87625,-1.92148 -7.46875,-5.01606 -12.89116,-11.10447 -3.56202,-3.99952 -4.74684,-5.01962 -5.83009,-5.01962 -0.97691,0 -1.12324,0.30958 -1.11773,2.36489 0.005,1.75922 0.0146,1.80047 0.83823,3.49273 0.71889,1.47709 1.05768,1.93456 2.46467,3.3281 1.33724,1.32444 5.87422,4.90937 7.27952,5.75196 3.23721,1.94096 5.88444,3.7559 6.32965,4.33959 0.50592,0.6633 0.60429,1.69087 0.22689,2.37005 -0.32051,0.57679 -1.25621,1.20919 -2.16604,1.46393 -1.093,0.30602 -2.36215,0.01 -4.36271,-1.0176 -3.98583,-2.04733 -7.05159,-5.60244 -10.59996,-12.29189 -0.39801,-0.75034 -2.38156,-2.92431 -2.66415,-2.9199 -0.56019,0.009 -0.70177,0.35619 -0.66797,1.63932 0.0434,1.64686 0.77926,4.15554 1.9524,6.65589 0.47991,1.02284 1.00922,2.17378 1.17624,2.55764 0.16702,0.38386 0.5324,1.17418 0.81195,1.75626 1.06702,2.22178 1.11321,2.91042 0.1952,2.91042 -1.03617,0 -3.6331,-2.33733 -4.44761,-4.00301 -0.87841,-1.79634 -1.57612,-2.153 -1.57198,-0.80359 0.003,0.96038 0.22939,1.67663 1.23902,3.91886 0.85385,1.89628 0.89533,2.70685 0.14298,2.79394 -0.32348,0.0375 -0.6616,-0.11628 -1.09743,-0.49895 -0.61421,-0.53928 -0.95625,-1.07391 -2.31093,-3.61211 -0.36245,-0.6791 -0.81401,-1.39348 -1.00347,-1.5875 l -0.34447,-0.35278 -0.267,0.35278 c -0.17693,0.23377 -0.23373,0.56104 -0.16838,0.97014 0.18243,1.14206 0.33147,4.88352 0.2133,5.35437 -0.0861,0.3429 -0.22966,0.46646 -0.54209,0.46646 -1.17103,0 -1.76393,-1.67274 -2.01195,-5.67626 -0.14237,-2.29804 -0.30524,-2.79041 -0.9231,-2.79041 -0.53449,0 -0.75376,0.68796 -0.87142,2.73403 -0.12515,2.17644 -0.74581,4.81966 -1.26176,5.37346 -0.39774,0.42694 -0.89682,0.4633 -1.20825,0.088 -0.1734,-0.20894 -0.19877,-0.96764 -0.1106,-3.3073 0.0629,-1.66988 0.0457,-3.14318 -0.0382,-3.274 -0.0839,-0.13081 -0.30186,-0.21018 -0.48427,-0.17638 -0.33749,0.0625 -0.49996,0.34025 -1.73726,2.96965 -0.87303,1.8553 -1.953019,3.05308 -2.678019,2.97012 -0.42105,-0.0482 -0.51129,-0.14855 -0.5569,-0.61946 -0.0315,-0.32549 0.12618,-0.95642 0.37478,-1.49931 1.32754,-2.89917 1.53173,-3.51372 1.53173,-4.60992 0,-1.34391 -0.54073,-1.08047 -1.51166,0.73645 -0.27758,0.51943 -0.79961,1.27948 -1.16008,1.68899 -1.5484,1.75907 -3.66998,2.90376 -3.96362,2.13855 -0.14015,-0.36522 0.18828,-1.44111 0.83748,-2.74348 0.62329,-1.25039 1.91733,-4.05474 1.91733,-4.1551 0,-0.0425 0.22723,-0.5736 0.50496,-1.1802 1.15187,-2.51585 1.51735,-4.1369 1.45168,-6.43866 -0.0146,-0.51156 -0.0716,-0.57327 -0.52918,-0.57327 -0.68933,0 -1.84062,1.28901 -3.13822,3.51361 -1.83818,3.15137 -2.20599,3.74225 -3.28348,5.27474 -2.9064,4.13374 -7.54364,7.42988 -10.46363,7.43752 -2.40255,0.006 -4.05108,-2.34014 -2.79819,-3.98277 0.4521,-0.59274 3.49934,-2.70519 6.23832,-4.32463 0.91082,-0.53853 3.67948,-2.5511 4.96218,-3.60708 0.33955,-0.27953 1.42268,-1.32264 2.40696,-2.31802 1.40393,-1.41976 1.92725,-2.09213 2.42832,-3.11997 0.7396,-1.51712 1.06444,-3.00914 0.92126,-4.23147 -0.14155,-1.2084 -0.50234,-1.69748 -1.25222,-1.69748 -0.8004,0 -2.78152,1.5833 -4.3365,3.46571 -2.74449,3.3224 -6.58253,7.27531 -8.9052,9.17172 -2.09204,1.70811 -5.29024,3.58402 -7.57859,4.44524 -0.9614,0.36182 -3.09227,0.73261 -4.21023,0.73261 -1.37099,0 -2.74512,-0.62366 -3.2796,-1.48847 -0.70255,-1.13676 -0.30972,-3.14224 0.81697,-4.17075 0.99624,-0.90942 1.31889,-1.04338 6.84925,-2.84378 0.87313,-0.28424 1.74625,-0.58259 1.94028,-0.66301 0.19403,-0.0804 0.78934,-0.32154 1.32292,-0.53585 3.03841,-1.22038 6.86877,-3.54717 9.78958,-5.94678 4.56051,-3.74672 5.37668,-4.99748 2.9315,-4.49243 -1.48715,0.30717 -1.67445,0.19269 -1.55639,-0.95122 0.1553,-1.5047 -0.37052,-1.43233 -2.83032,0.38956 -0.70335,0.52094 -1.85429,1.3709 -2.55764,1.88879 -1.80866,1.33175 -7.26849,4.52643 -7.73583,4.52643 -0.0781,0 -0.52257,0.22323 -0.98766,0.49606 -1.57063,0.92136 -5.78947,2.48138 -8.4037,3.10747 -3.19764,0.76581 -4.09275,0.87273 -7.25857,0.86708 -2.73039,-0.005 -3.34092,-0.0579 -4.35982,-0.37852 -1.58319,-0.49822 -2.10126,-0.78388 -2.73908,-1.51031 -1.82682,-2.08063 -0.69849,-4.39287 2.5874,-5.30223 1.27375,-0.3525 2.88831,-0.3992 10.15594,-0.29375 4.12234,0.0598 4.79125,0.0282 6.61459,-0.31286 2.88249,-0.53916 5.65302,-1.36592 7.39724,-2.20745 0.52748,-0.25449 1.03576,-0.46271 1.12951,-0.46271 0.27693,0 2.05486,-0.85099 5.49616,-2.6307 0.61232,-0.31666 0.88195,-0.56396 0.88195,-0.80888 0,-0.46034 -0.70221,-0.54604 -2.07938,-0.25378 -0.9523,0.20209 -1.06434,0.19151 -1.50328,-0.14197 -0.67565,-0.51331 -0.5759,-1.16138 0.3191,-2.07333 0.47097,-0.47988 0.68133,-0.82935 0.61043,-1.01411 -0.19429,-0.50629 -0.64541,-0.5093 -1.38744,-0.009 -1.96731,1.32584 -3.06132,1.7967 -8.30666,3.57512 -5.08296,1.72338 -8.60282,2.68463 -11.1125,3.03477 -0.77611,0.10828 -3.47396,0.23006 -5.99522,0.27064 -5.50662,0.0886 -7.63022,-0.15684 -11.46728,-1.32545 -0.83332,-0.2538 -2.95009,-1.39107 -3.48081,-1.87014 -0.64978,-0.58653 -1.16865,-1.62478 -1.28953,-2.5803 -0.12777,-1.01002 0.32034,-1.76792 1.36794,-2.31366 1.0825,-0.56391 4.03046,-0.55959 6.04824,0.009 1.79554,0.50586 2.55626,0.73727 2.99861,0.9122 0.34237,0.13539 2.36337,0.71966 3.61597,1.04538 0.33955,0.0883 1.05392,0.28123 1.5875,0.42875 1.32695,0.36687 3.59427,0.74522 5.87345,0.98012 2.31127,0.2382 9.09962,-0.0705 9.83801,-0.44745 0.69782,-0.3562 0.97126,-0.75889 0.75205,-1.10754 -0.69076,-1.09866 -2.89754,-1.31141 -5.33536,-0.51439 -2.46281,0.8052 -4.77815,0.61001 -4.77815,-0.40281 0,-0.49134 0.67677,-0.86039 2.03876,-1.11176 1.72533,-0.31843 2.01874,-1.04359 0.65885,-1.62832 -0.55571,-0.23894 -1.4914,-0.29475 -5.51983,-0.32924 -5.48346,-0.0469 -7.31238,-0.23472 -12.34722,-1.26763 -7.2569,-1.48878 -13.58195,-5.65957 -13.58195,-8.95605 0,-1.42931 1.00385,-2.19301 3.08998,-2.35078 1.69245,-0.128 2.2977,0.16902 4.75743,2.33473 2.74771,2.41925 5.61212,4.02051 11.0262,6.16382 1.4067,0.55688 2.83545,1.12334 3.175,1.2588 0.33955,0.13546 1.10823,0.36897 1.70818,0.51891 0.97015,0.24247 1.16038,0.24355 1.71979,0.01 0.8655,-0.36163 0.85549,-0.95036 -0.0286,-1.67908 -0.36166,-0.2981 -0.73293,-0.542 -0.82507,-0.542 -0.13878,0 -2.14821,-0.68879 -3.54447,-1.21496 -1.86592,-0.70317 -3.58931,-1.79446 -3.98474,-2.52323 -0.28317,-0.52188 0.17704,-1.14337 1.28324,-1.73298 0.72118,-0.38438 1.02889,-0.64826 0.99164,-0.85037 -0.0584,-0.31684 -2.78362,-1.75361 -4.21297,-2.22112 -0.4722,-0.15445 -1.75367,-0.47828 -2.84772,-0.71963 -2.81926,-0.62193 -3.05244,-0.68667 -4.71215,-1.3083 -4.3166,-1.61674 -6.49446,-3.45525 -8.20601,-6.92738 -0.59347,-1.20395 -0.6603,-1.47049 -0.58782,-2.34447 0.11688,-1.40946 0.54752,-1.92691 1.65902,-1.99345 0.74648,-0.0447 0.98267,0.0309 1.70866,0.54709 0.72658,0.51658 2.06605,1.98317 2.94741,3.22712 1.37976,1.9474 2.69178,3.37094 3.82626,4.15148 2.29708,1.58043 4.06432,1.82929 4.51235,0.6354 0.21529,-0.5737 -0.1873,-1.1243 -1.8819,-2.57378 -1.76972,-1.51373 -2.20732,-2.05507 -1.90535,-2.35704 0.0991,-0.0991 1.03106,-0.16548 2.13301,-0.15184 2.00491,0.0248 2.06111,0.005 1.96174,-0.68487 -0.0596,-0.41417 -0.54171,-0.66726 -1.85689,-0.97489 -2.65047,-0.61997 -4.49324,-1.37847 -6.49501,-2.67341 -2.02417,-1.30943 -3.11577,-2.62113 -4.34314,-5.21886 -0.81377,-1.72234 -1.24124,-1.74491 -1.94765,-0.10281 -1.56122,3.62914 -2.22955,11.46193 -1.59498,18.69312 0.1698,1.93497 0.27084,2.56634 0.82805,5.17404 0.63803,2.98597 1.94164,7.559 2.51409,8.81944 0.0881,0.19403 0.41444,0.98778 0.72514,1.76389 1.19427,2.98317 3.35689,6.68925 5.55814,9.525 0.9527,1.22732 4.74755,5.43683 5.48696,6.08653 4.91291,4.31684 5.09703,4.47339 7.3835,6.27789 3.79517,2.99517 7.04293,5.20322 10.75851,7.31438 1.16962,0.66457 5.23656,2.71588 6.08542,3.06941 0.43656,0.18182 1.29538,0.55519 1.90849,0.82973 0.6131,0.27453 1.15673,0.49915 1.20806,0.49915 0.0513,0 0.34345,0.11447 0.64915,0.25437 0.30571,0.13991 1.03208,0.4125 1.61416,0.60577 0.58208,0.19327 1.4949,0.50307 2.02847,0.68844 1.23743,0.4299 3.92526,1.23188 5.73264,1.71046 0.58208,0.15414 1.29646,0.35073 1.5875,0.43688 0.29104,0.0862 1.24354,0.28651 2.11667,0.44523 0.87312,0.15872 2.14312,0.39544 2.82222,0.52605 1.94473,0.37403 4.75978,0.76689 6.96736,0.97235 1.11566,0.10383 2.2666,0.21489 2.55764,0.2468 1.2875,0.14115 13.401729,0.0814 14.993059,-0.0739 z m -5.50649,-41.33751 c 0.56972,-0.2482 0.98142,-0.77394 2.59573,-3.31471 0.47425,-0.74643 1.5613,-2.29756 2.41568,-3.44696 2.40517,-3.2357 2.67583,-3.65049 3.42445,-5.248 0.54041,-1.15321 0.70248,-1.71616 0.7115,-2.4715 0.0114,-0.95326 -0.21508,-1.49933 -0.62181,-1.49933 -0.27668,0 -2.60124,3.24802 -3.68119,5.14359 -1.01327,1.77852 -1.3099,2.10725 -1.55586,1.72424 -0.26333,-0.41004 -0.0199,-1.19391 0.99824,-3.21415 1.01047,-2.00509 1.64309,-3.0811 2.05375,-3.49321 0.13627,-0.13677 0.50046,-0.59791 0.80932,-1.02478 0.66395,-0.91766 0.72022,-1.67937 0.2075,-2.80919 -0.41717,-0.91927 -0.80935,-0.92851 -1.26545,-0.0298 -0.44594,0.87868 -1.74881,3.72277 -2.46381,5.37835 -0.37275,0.86309 -0.7254,1.43283 -0.90875,1.46814 -0.5816,0.11201 -0.36517,-1.34473 0.58233,-3.91966 0.48507,-1.31822 0.88194,-2.471 0.88194,-2.56172 0,-0.0907 0.22919,-0.66658 0.50931,-1.27969 1.04192,-2.28045 1.00228,-2.45682 -1.00455,-4.46954 -2.55737,-2.56489 -3.9887,-2.97195 -6.39783,-1.81947 -1.86693,0.89309 -4.21685,3.27963 -4.21877,4.2845 -3.5e-4,0.18972 0.2668,0.94378 0.5937,1.67569 0.32689,0.73191 0.75592,1.84669 0.95339,2.47728 0.19747,0.63059 0.60313,1.82122 0.90147,2.64583 0.60312,1.66708 0.73339,3.06299 0.27691,2.96745 -0.1502,-0.0314 -0.63142,-0.8486 -1.07231,-1.82092 -2.44342,-5.38856 -2.622859,-5.73264 -2.989629,-5.73264 -0.39231,0 -0.84381,1.0758 -0.85691,2.04179 -0.0109,0.80053 0.0719,1.00354 0.78161,1.91855 1.200059,1.5471 1.515949,2.05758 2.545879,4.11429 1.01328,2.02346 1.25428,2.79923 0.99503,3.20292 -0.24884,0.38747 -0.56475,0.0358 -1.59393,-1.77432 -0.94081,-1.65469 -3.259629,-4.96038 -3.553679,-5.06608 -0.42072,-0.15125 -0.68636,0.39527 -0.68636,1.41213 0,1.5141 0.91606,3.388 3.097109,6.33544 0.9758,1.31869 2.62866,3.67598 3.67301,5.23843 2.1747,3.25356 2.54774,3.54008 3.86298,2.96707 z m -22.888149,-1.24231 c 0.90191,-0.37685 1.47155,-1.03359 1.60153,-1.84644 0.1657,-1.03624 0.392,-1.14658 1.41243,-0.68868 0.68427,0.30705 1.20908,0.38932 2.53831,0.39791 1.4713,0.01 1.77252,-0.0431 2.46945,-0.43109 1.5583,-0.86757 1.82027,-2.66988 0.68473,-4.71078 -0.51056,-0.91763 -0.54644,-1.08864 -0.45563,-2.17183 0.11628,-1.38698 0.415,-3.02401 0.81996,-4.49352 0.228,-0.82739 0.37305,-1.07021 0.66471,-1.11275 0.4195,-0.0612 0.67692,-0.53587 0.42643,-0.78635 -0.28385,-0.28386 -0.88121,0.0399 -2.10382,1.1404 -1.19097,1.07198 -3.41619,2.26868 -5.15166,2.77051 -0.43656,0.12624 -1.11125,0.33424 -1.4993,0.46221 -4.02787,1.32834 -12.65922,1.30833 -16.05139,-0.0372 -2.31119,-0.91676 -5.12727,-2.70632 -5.71948,-3.63462 -0.56384,-0.88383 0.65117,-0.81295 2.6378,0.15389 2.34281,1.14017 3.6308,1.53608 6.30155,1.93701 3.1993,0.48026 5.02433,0.3597 9.48013,-0.62625 4.95317,-1.09602 5.10935,-1.13941 5.16597,-1.43528 0.0826,-0.43142 -0.36166,-0.51449 -1.77186,-0.33131 -2.75765,0.35821 -5.90652,0.1522 -8.15661,-0.53363 -1.78587,-0.54432 -2.38125,-0.84981 -2.38125,-1.22178 0,-0.54368 0.26731,-0.57924 1.80945,-0.24071 2.07077,0.45457 7.65384,0.45152 9.30305,-0.005 1.4981,-0.41478 3.80739,-1.56773 4.58611,-2.28969 1.24274,-1.15218 2.21646,-2.60251 2.04582,-3.04719 -0.08,-0.20854 -0.22002,-0.17847 -0.76323,0.164 -0.84103,0.53021 -3.66208,1.8793 -5.16315,2.46912 -1.62456,0.63836 -3.21817,1.00167 -4.37987,0.99853 -1.13181,-0.003 -1.50327,-0.16458 -1.41422,-0.61498 0.044,-0.22255 0.53734,-0.45819 1.73715,-0.82974 3.68212,-1.14026 5.85339,-2.27664 6.57528,-3.44132 0.88047,-1.42051 1.03359,-2.3432 0.38885,-2.3432 -0.42533,0 -1.26352,0.47997 -2.45005,1.40296 -1.36701,1.0634 -3.05153,1.845 -4.51408,2.09449 -2.20215,0.37566 -5.89599,0.78775 -7.04445,0.78588 -3.51359,-0.006 -8.22103,-3.33789 -10.35359,-7.32886 -0.74957,-1.40278 -0.75853,-1.42551 -1.28514,-3.25814 -0.39071,-1.35973 -0.51571,-4.37743 -0.20534,-4.95737 0.25933,-0.48456 0.77409,-3.71719 0.79211,-4.97434 0.0256,-1.78934 -0.0443,-1.8635 -4.08626,-4.33529 -3.01097,-1.84128 -4.56321,-2.38974 -6.8333,-2.41445 -1.51041,-0.0164 -1.87262,0.0378 -2.52047,0.37758 -1.57866,0.82789 -1.83687,2.28479 -0.91114,5.14083 0.67876,2.0941 0.65029,2.35397 -0.27256,2.48769 -1.70514,0.24705 -2.92386,1.30274 -3.24782,2.81335 -0.2841,1.32468 -0.0232,1.89591 1.58262,3.46526 1.50028,1.4662 1.73155,2.03418 0.87145,2.14016 -0.74204,0.0914 -1.5503,0.54451 -1.93491,1.08466 -0.46215,0.64903 -0.7728,2.291 -0.61396,3.24518 0.33197,1.99429 2.09165,3.65 4.22456,3.97499 1.15056,0.17531 1.05009,0.65335 -0.43415,2.06588 -1.03704,0.98693 -1.29601,1.34968 -1.52439,2.13531 -0.53365,1.83569 0.14379,3.2757 1.97223,4.19225 1.02985,0.51624 1.31303,0.55212 3.16131,0.40052 l 0.52917,-0.0434 0.10892,1.33934 c 0.2146,2.63868 1.03571,4.07557 2.43635,4.26343 0.39351,0.0528 1.25181,0.0286 1.90733,-0.0538 2.018,-0.25352 2.16008,-0.12773 2.51725,2.22849 0.32439,2.14006 1.01624,3.21172 2.29701,3.55805 0.64391,0.17412 3.43769,-0.15967 4.0416,-0.48288 0.44519,-0.23826 0.64151,-0.0136 0.99793,1.14176 0.47759,1.54821 1.85518,2.9027 3.38637,3.32962 1.66336,0.46376 2.65359,0.11743 4.17116,-1.45885 0.38349,-0.39833 0.82979,-0.72424 0.99177,-0.72424 0.16199,0 0.62366,0.35708 1.02594,0.7935 1.74102,1.88878 3.91099,2.6473 5.57929,1.95024 z m -3.01146,-1.32509 c -0.68476,-0.27738 -1.02222,-1.41508 -0.91752,-3.0933 0.0962,-1.54129 0.31434,-2.08409 0.76778,-1.91009 0.14111,0.0541 0.66823,0.70427 1.17138,1.44472 0.76052,1.11922 0.91301,1.47336 0.90415,2.09981 -0.0176,1.24393 -0.8673,1.88762 -1.92579,1.45886 z m -9.00789,-1.33765 c -0.37397,-0.57074 -0.59055,-1.74443 -0.46485,-2.51904 0.13138,-0.80962 1.23857,-1.97168 1.87858,-1.97168 0.38403,0 0.53214,0.12924 0.75803,0.66146 0.24331,0.57326 0.25238,0.86116 0.068,2.15926 -0.24172,1.70169 -0.50915,2.11817 -1.36014,2.11817 -0.43289,0 -0.66267,-0.11708 -0.87961,-0.44817 z m 16.50094,-1.57636 c -0.6968,-0.37893 -1.07419,-1.40274 -1.0113,-2.74355 0.053,-1.12893 0.0592,-1.1415 0.59078,-1.19354 0.46385,-0.0454 0.62051,0.0624 1.14652,0.78933 0.3351,0.46306 0.70849,1.0713 0.82975,1.35166 0.27949,0.64613 0.2839,1.56999 0.009,1.84507 -0.27984,0.27984 -1.00145,0.25725 -1.56457,-0.049 z m -24.24112,-2.51882 c -0.65741,-0.0829 -1.13745,-0.66401 -1.14261,-1.38331 -0.006,-0.75895 0.83836,-1.85984 1.73564,-2.26446 l 0.73558,-0.33169 0.43812,0.41159 c 0.32808,0.30821 0.43788,0.59218 0.43715,1.1305 -10e-4,0.72507 -0.24159,1.79043 -0.48472,2.14638 -0.16192,0.23705 -1.00922,0.38047 -1.71916,0.29099 z m -7.5101,-5.49725 c -0.59818,-0.59818 -0.63667,-1.05277 -0.1752,-2.06909 0.34994,-0.77068 0.81957,-1.04437 1.49933,-0.87376 0.47779,0.11992 0.9825,1.28278 0.9825,2.26372 0,1.21618 -1.36708,1.61868 -2.30663,0.67913 z m -5.45448,-5.87642 c -0.29939,-0.15657 -0.45817,-0.4059 -0.49451,-0.77656 -0.0451,-0.46001 0.0768,-0.66065 0.77448,-1.27479 0.92749,-0.8164 1.37491,-0.90934 1.67534,-0.34798 0.21844,0.40816 0.10671,2.03737 -0.15786,2.30195 -0.27461,0.27461 -1.34741,0.33273 -1.79745,0.0974 z m -1.57549,-10.34806 c -0.47485,-0.66687 -0.46014,-0.99589 0.0682,-1.52419 0.36167,-0.36168 0.604,-0.43296 1.47196,-0.43296 1.23432,0 1.74299,0.37931 1.5484,1.15461 -0.21341,0.8503 -0.86554,1.31484 -1.84579,1.31484 -0.76775,0 -0.92374,-0.0643 -1.24274,-0.5123 z m 1.16024,-7.94107 c -1.05214,-0.21687 -1.24742,-0.74508 -0.64235,-1.73749 0.42816,-0.70224 1.08488,-0.97784 1.97265,-0.82785 0.71891,0.12145 1.55439,0.92109 1.55439,1.4877 0,0.91252 -1.31057,1.40211 -2.88469,1.07764 z m 2.98856,-7.96434 c -0.74382,-0.88398 -0.4867,-2.10313 0.44356,-2.10313 0.50727,0 1.48395,0.44388 1.90655,0.86649 0.78878,0.78877 0.14932,1.77935 -1.14864,1.77935 -0.61516,0 -0.82431,-0.0945 -1.20147,-0.54271 z m 77.856459,44.11293 c 0.43461,-0.22191 1.27478,-0.8688 1.86707,-1.43754 0.59228,-0.56874 1.19251,-1.03407 1.33384,-1.03407 0.14134,0 0.61085,0.36201 1.04336,0.80445 1.13133,1.15734 1.77287,1.50757 2.77577,1.51533 1.45436,0.0113 2.3208,-0.35403 3.39397,-1.43094 0.73575,-0.7383 1.06015,-1.23563 1.32765,-2.03537 0.4041,-1.20814 0.26277,-1.16583 2.70489,-0.80975 1.69981,0.24784 2.63756,0.14028 3.29664,-0.37816 0.60084,-0.47262 1.07329,-1.59186 1.22075,-2.89198 0.15928,-1.40442 0.40897,-2.15161 0.78651,-2.35367 0.18203,-0.0974 1.06822,-0.1232 2.0915,-0.0609 1.9382,0.11808 2.65357,-0.0469 3.08496,-0.71126 0.42488,-0.65437 0.80434,-2.09092 0.92858,-3.51537 l 0.1197,-1.37245 1.26769,0.11487 c 1.14234,0.10352 1.36653,0.0681 2.26715,-0.35794 1.22678,-0.58036 2.15966,-1.62022 2.31283,-2.57805 0.21915,-1.3705 -0.31056,-2.50501 -1.81613,-3.8897 -1.20936,-1.11226 -1.38698,-1.66814 -0.59032,-1.84743 1.97302,-0.44401 3.55997,-1.54372 4.14888,-2.87503 0.47698,-1.07831 0.47357,-3.11283 -0.007,-4.04312 -0.37723,-0.73058 -1.45763,-1.43872 -2.20181,-1.44317 -0.88456,-0.005 -0.61463,-0.65803 0.91147,-2.20408 1.52764,-1.54761 1.83079,-2.19249 1.60671,-3.4179 -0.0726,-0.39679 -0.34633,-1.00254 -0.60839,-1.34611 -0.55522,-0.72795 -1.97058,-1.50148 -2.7473,-1.50148 -0.33807,0 -0.58211,-0.10825 -0.65146,-0.28898 -0.10269,-0.2676 0.16838,-1.3128 0.76083,-2.93369 0.13369,-0.36576 0.24308,-1.17659 0.24308,-1.80185 0,-1.02352 -0.0554,-1.19985 -0.55535,-1.76933 -0.90207,-1.02739 -1.42589,-1.2173 -3.32521,-1.20554 -2.24536,0.0139 -3.96667,0.61424 -6.89282,2.40399 -3.11997,1.9083 -3.46003,2.15922 -3.80749,2.80952 -0.5017,0.93896 -0.34671,3.2776 0.40271,6.07622 0.48028,1.79357 0.28363,4.45094 -0.494,6.67563 -1.28883,3.68715 -4.94622,7.3685 -8.7533,8.81063 -1.19642,0.45321 -1.42364,0.48166 -3.175,0.39755 -6.26886,-0.30107 -8.20789,-0.8055 -11.10817,-2.88974 -1.63938,-1.17812 -2.12875,-1.39414 -2.44235,-1.07812 -0.18384,0.18527 -0.14776,0.41974 0.19348,1.25731 0.51613,1.26683 0.77068,1.55446 2.07901,2.34923 1.09266,0.66375 2.13512,1.09567 4.01182,1.6622 0.63059,0.19035 1.44532,0.43693 1.81051,0.54793 0.87782,0.26684 1.10755,0.55184 0.74062,0.91877 -0.38441,0.38441 -2.12095,0.35784 -3.60946,-0.0552 -2.48984,-0.69095 -5.94576,-2.18235 -7.03525,-3.03604 -0.52383,-0.41046 -1.07864,-0.42948 -1.07864,-0.037 0,0.35284 1.29316,2.10015 1.98552,2.68283 1.31428,1.10608 2.93655,1.92244 4.80545,2.4182 0.99329,0.26349 1.87279,0.32699 4.49792,0.32471 1.80086,-0.002 3.65842,-0.093 4.14514,-0.20414 1.75564,-0.40077 2.15701,-0.4253 2.26705,-0.13855 0.22719,0.59205 -0.0389,0.78356 -2.09066,1.50481 -1.47862,0.51977 -2.49409,0.61169 -6.40498,0.5798 -3.38384,-0.0276 -3.75364,-0.002 -3.70399,0.25575 0.0544,0.28258 0.31003,0.35724 4.11174,1.20101 0.6791,0.15072 1.52107,0.34896 1.87105,0.44053 2.74745,0.71888 5.63283,0.86358 8.63749,0.43318 2.65428,-0.38021 4.10912,-0.8179 6.16021,-1.85328 1.81387,-0.91564 2.48884,-1.11454 2.7832,-0.82018 0.19589,0.19589 0.20295,0.31408 0.0345,0.57734 -0.68359,1.0682 -3.89678,2.9996 -6.40956,3.85269 -1.81479,0.61612 -4.87371,0.86962 -8.93173,0.7402 -3.16914,-0.10108 -4.35502,-0.25884 -6.35,-0.84476 -1.94207,-0.57038 -2.34815,-0.71101 -3.35139,-1.16066 -1.92827,-0.86425 -2.13386,-0.98858 -3.18352,-1.92517 -1.37883,-1.23031 -1.86548,-1.54097 -2.20801,-1.40953 -0.41021,0.15741 -0.23105,0.69392 0.27133,0.81251 0.606,0.14306 0.934,1.32844 1.45751,5.26735 l 0.19588,1.47381 -0.58139,1.05756 c -0.42791,0.77838 -0.60126,1.34387 -0.65665,2.14215 -0.0912,1.31504 0.11503,1.76131 1.15017,2.48844 0.74097,0.5205 0.81957,0.53586 2.64425,0.51678 1.50432,-0.0157 2.03837,-0.093 2.66925,-0.38608 0.90298,-0.41952 1.23979,-0.28655 1.23979,0.48945 0,0.64734 0.6554,1.56841 1.41112,1.98312 0.82976,0.45535 2.59058,0.3542 3.7006,-0.21258 z m -1.83683,-1.29735 c -0.41695,-0.41695 -0.54789,-0.92057 -0.45892,-1.76504 0.0459,-0.43602 1.734,-2.9342 2.06974,-3.06304 0.35548,-0.1364 0.52246,0.17642 0.73341,1.37399 0.12934,0.73429 0.11659,1.29716 -0.0474,2.09304 -0.25414,1.23325 -0.48754,1.54239 -1.28492,1.70187 -0.45278,0.0906 -0.64537,0.0257 -1.01188,-0.34082 z m 8.69261,-0.86558 c -0.27373,-0.2229 -0.67861,-2.08195 -0.67861,-3.1159 0,-0.87734 0.45342,-1.6025 1.00198,-1.6025 0.62222,0 1.73691,1.17619 1.89048,1.99479 0.1365,0.7276 -0.0945,1.8919 -0.49733,2.5067 -0.32057,0.48925 -1.23948,0.60537 -1.71652,0.21691 z m -16.24493,-1.73392 c -0.94289,-0.54918 0.71628,-4.04282 1.91999,-4.04282 0.50835,0 0.66368,0.32646 0.67411,1.41672 0.0111,1.16179 -0.5328,2.25058 -1.28032,2.56291 -0.71054,0.29688 -0.89714,0.30586 -1.31378,0.0632 z m 24.26305,-2.62673 c -0.38605,-0.16239 -0.93643,-1.55997 -0.93496,-2.37414 0.001,-0.62738 0.65436,-1.51139 1.11681,-1.51139 0.55264,0 1.7996,0.91815 2.1394,1.57526 0.36402,0.70393 0.34605,1.65421 -0.0378,1.9977 -0.38284,0.34262 -1.76294,0.53153 -2.28348,0.31257 z m 6.8383,-5.40862 c -0.4718,-0.5998 -0.45877,-1.00337 0.069,-2.13698 0.39588,-0.85031 0.48005,-0.92604 1.02927,-0.92604 1.30615,0 2.06503,2.13159 1.1018,3.09482 -0.62069,0.6207 -1.69908,0.60511 -2.20007,-0.0318 z m 6.20545,-5.80333 c -0.46944,-0.19739 -0.56598,-0.35024 -0.67333,-1.06607 -0.0689,-0.4596 -0.0533,-1.04134 0.0348,-1.29276 0.24774,-0.7075 0.77394,-0.65367 1.71598,0.17555 0.73904,0.65053 0.83054,0.80916 0.7834,1.3582 -0.046,0.53604 -0.14007,0.65151 -0.68308,0.83857 -0.50546,0.17413 -0.73784,0.17146 -1.17772,-0.0135 z m 1.12703,-9.96902 c -1.09193,-0.3178 -1.66983,-1.45943 -1.07276,-2.11919 0.48086,-0.53134 2.34769,-0.48754 2.86895,0.0673 0.49112,0.52277 0.48673,1.0469 -0.0134,1.59289 -0.46406,0.50667 -1.07691,0.66444 -1.78284,0.45898 z m -1.83798,-8.73193 c -0.53675,-0.37595 -0.49384,-1.017 0.11358,-1.69683 0.44062,-0.49314 0.61825,-0.56587 1.38207,-0.56587 0.9157,0 1.38025,0.27742 1.79257,1.07049 0.27322,0.52551 0.25152,0.86122 -0.0769,1.18962 -0.38459,0.38458 -2.66336,0.38642 -3.21135,0.003 z m -2.83073,-7.54199 c -0.52788,-0.56191 -0.48245,-0.87946 0.21321,-1.49026 0.6774,-0.59476 1.69264,-0.85611 2.22302,-0.57226 0.60626,0.32446 0.4044,1.67696 -0.33502,2.24467 -0.49277,0.37834 -1.67058,0.27624 -2.10121,-0.18215 z m -76.759909,19.91627 c 4.44162,-0.63794 7.53521,-3.02415 8.64118,-6.66531 0.49947,-1.64441 0.43805,-4.34032 -0.13124,-5.76019 -1.14941,-2.86676 -4.01561,-5.31865 -7.34931,-6.28698 -1.48606,-0.43165 -4.56894,-0.44251 -6.23338,-0.022 -0.70422,0.17794 -1.32406,0.39417 -1.37743,0.48052 -0.0534,0.0864 -0.23231,0.15701 -0.39766,0.15701 -0.37987,0 -2.03124,1.10145 -2.89074,1.9281 -0.95215,0.91576 -1.82264,2.48478 -2.17399,3.91853 -0.57173,2.33298 -0.0996,5.68257 1.10576,7.8457 0.46692,0.83789 1.83112,2.31927 2.60473,2.82844 0.97452,0.64142 2.66509,1.25791 3.98429,1.45291 1.99429,0.2948 2.17575,0.32114 2.36571,0.34331 0.097,0.0113 0.93045,-0.0877 1.85208,-0.22008 z m -3.70417,-2.68662 c -2.64607,-0.51425 -4.60017,-2.2177 -5.20417,-4.53663 -0.46847,-1.79857 -0.20155,-3.88277 0.71228,-5.56179 0.65413,-1.20185 1.44502,-1.87965 3.06861,-2.62979 2.42682,-1.12126 4.87018,-0.97327 7.25076,0.43916 1.25934,0.74718 2.13836,1.66327 2.75958,2.87598 0.42996,0.83934 0.49697,1.17228 0.49697,2.46944 0,2.03004 -0.52241,3.37135 -1.85208,4.7553 -0.9224,0.96005 -1.26764,1.18153 -2.91042,1.86711 -0.70296,0.29337 -3.42411,0.49563 -4.32153,0.32122 z m 2.82222,-1.37349 c 1.97149,-0.61319 3.175,-1.41959 3.175,-2.12736 0,-0.54451 -0.40161,-0.66628 -1.19586,-0.36259 -1.32386,0.50619 -3.60358,0.84568 -4.89377,0.72877 -1.44966,-0.13137 -2.02883,0.10943 -1.70747,0.70991 0.21746,0.40632 0.70744,0.68452 1.79988,1.02193 1.04427,0.32254 1.85255,0.33094 2.82222,0.0293 z m -1.57238,-6.02559 c 0.65017,-0.62291 1.1142,-1.70714 0.97241,-2.2721 -0.17578,-0.70036 -1.29735,-1.83153 -2.03518,-2.05259 -0.55965,-0.16767 -0.75781,-0.14445 -1.34764,0.15795 -1.82802,0.9372 -2.23823,2.57992 -0.99346,3.97838 0.82343,0.92511 2.53596,1.01987 3.40387,0.18836 z m 59.404379,10.14935 c 2.69559,-0.338 4.58798,-1.17232 6.10549,-2.6918 2.31992,-2.32294 3.30992,-6.34501 2.40767,-9.78162 -0.7919,-3.01628 -2.7575,-4.98025 -6.07234,-6.06729 -1.42295,-0.46663 -1.88498,-0.53418 -3.74017,-0.54685 -2.34218,-0.016 -3.52865,0.25624 -5.5386,1.27086 -1.18646,0.59892 -3.28598,2.47867 -4.11613,3.68526 -1.85653,2.69837 -1.83343,6.51145 0.0585,9.64759 1.37572,2.28053 3.83232,3.77032 7.24448,4.39338 1.66776,0.30453 1.89837,0.31025 3.65114,0.0905 z m -3.46362,-2.89987 c -3.23237,-0.91176 -5.33226,-3.59778 -5.33226,-6.82063 0,-1.56372 0.60352,-2.8813 1.93333,-4.2208 1.41321,-1.4235 2.96537,-2.12448 4.95543,-2.23795 1.80108,-0.10269 3.0321,0.20155 4.61052,1.13946 1.55812,0.92585 2.43019,2.16374 2.89626,4.11117 0.79349,3.3156 -0.4679,6.10576 -3.39731,7.51475 -1.17196,0.56369 -1.50576,0.64143 -3.02683,0.70488 -1.17376,0.049 -2.00094,-0.0109 -2.63914,-0.19088 z m 3.68959,-1.22581 c 1.74947,-0.53095 2.43984,-1.16733 1.79157,-1.65146 -0.22879,-0.17087 -0.61937,-0.20638 -1.38915,-0.12629 -1.18827,0.12362 -2.89196,-0.11263 -4.72168,-0.65476 -1.07562,-0.31869 -1.2353,-0.32859 -1.47263,-0.0913 -0.23732,0.23732 -0.2347,0.31424 0.0242,0.70935 0.42655,0.65098 1.51415,1.34463 2.6841,1.71185 1.27057,0.39879 2.02491,0.42388 3.08361,0.10257 z m 2.04442,-6.04016 c 0.80505,-0.65158 1.15975,-1.60022 0.89531,-2.39446 -0.26535,-0.79697 -1.09775,-1.62888 -1.89219,-1.89107 -0.58628,-0.19349 -0.767,-0.17748 -1.46082,0.12943 -1.18724,0.52517 -1.91597,1.74402 -1.65778,2.77273 0.13272,0.52881 1.09248,1.65565 1.59443,1.87199 0.66571,0.28693 1.8453,0.0583 2.52105,-0.48862 z m -96.627689,6.88635 c 0.30166,-0.38349 0.36557,-0.71505 0.36549,-1.89618 -1.5e-4,-2.43234 -0.79386,-4.09202 -3.0906,-6.4625 -2.07833,-2.14506 -2.65715,-3.28672 -2.82164,-5.56529 -0.11948,-1.65526 -0.21392,-1.91384 -0.63932,-1.7506 -0.83872,0.32185 -3.07509,5.08489 -3.41694,7.27742 l -0.11713,0.75129 0.47435,-0.18035 c 0.26089,-0.0992 0.64284,-0.29836 0.84878,-0.44261 0.20593,-0.14424 0.6941,-0.26196 1.08483,-0.26159 1.51435,0.001 2.32468,1.05325 2.94048,3.81685 0.4122,1.84994 0.95174,2.92923 1.94431,3.88939 0.68637,0.66395 1.62294,1.28494 1.94232,1.28784 0.0657,5.3e-4 0.284,-0.20805 0.48507,-0.46367 z m 129.681199,0.0364 c 0.7895,-0.33441 2.13929,-1.77814 2.48548,-2.65847 0.15261,-0.38806 0.41109,-1.2215 0.57442,-1.85209 0.57883,-2.2348 0.71173,-2.56467 1.29336,-3.21015 0.86221,-0.95688 1.75732,-1.05525 3.08181,-0.33867 0.55107,0.29814 1.04148,0.46403 1.09859,0.37162 0.28186,-0.45605 -1.64908,-5.58834 -2.6201,-6.96405 -1.17611,-1.66628 -1.69393,-1.53247 -1.70218,0.43986 -0.0105,2.50882 -0.58624,3.65297 -3.21182,6.38264 -0.75801,0.78806 -1.45856,1.71111 -1.67338,2.20486 -0.95958,2.2055 -0.97562,2.27243 -0.91097,3.80332 0.0855,2.02394 0.36032,2.33978 1.58479,1.82113 z m -72.29595,-1.11507 c 0.71456,-0.79592 1.65362,-4.63266 2.06146,-8.42257 0.68415,-6.35759 0.58928,-8.3811 -0.57892,-12.34723 -0.5836,-1.98136 -2.176749,-5.24251 -3.576059,-7.32013 -1.45316,-2.15757 -3.78654,-4.33526 -5.65846,-5.2809 -1.9871,-1.00382 -2.94195,-1.24549 -4.9209,-1.24549 -2.42996,0 -2.39635,0.0386 -2.27526,-2.61581 0.0516,-1.13217 0.13409,-2.31008 0.18319,-2.61758 0.24074,-1.50756 -0.52672,-4.8202 -1.52644,-6.58866 -0.68757,-1.21629 -2.04379,-2.66257 -3.50318,-3.73582 -0.80788,-0.59412 -3.06802,-1.72825 -3.44413,-1.72825 -0.14952,0 -0.40969,-0.0765 -0.57815,-0.17011 -0.40535,-0.22513 -2.98098,-0.81663 -4.58372,-1.05267 -0.70335,-0.10358 -1.8146,-0.27122 -2.46945,-0.37254 -0.65484,-0.10131 -1.82562,-0.25837 -2.60173,-0.349 -4.82606,-0.5636 -6.5499,-0.85095 -8.99583,-1.49956 -0.58209,-0.15436 -1.25678,-0.32589 -1.49931,-0.38118 -0.96243,-0.21942 -4.35093,-1.71146 -5.44987,-2.39971 -2.83233,-1.77386 -4.0411,-2.90592 -5.59558,-5.24051 -0.60149,-0.90334 -1.79638,-3.33112 -2.03561,-4.13594 -0.64717,-2.177231 -1.03034,-3.893291 -1.03199,-4.621831 -10e-4,-0.47048 -0.0511,-1.15308 -0.11128,-1.51688 -0.14382,-0.87011 -0.61109,-0.87795 -1.41669,-0.0238 -1.68246,1.78393 -2.82618,5.85318 -2.64546,9.412261 0.3828,7.53859 4.13276,13.40343 11.93648,18.66832 2.13765,1.4422 5.95479,3.3053 10.00361,4.88264 1.14347,0.44547 2.23778,0.87722 2.43181,0.95944 0.82105,0.34795 3.13317,1.2594 4.93889,1.94694 2.96508,1.12898 3.18449,1.22212 5.69471,2.41741 3.87499,1.84514 9.37502,5.06934 12.31598,7.21981 1.65487,1.21007 4.61697,4.17564 6.14758,6.15479 1.59545,2.06299 3.19699,4.71655 4.60734,7.63381 0.62277,1.28817 1.1323,2.40422 1.1323,2.48009 0,0.0759 0.20324,0.64911 0.45163,1.27384 0.2484,0.62473 0.5252,1.53275 0.61513,2.01782 0.0899,0.48507 0.28997,1.47726 0.44456,2.20486 0.15458,0.7276 0.33985,2.46041 0.41169,3.85067 0.0976,1.88939 0.19427,2.56803 0.38263,2.68723 0.35036,0.22172 0.42369,0.20745 0.739029,-0.1438 z m -1.222489,-12.08264 c -0.91552,-1.02068 -0.94023,-1.12423 -0.94023,-3.93928 0,-3.43504 0.11167,-4.25637 0.62441,-4.59233 0.50284,-0.32947 1.2543,-0.15757 1.529199,0.34981 0.37293,0.6883 0.17343,7.45703 -0.243739,8.26999 -0.21446,0.41793 -0.54242,0.3881 -0.96964,-0.0882 z m -3.82669,-6.87917 c -0.23923,-0.31529 -0.6203,-1.12889 -0.84683,-1.80799 -0.37204,-1.11536 -0.40784,-1.50549 -0.37031,-4.03579 0.0407,-2.74688 0.14813,-3.28434 0.65621,-3.28434 0.37306,0 1.44943,1.21872 2.0172,2.28397 0.49583,0.93026 0.54795,1.17801 0.54522,2.59141 -0.002,0.93252 -0.13274,2.06205 -0.32466,2.80068 -0.56348,2.1687 -0.90723,2.46636 -1.67683,1.45206 z m -4.06367,-5.05214 c -0.16611,-0.18355 -0.57268,-0.95632 -0.90347,-1.71726 -0.45976,-1.0576 -0.89794,-1.69569 -1.86,-2.70858 -1.24029,-1.30581 -1.25726,-1.33647 -1.16969,-2.11337 0.0637,-0.56489 0.22155,-0.90246 0.55702,-1.19102 0.59123,-0.50856 1.01975,-0.50475 2.12418,0.0189 1.99279,0.94486 3.02501,2.83188 2.85695,5.22284 -0.10135,1.44178 -0.47579,2.54043 -0.92452,2.71263 -0.37532,0.14402 -0.33538,0.15718 -0.68047,-0.22415 z m -11.74079,-10.55828 c -0.96697,-0.97243 -1.42855,-2.36821 -1.58951,-4.80659 -0.14878,-2.25402 -0.3903,-3.06292 -1.42769,-4.78164 -1.25036,-2.07155 -1.23948,-2.80309 0.0417,-2.80309 0.67924,0 0.8227,0.10561 2.69551,1.98438 1.59318,1.59825 2.09134,2.22463 2.56016,3.21909 1.25214,2.65611 0.96839,6.50292 -0.55858,7.57245 -0.60701,0.42517 -1.00471,0.33632 -1.72158,-0.3846 z m -6.28724,-2.38122 c -1.9907,-1.55621 -2.79554,-3.04398 -4.0315,-7.45243 -0.43485,-1.551 -1.49894,-4.08156 -2.02806,-4.82299 -1.03485,-1.4501 -1.19349,-2.32076 -0.42286,-2.32076 0.92025,0 3.8205,2.36795 5.33421,4.35518 0.66691,0.87553 1.96109,3.56929 1.96109,4.0819 0,0.19767 0.0767,0.561 0.17033,0.80741 0.15346,0.40363 0.27488,1.17156 0.68869,4.35557 0.0706,0.54354 0.0981,1.07933 0.061,1.19063 -0.11578,0.34735 -1.19465,0.22626 -1.73288,-0.19451 z m -7.74129,-3.89093 c -2.43937,-1.45575 -3.89813,-3.326 -4.91297,-6.29881 -0.68364,-2.00263 -1.07318,-2.98604 -1.61505,-4.07731 -0.27141,-0.54659 -0.44425,-1.12206 -0.38409,-1.27882 0.29642,-0.77247 2.25922,0.0863 3.913,1.71196 1.1954,1.1751 1.43876,1.5786 1.93384,3.20648 0.17703,0.58208 0.42945,1.3576 0.56093,1.72336 0.13149,0.36577 0.23923,0.80233 0.23944,0.97014 1.7e-4,0.16781 0.3177,0.92138 0.70555,1.6746 0.82997,1.61182 0.94832,2.60562 0.30831,2.58889 -0.21828,-0.006 -0.55531,-0.10492 -0.74896,-0.22049 z m -8.82014,-3.6241 c -1.05878,-0.36308 -1.98965,-0.97575 -2.61723,-1.72258 -0.80922,-0.963 -1.10234,-1.82454 -2.09316,-6.15232 -0.24928,-1.0888 -0.67002,-1.81338 -1.36864,-2.35701 -0.62921,-0.48961 -0.72003,-1.08257 -0.16582,-1.08257 0.75771,0 2.30875,0.57498 3.02526,1.12148 0.99076,0.75568 2.03237,2.59531 2.76066,4.87574 1.26141,3.94976 1.32372,4.0756 2.39255,4.83212 0.29454,0.20847 0.31103,0.28726 0.1107,0.52865 -0.29591,0.35655 -0.91621,0.34335 -2.04432,-0.0435 z m -9.54113,-5.54806 c -1.6084,-1.71728 -2.51638,-2.96951 -4.24508,-5.85462 -0.58129,-0.97014 -1.20352,-2.16076 -1.38273,-2.64583 -0.17921,-0.48507 -0.37761,-0.96132 -0.44089,-1.05834 -0.39461,-0.60497 -0.72382,-2.41615 -0.6733,-3.70416 0.0543,-1.38501 0.0641,-1.41213 0.53034,-1.46595 0.37719,-0.0435 0.53154,0.0545 0.74965,0.47631 0.15107,0.29213 0.27467,0.62397 0.27467,0.73743 0,0.35205 1.58657,3.51035 2.40427,4.78604 0.42766,0.66718 1.48483,1.90438 2.34928,2.74933 0.86444,0.84496 1.65108,1.74506 1.74808,2.00022 0.38794,1.02057 0.90244,4.41791 0.72054,4.75781 -0.33491,0.62579 -0.93466,0.39641 -2.03483,-0.77824 z m 67.856439,49.79516 c 0.0674,-0.24203 0.13157,-1.2338 0.14271,-2.20394 0.0177,-1.53658 0.25264,-3.19813 0.88561,-6.26181 0.0902,-0.43656 0.36775,-1.25241 0.61678,-1.81301 0.24904,-0.5606 0.45279,-1.13137 0.45279,-1.26839 0,-0.13702 0.30721,-0.90866 0.68269,-1.71476 0.37548,-0.8061 0.71282,-1.54747 0.74965,-1.64748 0.32094,-0.87146 2.77812,-4.93078 3.82664,-6.32168 1.58557,-2.10332 4.19022,-4.73347 6.30143,-6.36311 1.60549,-1.23927 5.84558,-4.08012 6.38875,-4.28045 0.1689,-0.0623 0.5849,-0.28593 0.92445,-0.49697 1.36715,-0.84974 7.59703,-3.92669 9.08403,-4.48662 0.87312,-0.32878 1.66687,-0.64943 1.76389,-0.71256 0.097,-0.0631 0.57326,-0.25415 1.05833,-0.42448 0.48507,-0.17034 1.12007,-0.41482 1.41111,-0.54329 0.29104,-0.12847 0.84667,-0.35366 1.23473,-0.50041 2.87386,-1.08683 4.73757,-1.80772 5.64444,-2.1833 0.58208,-0.24107 1.37583,-0.56899 1.76389,-0.7287 1.35323,-0.55697 5.46235,-2.71739 6.47011,-3.40174 2.55138,-1.73261 5.66007,-4.45776 7.21899,-6.32833 2.12118,-2.54523 3.8908,-6.13399 4.37388,-8.87014 0.0893,-0.50569 0.25647,-1.43538 0.37154,-2.06597 0.47066,-2.57922 -0.19888,-6.705531 -1.50745,-9.290281 -0.5749,-1.13557 -1.79642,-2.38355 -2.26723,-2.31634 -0.34087,0.0487 -0.38189,0.1996 -0.48536,1.78596 -0.10925,1.67524 -0.2444,2.39179 -0.80428,4.26441 -0.66816,2.234801 -2.09836,5.008021 -3.35195,6.499601 -1.11479,1.32642 -3.4402,3.30076 -4.53648,3.85162 -0.3956,0.19877 -0.83833,0.46295 -0.98385,0.58705 -0.14553,0.1241 -0.65952,0.35811 -1.14221,0.52002 -0.48269,0.16192 -0.95894,0.35496 -1.05833,0.429 -0.33564,0.24999 -2.88803,1.05391 -4.50224,1.41804 -1.39948,0.3157 -3.88901,0.69894 -6.96736,1.07258 -9.32027,1.13124 -12.86652,2.12648 -15.66085,4.39518 -0.60285,0.48945 -1.17617,0.99011 -1.27405,1.11258 -2.6284,3.28888 -3.21615,5.40394 -2.88957,10.39844 0.13051,1.99596 0.12673,2.86877 -0.0136,3.1309 -0.17771,0.33207 -0.35777,0.36366 -2.08449,0.36574 -3.74745,0.005 -6.06258,1.18781 -9.26499,4.73549 -2.17439,2.40883 -4.78651,7.51482 -5.42685,10.60807 -0.60333,2.91442 -0.71018,4.26886 -0.53439,6.77387 0.52859,7.53259 1.80612,12.99652 2.98563,12.76937 0.15454,-0.0298 0.33609,-0.25214 0.40343,-0.49416 z m -0.63195,-11.63397 c -0.15488,-0.2506 -0.42445,-2.64024 -0.55998,-4.96405 -0.12335,-2.11502 0.12395,-3.58385 0.65087,-3.86585 0.50861,-0.2722 0.96861,-0.2038 1.33279,0.19818 0.3012,0.33246 0.34195,0.72225 0.39322,3.76148 l 0.0572,3.39058 -0.59472,0.77973 c -0.60265,0.79014 -1.06671,1.04402 -1.27937,0.69993 z m 3.55084,-6.93072 c -0.44607,-0.78339 -0.821,-2.87326 -0.821,-4.57626 0,-1.24494 0.0659,-1.53862 0.54824,-2.4436 0.57485,-1.07853 1.6454,-2.28397 2.02839,-2.28397 0.35614,0 0.4699,0.32079 0.62042,1.7495 0.0775,0.73552 0.19248,1.70155 0.25555,2.14674 0.24687,1.74283 -1.32101,5.99045 -2.20749,5.98042 -0.0542,-5.3e-4 -0.24507,-0.25839 -0.42411,-0.57283 z m 4.23158,-5.2802 c -0.74221,-1.15767 -0.80861,-3.74286 -0.13557,-5.2777 0.62211,-1.41867 2.4348,-2.80288 3.67052,-2.80288 0.78352,0 1.37844,0.7195 1.37844,1.66709 0,0.69548 -0.1,0.86206 -1.23564,2.05836 -0.93374,0.98361 -1.31784,1.54379 -1.57207,2.29275 -0.39758,1.17127 -1.14753,2.33586 -1.55469,2.41427 -0.1593,0.0307 -0.40724,-0.12767 -0.55099,-0.35189 z m 10.92948,-10.21392 c -1.5176,-1.19375 -1.73476,-4.85664 -0.44696,-7.53901 0.40812,-0.85007 1.00949,-1.63078 2.17194,-2.81961 2.25401,-2.30519 3.15041,-2.81032 3.81241,-2.14832 0.46041,0.46041 0.40021,0.68253 -0.71705,2.64583 -1.12818,1.98249 -1.34239,2.71811 -1.46387,5.02709 -0.10912,2.07407 -0.27107,2.69629 -1.04372,4.01003 -0.73799,1.25482 -1.44487,1.50666 -2.31275,0.82399 z m 6.54187,-2.31965 c -0.27807,-0.20519 -0.28063,-0.33054 -0.0351,-1.72062 0.14566,-0.82462 0.26494,-1.73236 0.26508,-2.0172 3.5e-4,-0.60706 0.41399,-2.46017 0.82947,-3.71544 0.9624,-2.90763 4.81936,-7.114 6.82089,-7.43881 1.0942,-0.17756 0.98951,0.48038 -0.41357,2.59924 -0.72188,1.09013 -1.7685,3.47233 -1.7685,4.02526 0,0.1962 -0.0719,0.53907 -0.15988,0.76191 -0.0879,0.22285 -0.33543,1.04018 -0.54999,1.81629 -0.21455,0.77611 -0.46011,1.48652 -0.54567,1.57868 -0.0856,0.0922 -0.15557,0.27511 -0.15557,0.40655 0,0.48819 -1.45279,2.35596 -2.34544,3.0154 -1.11952,0.82704 -1.54824,0.9791 -1.94174,0.68874 z m 8.17891,-4.08841 c -0.26259,-0.3164 -0.0172,-1.28592 0.5944,-2.34891 0.23671,-0.41138 0.63855,-1.44325 0.89297,-2.29306 1.16149,-3.87942 1.32376,-4.22572 2.57627,-5.49814 1.1454,-1.16361 3.35255,-2.30617 3.77604,-1.95471 0.38859,0.3225 0.32346,0.80415 -0.25006,1.84918 -0.2822,0.51421 -0.80329,1.78421 -1.15797,2.82223 -0.80681,2.36127 -0.91145,2.60244 -1.64601,3.79398 -0.59349,0.96268 -2.44573,2.99861 -2.72808,2.99861 -0.0809,0 -0.4392,0.19843 -0.79612,0.44097 -0.74538,0.50649 -0.97053,0.54038 -1.26144,0.18985 z m 7.83951,-3.69481 c -0.31212,-0.22823 -0.29456,-0.26526 0.31369,-0.66146 0.47028,-0.30632 0.78873,-0.74173 1.17887,-1.61187 0.29399,-0.6557 0.53454,-1.30681 0.53454,-1.44691 0,-0.1401 0.0721,-0.43706 0.1602,-0.65991 0.0881,-0.22284 0.33601,-0.95565 0.55089,-1.62845 0.65879,-2.06273 1.78698,-3.81846 2.89283,-4.50191 1.08734,-0.67202 2.94955,-1.09729 3.17902,-0.72599 0.0555,0.0899 -0.28346,0.60273 -0.75334,1.13969 -0.8939,1.02151 -1.0462,1.4067 -1.82111,4.60593 -0.21149,0.87313 -0.52669,1.92244 -0.70045,2.33181 -0.42064,0.99101 -1.65158,2.30106 -2.53198,2.69469 -1.66106,0.74267 -2.45474,0.8654 -3.00316,0.46438 z m 9.62404,-4.85067 c -0.18836,-0.35196 0.30064,-3.68497 0.68822,-4.69076 0.11079,-0.28753 0.94621,-1.25673 1.85648,-2.15378 0.91027,-0.89706 2.00178,-2.16993 2.42558,-2.82862 0.85912,-1.33529 2.24908,-4.1033 2.2501,-4.48092 0.001,-0.41325 0.68382,-1.39099 0.97125,-1.39099 0.66567,0 0.76314,1.9256 0.20535,4.05695 -0.61019,2.33159 -3.16315,6.86222 -5.43069,9.63762 -1.69749,2.07766 -2.55756,2.61421 -2.96629,1.8505 z M 42.966191,159.47827 c 0.10043,-0.18765 0.18259,-0.84487 0.18259,-1.46048 0,-0.61561 0.12262,-2.10911 0.27248,-3.31888 0.14986,-1.20978 0.22405,-2.3928 0.16487,-2.62894 -0.0592,-0.23614 -0.43639,-0.89808 -0.83825,-1.47097 l -0.73066,-1.04163 0.0418,-1.56274 c 0.0379,-1.41653 0.008,-1.58078 -0.31863,-1.75565 -0.20369,-0.10901 -0.63097,-0.14218 -0.98236,-0.0763 -0.71911,0.13491 -1.13318,0.6304 -2.03223,2.43183 l -0.60413,1.21052 1.08495,0.99434 c 1.27509,1.1686 1.4722,1.50638 1.47411,2.52615 0.003,1.46594 0.51717,4.64187 0.86032,5.31134 0.63671,1.24219 1.0728,1.49966 1.4251,0.84137 z m 129.462229,-0.76125 c 0.43235,-0.92494 0.54844,-1.48582 0.72108,-3.48368 0.11317,-1.30969 0.31186,-2.62956 0.44152,-2.93305 0.12966,-0.30349 0.6782,-0.93378 1.21898,-1.40065 0.60493,-0.52226 0.98233,-0.98862 0.9809,-1.2121 -0.003,-0.44707 -1.24349,-2.71661 -1.72147,-3.14917 -0.46005,-0.41634 -1.54428,-0.58959 -1.89068,-0.3021 -0.20067,0.16654 -0.26608,0.60638 -0.26608,1.78944 0,1.50522 -0.0256,1.60712 -0.63264,2.52144 -0.89388,1.34628 -0.9895,1.9469 -0.68437,4.29835 0.14228,1.09637 0.25868,2.5105 0.25868,3.1425 0,1.29969 0.20672,1.83145 0.71198,1.83145 0.25285,0 0.4864,-0.29866 0.8621,-1.10243 z M 69.430731,152.12343 c 0,-0.63642 -1.09676,-2.06577 -3.12677,-4.07497 -1.19908,-1.18679 -2.5318,-2.36388 -2.9616,-2.61576 -1.80176,-1.0559 -4.73284,-1.75096 -5.54681,-1.31534 -0.66158,0.35407 -0.41542,1.07915 0.52268,1.53961 0.43656,0.21428 0.9525,0.39336 1.14652,0.39796 0.19403,0.005 0.58014,0.12693 0.85801,0.27186 0.27788,0.14492 0.585,0.26349 0.68249,0.26349 0.51132,0 4.09561,2.58992 5.95922,4.30599 0.95773,0.88191 2.14073,1.69521 2.3119,1.58942 0.0849,-0.0525 0.15436,-0.21548 0.15436,-0.36226 z m 76.440949,-0.36427 c 0.49807,-0.35858 1.65964,-1.29641 2.58127,-2.08407 2.61882,-2.23815 3.56208,-2.80949 5.82965,-3.53101 1.87296,-0.59596 2.28424,-0.85061 2.28424,-1.41431 0,-1.18169 -2.80039,-0.91423 -5.5745,0.5324 -1.07902,0.56269 -4.88313,4.21638 -5.68415,5.45939 -0.49899,0.77434 -0.74315,1.68956 -0.45075,1.68956 0.0598,0 0.51617,-0.29338 1.01424,-0.65196 z m -73.273229,-1.23849 c -0.72643,-3.05221 -3.79629,-6.64978 -6.87841,-8.06082 -1.1319,-0.5182 -3.23584,-0.91834 -3.92251,-0.74599 -1.01727,0.25532 -0.43701,1.01228 1.10681,1.44387 2.35684,0.65888 5.65424,3.40301 7.93975,6.60755 1.29407,1.81444 1.61512,2.15735 1.82413,1.94835 0.11306,-0.11307 0.0889,-0.52633 -0.0698,-1.19296 z m 11.57945,1.11157 c 0.21476,-0.55965 -0.55837,-1.68141 -1.95898,-2.84235 -2.33354,-1.93424 -3.90347,-3.06712 -5.01362,-3.61793 -1.93055,-0.95784 -2.10945,-0.61281 -0.49853,0.96149 4.58363,4.47943 5.36195,5.1703 6.12951,5.44086 1.01114,0.35642 1.22356,0.36559 1.34162,0.0579 z m 47.341719,-0.24401 c 0.5846,-0.27473 6.0975,-5.41729 6.64431,-6.19797 0.74377,-1.06188 -1.55484,-0.17477 -3.49637,1.34935 -0.59161,0.46444 -1.75233,1.36036 -2.57938,1.99095 -1.07665,0.82091 -1.62273,1.37688 -1.9228,1.95764 -0.71363,1.38113 -0.28114,1.66856 1.35424,0.90003 z m 11.59889,-1.53475 c 1.14228,-1.64811 2.66499,-3.27703 4.27611,-4.57438 1.33593,-1.07577 2.06709,-1.4832 3.88055,-2.16242 1.03782,-0.3887 1.33478,-0.57882 1.37797,-0.88215 0.0454,-0.31916 -0.0548,-0.40726 -0.57417,-0.5047 -0.92205,-0.17297 -2.80552,0.24038 -4.13714,0.90794 -1.6118,0.80803 -3.09371,2.05184 -4.2961,3.60583 -1.53742,1.98698 -2.6713,4.56497 -2.36216,5.37058 0.1155,0.30099 0.13842,0.3002 0.48904,-0.0169 0.20233,-0.18298 0.80798,-0.96769 1.3459,-1.7438 z m -66.236569,0.96648 c 0.74437,-1.18231 -2.80508,-5.72339 -5.3718,-6.87255 -0.66231,-0.29652 -1.20354,-0.30931 -1.19336,-0.0282 0.002,0.0624 0.80804,1.02624 1.79064,2.1419 0.9826,1.11566 2.21195,2.67699 2.73188,3.46963 0.51994,0.79264 1.04368,1.48182 1.16387,1.53151 0.34783,0.1438 0.69615,0.0478 0.87877,-0.2423 z m 61.812139,-0.6137 c 0.95948,-1.5025 1.93695,-2.75675 3.49618,-4.48614 1.54248,-1.7108 1.7659,-2.12845 1.13865,-2.12845 -1.62691,0 -5.89449,4.37825 -6.2455,6.40747 -0.24916,1.44038 0.74175,1.5678 1.61067,0.20712 z m -92.808949,-1.19063 c 0.23307,-0.50932 0.55262,-1.67306 0.71009,-2.58608 0.42482,-2.46305 0.13505,-3.4483 -1.16744,-3.96945 -0.93805,-0.37534 -1.43366,-0.35207 -2.00062,0.0939 l -0.47475,0.37344 0.77516,0.74273 c 0.96271,0.92244 1.1851,1.71125 1.1851,4.20354 0,1.00803 0.0529,1.88569 0.11759,1.95037 0.25827,0.25826 0.44947,0.0775 0.85487,-0.80845 z m 123.244679,-1.58939 c 0.10022,-2.49155 0.32383,-3.17879 1.26888,-3.89961 0.61945,-0.47248 0.6389,-0.51696 0.36053,-0.82455 -0.68132,-0.75286 -2.09511,-0.57578 -3.00669,0.37658 -0.48537,0.50708 -0.51237,0.61392 -0.48225,1.90782 0.0351,1.50913 0.42237,3.23847 0.962,4.29624 0.57129,1.11981 0.79655,0.65386 0.89753,-1.85648 z m -87.704639,-4.18503 c 0.59551,-0.37962 0.38678,-0.53115 -8.02569,-5.82612 -5.32713,-3.353 -13.26302,-6.55855 -19.05,-7.69489 -3.70578,-0.72768 -10.03494,-1.01708 -12.76786,-0.58382 -4.3299,0.68644 -4.33378,0.68731 -7.42867,1.67105 -2.38906,0.75938 -2.48216,1.37321 -0.30916,2.03829 4.28153,1.31044 7.15255,3.25993 8.70689,5.9122 0.25038,0.42724 0.46917,0.77681 0.48619,0.77681 0.017,0 0.90245,-0.27783 1.96762,-0.6174 1.95882,-0.62446 2.83839,-0.85236 5.55263,-1.4387 2.12706,-0.4595 10.01244,-0.46772 12.6118,-0.0131 2.88119,0.50386 3.60003,0.66176 5.82083,1.27863 3.87645,1.07675 4.90973,1.50193 9.30386,3.82836 0.65062,0.34447 2.08483,0.79877 2.60239,0.82434 0.14553,0.007 0.38365,-0.0628 0.52917,-0.1556 z m 52.517259,-0.0389 c 0.46221,-0.11714 1.67382,-0.64398 2.69247,-1.17076 1.01864,-0.52678 2.14149,-1.1035 2.49522,-1.28159 1.15279,-0.5804 7.02303,-2.39764 8.97005,-2.77685 4.18088,-0.81427 4.24065,-0.81961 9.17223,-0.81961 4.0633,0 5.07975,0.0523 6.2618,0.32201 0.77611,0.1771 1.7683,0.4031 2.20486,0.5022 0.83176,0.18882 1.47865,0.37988 3.76833,1.11295 0.7629,0.24424 1.4102,0.44409 1.43845,0.44409 0.0283,0 0.25251,-0.34322 0.49835,-0.76271 0.94464,-1.61192 2.81359,-3.34973 4.70182,-4.37192 1.28289,-0.69449 3.7166,-1.56815 4.36831,-1.56815 0.20598,0 0.59722,-0.19363 0.86942,-0.43029 0.88794,-0.77199 0.51088,-0.99922 -3.82662,-2.30598 -5.00242,-1.50708 -13.97885,-1.49437 -19.75556,0.028 -0.53357,0.14061 -1.28764,0.33952 -1.67569,0.44202 -0.38806,0.1025 -1.34056,0.40385 -2.11667,0.66966 -0.77611,0.26582 -1.72861,0.58419 -2.11666,0.70749 -0.38806,0.12329 -0.94369,0.32836 -1.23473,0.45571 -0.29104,0.12734 -0.90184,0.39602 -1.35733,0.59706 -0.4555,0.20104 -0.8724,0.36552 -0.92646,0.36552 -0.054,0 -1.26888,0.56986 -2.69961,1.26635 -2.71381,1.32111 -7.15766,3.92274 -8.06937,4.72417 -0.29105,0.25584 -0.76402,0.58029 -1.05106,0.72101 -0.7834,0.38404 -3.8547,2.44078 -4.00293,2.68062 -0.13445,0.21754 0.13326,0.66202 0.39875,0.66202 0.0837,0 0.53043,-0.0958 0.99263,-0.21299 z m -25.15216,-4.48509 c 0.59382,-0.56892 0.82533,-1.22932 1.09964,-3.13693 0.111,-0.77184 0.29623,-1.4286 0.414,-1.46785 0.11722,-0.0391 0.46083,0.33152 0.76358,0.82355 0.30274,0.49202 0.61329,0.89459 0.69011,0.89459 0.4131,0 0.60768,-0.69149 0.70044,-2.48919 0.0742,-1.43859 0.16682,-1.97511 0.36163,-2.09539 0.39628,-0.24468 0.93174,0.36212 1.31529,1.49049 0.38937,1.1455 0.90565,1.73045 1.16786,1.32319 0.0925,-0.14369 0.12215,-0.99845 0.067,-1.93327 -0.12504,-2.12074 0.0628,-3.26319 0.53648,-3.26319 0.36519,0 0.70681,0.85957 0.94054,2.36658 0.22618,1.45835 0.77479,0.97925 1.09407,-0.95547 0.32533,-1.97133 0.7563,-2.9395 1.18933,-2.67187 0.0925,0.0572 0.26958,0.582 0.39358,1.16634 0.25928,1.22175 0.54175,1.69483 0.92431,1.54803 0.20683,-0.0794 0.28543,-0.49124 0.34243,-1.79449 0.10885,-2.48878 0.74253,-2.93937 1.6408,-1.16672 0.29647,0.58505 0.56276,0.89024 0.77678,0.89024 0.37656,0 1.78822,-1.44643 2.2126,-2.26709 0.36641,-0.70856 0.4075,-1.68589 0.0871,-2.07194 -0.22105,-0.26636 -0.54882,-0.28607 -3.07098,-0.18475 -3.38158,0.13585 -4.84243,0.46 -7.15797,1.58831 -2.07614,1.01166 -3.58895,2.14582 -6.09187,4.56706 -1.10028,1.06439 -2.1079,1.89618 -2.29697,1.89618 -0.19052,0 -1.02484,-0.69577 -1.92067,-1.60173 -4.59868,-4.6507 -7.558959,-6.10298 -13.225489,-6.48828 -1.78654,-0.12147 -2.41968,-0.10436 -2.86632,0.0775 -0.53695,0.21863 -0.57326,0.28813 -0.57326,1.09729 0,0.79462 0.0819,0.96149 1.02154,2.08157 1.30893,1.56028 1.6344,1.62229 2.24021,0.42679 0.54826,-1.08195 0.9042,-1.27108 1.35183,-0.71828 0.26182,0.32333 0.32531,0.70885 0.32531,1.97523 0,1.26594 0.054,1.59423 0.27644,1.67958 0.41258,0.15832 0.58116,-0.10618 0.91761,-1.43974 0.30751,-1.21885 0.47073,-1.43625 0.8824,-1.17528 0.2356,0.14935 0.64884,1.66677 0.82988,3.04731 0.12004,0.91539 0.4662,1.5076 0.77107,1.31918 0.11173,-0.0691 0.20423,-0.33915 0.20555,-0.60022 0.001,-0.26106 0.14459,-0.95091 0.31839,-1.53299 0.24362,-0.81594 0.4012,-1.07079 0.68802,-1.11271 0.33556,-0.0491 0.38281,0.0547 0.48206,1.05833 0.0605,0.61199 0.0872,1.7874 0.0592,2.61202 -0.0469,1.38329 -0.0243,1.49931 0.2911,1.49931 0.25197,0 0.45082,-0.27095 0.75602,-1.03017 0.720719,-1.79285 1.233609,-2.29459 1.606499,-1.57157 0.0876,0.16977 0.20208,1.12515 0.25449,2.12306 0.13553,2.58032 0.49243,2.92966 1.38226,1.35297 0.30351,-0.53778 0.64153,-0.94792 0.75116,-0.91143 0.10964,0.0365 0.28356,0.77416 0.3865,1.63925 0.20702,1.7398 0.52498,2.61551 1.15712,3.18687 0.54591,0.49343 0.92211,0.58456 2.0749,0.5026 0.7405,-0.0526 1.06134,-0.17444 1.45633,-0.55286 z m 2.06058,-14.85979 c 2.6048,-1.06723 4.73106,-2.98437 5.80304,-5.23234 0.30425,-0.63802 0.30301,-0.64957 -0.10565,-0.98049 -0.60882,-0.49299 -0.93569,-0.44584 -3.81404,0.55021 -3.96954,1.37366 -7.34504,1.39348 -11.23471,0.066 -2.745559,-0.93703 -3.239369,-1.04321 -3.756299,-0.80768 -0.32335,0.14733 -0.44302,0.33864 -0.44302,0.70826 0,0.84289 1.49781,2.83636 3.007599,4.00289 2.47375,1.91133 4.17776,2.42229 7.54446,2.26227 1.44426,-0.0687 2.06439,-0.18634 2.99862,-0.5691 z m -15.843729,-9.4373 c 1.35361,-0.63712 1.56186,-1.77215 0.53202,-2.89969 -0.45539,-0.49859 -0.61849,-0.56072 -1.47196,-0.56072 -0.52791,0 -1.38567,0.12352 -1.90613,0.27449 -1.72751,0.5011 -2.70527,0.76598 -3.15116,0.85367 -2.0497,0.40312 -3.95419,1.05944 -4.02059,1.38558 -0.10597,0.52047 2.14845,1.15492 4.81434,1.35486 2.45916,0.18443 4.24146,0.0446 5.20348,-0.40819 z m 31.926389,0.23979 c 1.79622,-0.36867 2.31121,-0.54365 2.41782,-0.82149 0.1144,-0.29812 -0.26609,-0.59607 -1.00671,-0.78831 -0.24254,-0.063 -1.07597,-0.28938 -1.85208,-0.50318 -0.77612,-0.2138 -1.68893,-0.45288 -2.02848,-0.53129 -0.33955,-0.0784 -1.3519,-0.34662 -2.24967,-0.59603 -0.89777,-0.24941 -2.04181,-0.46796 -2.54231,-0.48568 -0.80429,-0.0285 -0.95568,0.0251 -1.3034,0.46118 -0.54275,0.68068 -0.70004,1.77818 -0.33475,2.33569 0.32024,0.48875 1.19834,0.904 2.37319,1.12229 1.02407,0.19028 5.27051,0.0646 6.52639,-0.19318 z m -16.70647,-0.067 c 1.45659,-0.3794 2.98397,-1.22865 4.14808,-2.30641 1.46358,-1.35502 1.60614,-2.17812 0.42627,-2.46113 -0.26383,-0.0633 -1.075,-0.18345 -1.8026,-0.26705 -0.72761,-0.0836 -2.15144,-0.24798 -3.16408,-0.36531 -1.42835,-0.16549 -2.31819,-0.16653 -3.96875,-0.005 -8.137679,0.7981 -8.600819,0.93422 -7.286969,2.1417 0.65998,0.60655 2.801219,1.86111 4.124859,2.41677 2.4713,1.03744 5.48658,1.37655 7.52319,0.84608 z"
       id="path852" />
  </g>
</svg>
