<svg width="411.973px" height="230.551px">
<path d="M336.378 0 C336.378 0, 336.382 9.45628, 336.382 9.45628 C336.382 9.45628, 411.959 9.41258, 411.959 9.41258 C411.959 9.41258, 411.973 187.09, 411.973 187.09 C411.973 187.09, 336.378 187.086, 336.378 187.086 C336.378 187.086, 336.378 196.535, 336.378 196.535 C336.378 196.535, 41.5748 196.535, 41.5748 196.535 C41.5748 196.535, 41.5748 0, 41.5748 0 C41.5748 0, 336.378 0, 336.378 0 Z " stroke="black" stroke-width="1" fill="none" />

<path d="M86.9291 7.55906 L86.9291 62.3622 L49.1339 62.3622 L49.1339 7.55906 L86.9291 7.55906 Z " stroke="black" stroke-width="1" fill="none" />

<path d="M359.055 17.0079 C359.055 17.0079, 359.055 62.3622, 359.055 62.3622 C359.055 62.3622, 321.26 62.3622, 321.26 62.3622 C321.26 62.3622, 321.26 17.0079, 321.26 17.0079 C321.26 17.0079, 359.055 17.0079, 359.055 17.0079 Z " stroke="black" stroke-width="1" fill="none" />

<path d="M86.9291 69.9213 L86.9291 124.724 L49.1339 124.724 L49.1339 69.9213 L86.9291 69.9213 Z " stroke="black" stroke-width="1" fill="none" />

<path d="M86.9291 134.173 L86.9291 188.976 L49.1339 188.976 L49.1339 134.173 L86.9291 134.173 Z " stroke="black" stroke-width="1" fill="none" />

<path d="M132.283 134.173 L132.283 188.976 L94.4882 188.976 L94.4882 134.173 L132.283 134.173 Z " stroke="black" stroke-width="1" fill="none" />

<path d="M132.283 69.9213 L132.283 124.724 L94.4882 124.724 L94.4882 69.9213 L132.283 69.9213 Z " stroke="black" stroke-width="1" fill="none" />

<path d="M132.283 7.55906 L132.283 62.3622 L94.4882 62.3622 L94.4882 7.55906 L132.283 7.55906 Z " stroke="black" stroke-width="1" fill="none" />

<path d="M222.992 7.55906 L222.992 62.3622 L185.197 62.3622 L185.197 7.55906 L222.992 7.55906 Z " stroke="black" stroke-width="1" fill="none" />

<path d="M222.992 69.9213 L222.992 124.724 L185.197 124.724 L185.197 69.9213 L222.992 69.9213 Z " stroke="black" stroke-width="1" fill="none" />

<path d="M222.992 134.173 L222.992 188.976 L185.197 188.976 L185.197 134.173 L222.992 134.173 Z " stroke="black" stroke-width="1" fill="none" />

<path d="M177.638 134.173 L177.638 188.976 L139.843 188.976 L139.843 134.173 L177.638 134.173 Z " stroke="black" stroke-width="1" fill="none" />

<path d="M177.638 69.9213 L177.638 124.724 L139.843 124.724 L139.843 69.9213 L177.638 69.9213 Z " stroke="black" stroke-width="1" fill="none" />

<path d="M177.638 7.55906 L177.638 62.3622 L139.843 62.3622 L139.843 7.55906 L177.638 7.55906 Z " stroke="black" stroke-width="1" fill="none" />

<path d="M313.701 7.55906 L313.701 62.3622 L275.906 62.3622 L275.906 7.55906 L313.701 7.55906 Z " stroke="black" stroke-width="1" fill="none" />

<path d="M313.701 69.9213 L313.701 124.724 L275.906 124.724 L275.906 69.9213 L313.701 69.9213 Z " stroke="black" stroke-width="1" fill="none" />

<path d="M313.701 134.173 L313.701 188.976 L275.906 188.976 L275.906 134.173 L313.701 134.173 Z " stroke="black" stroke-width="1" fill="none" />

<path d="M268.346 134.173 L268.346 188.976 L230.551 188.976 L230.551 134.173 L268.346 134.173 Z " stroke="black" stroke-width="1" fill="none" />

<path d="M268.346 69.9213 L268.346 124.724 L230.551 124.724 L230.551 69.9213 L268.346 69.9213 Z " stroke="black" stroke-width="1" fill="none" />

<path d="M268.346 7.55906 L268.346 62.3622 L230.551 62.3622 L230.551 7.55906 L268.346 7.55906 Z " stroke="black" stroke-width="1" fill="none" />

<path d="M404.409 77.4803 C404.409 77.4803, 404.409 109.606, 404.409 109.606 C404.409 109.606, 366.614 109.606, 366.614 109.606 C366.614 109.606, 366.614 77.4803, 366.614 77.4803 C366.614 77.4803, 404.409 77.4803, 404.409 77.4803 Z " stroke="black" stroke-width="1" fill="none" />

<path d="M359.055 134.173 C359.055 134.173, 359.055 179.528, 359.055 179.528 C359.055 179.528, 321.26 179.528, 321.26 179.528 C321.26 179.528, 321.26 134.173, 321.26 134.173 C321.26 134.173, 359.055 134.173, 359.055 134.173 Z " stroke="black" stroke-width="1" fill="none" />

<path d="M359.055 69.9213 L359.055 124.724 L321.26 124.724 L321.26 69.9213 L359.055 69.9213 Z " stroke="black" stroke-width="1" fill="none" />

<path d="M404.409 17.0079 C404.409 17.0079, 404.409 73.7008, 404.409 73.7008 C404.409 73.7008, 366.614 73.7008, 366.614 73.7008 C366.614 73.7008, 366.614 17.0079, 366.614 17.0079 C366.614 17.0079, 404.409 17.0079, 404.409 17.0079 Z " stroke="black" stroke-width="1" fill="none" />

<path d="M404.409 113.386 C404.409 113.386, 404.409 145.512, 404.409 145.512 C404.409 145.512, 366.614 145.512, 366.614 145.512 C366.614 145.512, 366.614 113.386, 366.614 113.386 C366.614 113.386, 404.409 113.386, 404.409 113.386 Z " stroke="black" stroke-width="1" fill="none" />

<path d="M404.409 149.291 C404.409 149.291, 404.409 179.528, 404.409 179.528 C404.409 179.528, 366.614 179.528, 366.614 179.528 C366.614 179.528, 366.614 149.291, 366.614 149.291 C366.614 149.291, 404.409 149.291, 404.409 149.291 Z " stroke="black" stroke-width="1" fill="none" />

</svg>
